<svg xmlns="http://www.w3.org/2000/svg" width="293" height="226" viewBox="0 0 293 226">
    <g fill="none" fill-rule="evenodd" stroke="#C2A661">
        <path fill="#C2A661" d="M275.828 19.756l-9.297.119 5.56-7.451-2.985-8.805 8.805 2.986 7.45-5.56-.118 9.296 7.59 5.368-8.878 2.76-2.76 8.878z"/>
        <path stroke-width="2" d="M226.084 33.481l-10.32.132 6.173-8.27-3.314-9.775 9.773 3.315 8.272-6.173-.132 10.32 8.426 5.959-9.855 3.063-3.064 9.856zM38.195 178.832l-6.941 7.637-1.84-10.155-9.409-4.242 9.09-4.887 1.127-10.26 7.457 7.135 10.105-2.098-4.48 9.297 5.118 8.961zM35.5 121.66l-13.009.848 7.24-10.843-4.827-12.11 12.549 3.535 10.026-8.334.516 13.027 11.024 6.96-12.23 4.517-3.214 12.635z"/>
        <path fill="#C2A661" d="M270.183 77.992l-13.425 7.981 1.831-15.51-11.739-10.3 15.317-3.052 6.17-14.347 7.635 13.623 15.551 1.434-10.597 11.472 3.442 15.233z"/>
        <path fill="#C2A661" stroke-width="2" d="M72.125 209.267l-13.28 5.293 3.877-13.76-9.138-10.995 14.285-.565 7.632-12.088 4.952 13.41 13.855 3.524-11.224 8.854.93 14.266zM18.334 216.998l-6.416 6.356-1.143-8.959-8.027-4.137 8.167-3.855 1.454-8.914 6.19 6.576 8.927-1.37-4.341 7.919 4.062 8.066z"/>
        <path fill="#C2A661" d="M112.58 189.425l-8.996 4.932 1.557-10.14-7.47-7.031 10.125-1.652 4.38-9.278 4.7 9.119 10.175 1.298-7.22 7.288 1.91 10.079z"/>
    </g>
</svg>
