<?xml version="1.0" encoding="iso-8859-1"?>
<!-- Generator: Adobe Illustrator 19.0.0, SVG Export Plug-In . SVG Version: 6.00 Build 0)  -->
<svg version="1.1" id="Capa_1" xmlns="http://www.w3.org/2000/svg" xmlns:xlink="http://www.w3.org/1999/xlink" x="0px" y="0px"
	 viewBox="0 0 511.919 511.919" style="enable-background:new 0 0 511.919 511.919;" xml:space="preserve">
<polygon style="fill:#656D78;" points="255.96,301.951 51.993,301.951 67.99,221.964 255.96,221.964 "/>
<g style="opacity:0.2;">
	<polygon style="fill:#FFFFFF;" points="67.99,221.964 51.993,301.951 59.992,301.951 75.989,221.964 	"/>
</g>
<path style="fill:#E6E9ED;" d="M123.981,261.958v-39.994v-47.992V37.994c0-6.64-5.358-11.998-11.998-11.998h63.99
	c6.639,0,11.998,5.358,11.998,11.998v183.97v39.994H123.981z"/>
<path style="fill:#FFFFFF;" d="M131.981,173.972V37.994c0-6.64-5.359-11.998-11.998-11.998h-7.999
	c6.64,0,11.998,5.358,11.998,11.998v135.978v47.992v39.994h7.999v-39.994V173.972z"/>
<g style="opacity:0.2;">
	<path d="M187.971,173.972V37.994c0-6.64-5.359-11.998-11.998-11.998h-7.999c6.64,0,11.998,5.358,11.998,11.998v135.978v47.992
		v39.994h7.999v-39.994V173.972z"/>
</g>
<rect x="291.95" y="125.979" style="fill:#FFCE54;" width="127.98" height="47.992"/>
<rect x="347.95" y="173.969" style="fill:#656D78;" width="15.997" height="47.992"/>
<polygon style="fill:#FFCE54;" points="459.927,301.951 255.96,301.951 255.96,221.964 443.93,221.964 "/>
<g style="opacity:0.2;">
	<polygon points="443.93,221.964 435.931,221.964 451.929,301.951 459.927,301.951 	"/>
</g>
<polygon style="fill:#37BC9B;" points="459.927,301.951 51.993,301.951 4.001,381.938 507.92,381.938 "/>
<g style="opacity:0.4;">
	<polygon style="fill:#FFFFFF;" points="51.993,301.951 4.001,381.938 19.998,381.938 67.99,301.951 	"/>
</g>
<g style="opacity:0.2;">
	<polygon points="459.927,301.951 507.92,381.938 491.922,381.938 443.93,301.951 	"/>
</g>
<polygon style="fill:#E6E9ED;" points="458.537,365.91 61.382,365.91 85.815,317.949 434.104,317.918 "/>
<rect x="4" y="397.939" style="fill:#48CFAD;" width="503.92" height="87.986"/>
<rect x="4" y="381.939" style="fill:#656D78;" width="503.92" height="15.997"/>
<circle style="fill:#CCD1D9;" cx="255.96" cy="441.929" r="19.997"/>
<g style="opacity:0.5;">
	<path style="fill:#FFFFFF;" d="M243.962,441.929c0-9.678,6.87-17.739,15.998-19.591c-1.293-0.266-2.629-0.405-4-0.405
		c-11.045,0-19.997,8.951-19.997,19.996c0,11.046,8.952,19.997,19.997,19.997c1.371,0,2.707-0.141,4-0.406
		C250.832,459.668,243.962,451.607,243.962,441.929z"/>
</g>
<g style="opacity:0.2;">
	<path d="M267.958,441.929c0,9.679-6.869,17.739-15.997,19.591c1.293,0.266,2.628,0.406,3.999,0.406
		c11.045,0,19.997-8.951,19.997-19.997c0-11.045-8.952-19.996-19.997-19.996c-1.371,0-2.706,0.14-3.999,0.405
		C261.089,424.189,267.958,432.251,267.958,441.929z"/>
</g>
<path style="fill:#E6E9ED;" d="M51.993,117.981v11.998c0,6.64-5.358,11.998-11.998,11.998s-11.998-5.358-11.998-11.998v-11.998
	H51.993z"/>
<path style="fill:#CCD1D9;" d="M75.989,89.985v51.992H39.995c6.64,0,11.998-5.358,11.998-11.998v-11.998V89.985
	c0-6.64,5.358-11.998,11.998-11.998S75.989,83.346,75.989,89.985z"/>
<path style="fill:#E6E9ED;" d="M99.985,77.987v83.986c0,6.64-5.358,11.998-11.998,11.998s-11.998-5.358-11.998-11.998v-19.996
	V89.985c0-6.64-5.358-11.998-11.998-11.998H99.985z"/>
<path style="fill:#CCD1D9;" d="M123.981,37.994v135.978H87.987c6.64,0,11.998-5.358,11.998-11.998V77.987V38.791v-0.797
	c0-6.64,5.358-11.998,11.998-11.998S123.981,31.355,123.981,37.994z"/>
<g style="opacity:0.3;">
	<path d="M111.983,25.996c-6.64,0-11.998,5.358-11.998,11.998v0.797v7.202c0-6.64,5.358-11.998,11.998-11.998
		s11.998,5.358,11.998,11.998v-7.999C123.981,31.355,118.623,25.996,111.983,25.996z"/>
</g>
<g style="opacity:0.3;">
	<path d="M63.991,77.987c-6.64,0-11.998,5.358-11.998,11.998v0.797v7.202c0-6.64,5.358-11.998,11.998-11.998
		s11.998,5.358,11.998,11.998v-7.999C75.989,83.346,70.631,77.987,63.991,77.987z"/>
</g>
<g style="opacity:0.3;">
	<path d="M87.987,173.972c6.64,0,11.998-5.358,11.998-11.998v-0.796v-7.202c0,6.64-5.358,11.998-11.998,11.998
		s-11.998-5.358-11.998-11.998v7.998C75.989,168.613,81.348,173.972,87.987,173.972z"/>
</g>
<g style="opacity:0.3;">
	<path d="M39.995,141.978c6.64,0,11.998-5.358,11.998-11.998v-0.797v-7.202c0,6.64-5.358,11.998-11.998,11.998
		s-11.998-5.358-11.998-11.998v7.999C27.997,136.619,33.356,141.978,39.995,141.978z"/>
</g>
<g style="opacity:0.2;">
	<polygon points="453.577,357.942 65.44,357.942 61.382,365.91 458.537,365.91 	"/>
</g>
<g style="opacity:0.2;">
	<polygon points="442.228,333.946 77.692,333.946 73.591,341.914 446.297,341.914 	"/>
</g>
<g style="opacity:0.4;">
	<rect x="4" y="397.939" style="fill:#FFFFFF;" width="15.997" height="87.986"/>
</g>
<g style="opacity:0.2;">
	<rect x="491.92" y="397.939" width="15.998" height="87.986"/>
</g>
<g style="opacity:0.3;">
	<rect x="4" y="389.939" width="503.92" height="7.998"/>
</g>
<g style="opacity:0.5;">
	<rect x="255.96" y="221.959" style="fill:#FFFFFF;" width="7.999" height="79.987"/>
</g>
<g style="opacity:0.2;">
	<rect x="247.96" y="221.959" width="7.999" height="79.987"/>
</g>
<g style="opacity:0.5;">
	<rect x="291.95" y="125.979" style="fill:#FFFFFF;" width="7.999" height="47.992"/>
</g>
<g style="opacity:0.2;">
	<rect x="411.94" y="125.979" width="7.999" height="47.992"/>
</g>
<g>
	<path style="fill:#3A3847;" d="M172.212,65.989c-2.207,0-4.038-1.788-4.038-3.999s1.75-3.999,3.96-3.999h0.078
		c2.211,0,4,1.788,4,3.999C176.212,64.201,174.423,65.989,172.212,65.989z"/>
	<path style="fill:#3A3847;" d="M172.212,89.985c-2.207,0-4.038-1.788-4.038-3.999s1.75-3.999,3.96-3.999h0.078
		c2.211,0,4,1.788,4,3.999S174.423,89.985,172.212,89.985z"/>
	<path style="fill:#3A3847;" d="M172.212,113.981c-2.207,0-4.038-1.788-4.038-3.999s1.75-3.999,3.96-3.999h0.078
		c2.211,0,4,1.788,4,3.999S174.423,113.981,172.212,113.981z"/>
	<path style="fill:#3A3847;" d="M172.212,137.978c-2.207,0-4.038-1.788-4.038-3.999s1.75-3.999,3.96-3.999h0.078
		c2.211,0,4,1.788,4,3.999S174.423,137.978,172.212,137.978z"/>
	<path style="fill:#3A3847;" d="M172.212,161.974c-2.207,0-4.038-1.788-4.038-3.999s1.75-3.999,3.96-3.999h0.078
		c2.211,0,4,1.788,4,3.999S174.423,161.974,172.212,161.974z"/>
	<path style="fill:#3A3847;" d="M172.212,185.97c-2.207,0-4.038-1.788-4.038-3.999s1.75-3.999,3.96-3.999h0.078
		c2.211,0,4,1.788,4,3.999S174.423,185.97,172.212,185.97z"/>
	<path style="fill:#3A3847;" d="M172.212,209.966c-2.207,0-4.038-1.788-4.038-3.999c0-2.21,1.75-3.999,3.96-3.999h0.078
		c2.211,0,4,1.789,4,3.999C176.211,208.178,174.423,209.966,172.212,209.966z"/>
	<path style="fill:#3A3847;" d="M172.212,233.963c-2.207,0-4.038-1.789-4.038-4c0-2.21,1.75-3.999,3.96-3.999h0.078
		c2.211,0,4,1.789,4,3.999C176.211,232.174,174.423,233.963,172.212,233.963z"/>
	<path style="fill:#3A3847;" d="M507.92,385.938c-1.359,0-2.68-0.694-3.43-1.944l-47.992-79.987
		c-1.133-1.891-0.523-4.351,1.367-5.483c1.906-1.148,4.358-0.523,5.491,1.375l47.992,79.987c1.133,1.89,0.523,4.351-1.367,5.483
		C509.333,385.758,508.622,385.938,507.92,385.938z"/>
	<path style="fill:#3A3847;" d="M507.92,489.922H4.001c-2.211,0-4-1.789-4-4v-87.986c0-2.21,1.789-3.999,4-3.999H507.92
		c2.21,0,3.999,1.789,3.999,3.999v87.986C511.919,488.133,510.13,489.922,507.92,489.922z M8,481.923h495.92v-79.987H8V481.923z"/>
	<path style="fill:#3A3847;" d="M4.001,393.937c-2.211,0-4-1.788-4-3.999v-7.999c0-2.21,1.789-3.999,4-3.999
		c2.21,0,3.999,1.789,3.999,3.999v7.999C8,392.148,6.211,393.937,4.001,393.937z"/>
	<path style="fill:#3A3847;" d="M507.92,393.937c-2.211,0-4-1.788-4-3.999v-7.999c0-2.21,1.789-3.999,4-3.999
		c2.21,0,3.999,1.789,3.999,3.999v7.999C511.919,392.148,510.13,393.937,507.92,393.937z"/>
	<path style="fill:#3A3847;" d="M507.92,385.938H4.001c-2.211,0-4-1.788-4-3.999c0-2.21,1.789-3.999,4-3.999H507.92
		c2.21,0,3.999,1.789,3.999,3.999C511.919,384.149,510.13,385.938,507.92,385.938z"/>
	<path style="fill:#3A3847;" d="M3.997,385.938c-0.699,0-1.41-0.18-2.055-0.569c-1.894-1.133-2.507-3.594-1.371-5.483l47.992-79.987
		c1.136-1.898,3.589-2.523,5.487-1.375c1.894,1.133,2.507,3.593,1.371,5.483L7.43,383.993C6.68,385.243,5.356,385.938,3.997,385.938
		z"/>
	<path style="fill:#3A3847;" d="M459.927,305.951H51.993c-2.211,0-4-1.789-4-4c0-2.21,1.789-3.999,4-3.999h407.934
		c2.211,0,4,1.789,4,3.999C463.927,304.162,462.138,305.951,459.927,305.951z"/>
	<path style="fill:#3A3847;" d="M255.96,465.926c-13.232,0-23.996-10.765-23.996-23.997c0-13.231,10.764-23.996,23.996-23.996
		s23.996,10.765,23.996,23.996C279.956,455.161,269.192,465.926,255.96,465.926z M255.96,425.932
		c-8.822,0-15.997,7.179-15.997,15.997c0,8.819,7.175,15.998,15.997,15.998c8.827,0,15.998-7.179,15.998-15.998
		S264.787,425.932,255.96,425.932z"/>
	<path style="fill:#3A3847;" d="M255.96,449.928c-2.21,0-3.999-1.789-3.999-3.999v-7.999c0-2.211,1.789-3.999,3.999-3.999
		c2.211,0,4,1.788,4,3.999v7.999C259.96,448.139,258.171,449.928,255.96,449.928z"/>
	<path style="fill:#3A3847;" d="M458.568,369.94c-1.453,0-2.859-0.797-3.562-2.179l-24.48-48c-1-1.969-0.219-4.375,1.749-5.375
		c1.977-1.016,4.374-0.227,5.382,1.75l24.473,47.984c1,1.969,0.227,4.375-1.742,5.382C459.803,369.8,459.186,369.94,458.568,369.94z
		"/>
	<path style="fill:#3A3847;" d="M401.937,369.94c-1.609,0-3.132-0.983-3.733-2.577l-18.317-47.984
		c-0.789-2.062,0.242-4.375,2.305-5.164c2.054-0.789,4.374,0.234,5.162,2.305l18.318,48c0.789,2.062-0.25,4.375-2.312,5.163
		C402.89,369.855,402.405,369.94,401.937,369.94z"/>
	<path style="fill:#3A3847;" d="M353.304,369.94c-1.789,0-3.421-1.202-3.874-3.015l-12.232-47.984
		c-0.547-2.141,0.734-4.32,2.874-4.867c2.156-0.531,4.32,0.742,4.875,2.883l12.232,48c0.547,2.141-0.75,4.319-2.891,4.858
		C353.96,369.901,353.624,369.94,353.304,369.94z"/>
	<path style="fill:#3A3847;" d="M304.671,369.94c-1.992,0-3.71-1.476-3.968-3.499l-6.155-47.977
		c-0.281-2.188,1.258-4.195,3.452-4.484c2.18-0.305,4.188,1.258,4.476,3.453l6.164,48.008c0.281,2.188-1.273,4.187-3.469,4.468
		C304.999,369.933,304.835,369.94,304.671,369.94z"/>
	<path style="fill:#3A3847;" d="M255.96,369.94c-2.21,0-3.999-1.788-3.999-3.999v-47.992c0-2.211,1.789-4,3.999-4
		c2.211,0,4,1.789,4,4v47.992C259.96,368.152,258.171,369.94,255.96,369.94z"/>
	<path style="fill:#3A3847;" d="M61.347,369.94c-0.613,0-1.234-0.141-1.815-0.438c-1.969-1.007-2.746-3.413-1.742-5.382
		l24.473-47.984c1-1.977,3.39-2.766,5.378-1.75c1.969,1,2.753,3.406,1.754,5.375l-24.48,48
		C64.206,369.144,62.8,369.94,61.347,369.94z"/>
	<path style="fill:#3A3847;" d="M109.983,369.94c-0.476,0-0.96-0.086-1.433-0.266c-2.062-0.788-3.093-3.101-2.3-5.163l18.396-47.992
		c0.793-2.07,3.105-3.086,5.167-2.305c2.062,0.789,3.093,3.102,2.301,5.164l-18.396,47.992
		C113.108,368.965,111.593,369.94,109.983,369.94z"/>
	<path style="fill:#3A3847;" d="M158.62,369.94c-0.332,0-0.664-0.039-1-0.125c-2.136-0.547-3.425-2.726-2.878-4.866l12.232-47.984
		c0.543-2.148,2.703-3.453,4.858-2.891c2.145,0.539,3.441,2.719,2.898,4.859l-12.24,48
		C162.026,368.738,160.401,369.94,158.62,369.94z"/>
	<path style="fill:#3A3847;" d="M207.331,369.94c-0.168,0-0.336-0.008-0.508-0.031c-2.19-0.281-3.741-2.28-3.464-4.468l6.081-47.992
		c0.281-2.195,2.316-3.742,4.472-3.469c2.191,0.281,3.742,2.281,3.465,4.469l-6.081,47.992
		C211.038,368.465,209.315,369.94,207.331,369.94z"/>
	<path style="fill:#3A3847;" d="M458.568,369.94H61.351c-2.21,0-3.999-1.788-3.999-3.999s1.789-4,3.999-4h397.218
		c2.21,0,3.999,1.789,3.999,4S460.778,369.94,458.568,369.94z"/>
	<path style="fill:#3A3847;" d="M434.088,321.948H85.827c-2.21,0-3.999-1.788-3.999-3.999s1.789-4,3.999-4h348.261
		c2.218,0,3.999,1.789,3.999,4S436.306,321.948,434.088,321.948z"/>
	<path style="fill:#3A3847;" d="M444.57,345.944H75.349c-2.21,0-3.999-1.788-3.999-3.999s1.789-4,3.999-4H444.57
		c2.211,0,3.999,1.789,3.999,4S446.781,345.944,444.57,345.944z"/>
	<path style="fill:#3A3847;" d="M51.997,305.951c-0.258,0-0.523-0.023-0.789-0.078c-2.164-0.43-3.569-2.539-3.136-4.703
		l15.998-79.986c0.434-2.172,2.496-3.602,4.706-3.141c2.164,0.43,3.57,2.539,3.136,4.702l-15.998,79.987
		C55.535,304.639,53.864,305.951,51.997,305.951z"/>
	<path style="fill:#3A3847;" d="M115.982,225.964H67.99c-2.21,0-3.999-1.789-3.999-4c0-2.21,1.789-3.999,3.999-3.999h47.992
		c2.211,0,4,1.789,4,3.999C119.982,224.175,118.193,225.964,115.982,225.964z"/>
	<path style="fill:#3A3847;" d="M459.927,305.951c-1.874,0-3.546-1.312-3.921-3.219l-15.997-79.987
		c-0.438-2.163,0.969-4.272,3.141-4.702c2.194-0.453,4.272,0.977,4.701,3.141l15.998,79.986c0.438,2.164-0.969,4.273-3.141,4.703
		C460.442,305.928,460.177,305.951,459.927,305.951z"/>
	<path style="fill:#3A3847;" d="M195.97,265.957h-79.987c-2.21,0-3.999-1.788-3.999-3.999c0-2.21,1.789-3.999,3.999-3.999h79.987
		c2.211,0,4,1.789,4,3.999C199.969,264.169,198.181,265.957,195.97,265.957z"/>
	<path style="fill:#3A3847;" d="M123.981,265.957c-2.21,0-3.999-1.788-3.999-3.999V37.994c0-2.211,1.789-3.999,3.999-3.999
		c2.211,0,4,1.788,4,3.999v223.964C127.981,264.169,126.192,265.957,123.981,265.957z"/>
	<path style="fill:#3A3847;" d="M99.985,165.974c-2.211,0-3.999-1.789-3.999-4V38.791c0-2.211,1.788-4,3.999-4s3.999,1.789,3.999,4
		v123.183C103.984,164.185,102.196,165.974,99.985,165.974z"/>
	<path style="fill:#3A3847;" d="M75.989,165.974c-2.211,0-4-1.789-4-4V89.985c0-2.21,1.789-3.999,4-3.999
		c2.21,0,3.999,1.789,3.999,3.999v71.988C79.988,164.185,78.2,165.974,75.989,165.974z"/>
	<path style="fill:#3A3847;" d="M187.971,265.957c-2.21,0-4-1.788-4-3.999V37.994c0-2.211,1.789-3.999,4-3.999s4,1.788,4,3.999
		v223.964C191.971,264.169,190.182,265.957,187.971,265.957z"/>
	<path style="fill:#3A3847;" d="M123.981,41.993c-2.21,0-3.999-1.789-3.999-3.999c0-4.413-3.59-7.999-7.999-7.999
		s-7.999,3.586-7.999,7.999c0,2.21-1.788,3.999-3.999,3.999s-3.999-1.789-3.999-3.999c0-8.819,7.174-15.998,15.997-15.998
		s15.998,7.179,15.998,15.998C127.981,40.204,126.192,41.993,123.981,41.993z"/>
	<path style="fill:#3A3847;" d="M75.989,93.985c-2.211,0-4-1.789-4-4c0-4.413-3.589-7.998-7.999-7.998s-7.999,3.585-7.999,7.998
		c0,2.211-1.789,4-3.999,4c-2.211,0-4-1.789-4-4c0-8.818,7.175-15.997,15.998-15.997s15.997,7.179,15.997,15.997
		C79.988,92.196,78.2,93.985,75.989,93.985z"/>
	<path style="fill:#3A3847;" d="M39.995,145.977c-8.823,0-15.998-7.179-15.998-15.997c0-2.211,1.789-4,4-4
		c2.21,0,3.999,1.789,3.999,4c0,4.413,3.589,7.998,7.999,7.998c4.409,0,7.999-3.585,7.999-7.998c0-2.211,1.789-4,4-4
		c2.21,0,3.999,1.789,3.999,4C55.992,138.798,48.818,145.977,39.995,145.977z"/>
	<path style="fill:#3A3847;" d="M87.987,177.972c-8.823,0-15.998-7.179-15.998-15.998c0-2.21,1.789-3.999,4-3.999
		c2.21,0,3.999,1.789,3.999,3.999c0,4.414,3.59,7.999,7.999,7.999s7.999-3.585,7.999-7.999c0-2.21,1.788-3.999,3.999-3.999
		s3.999,1.789,3.999,3.999C103.984,170.793,96.81,177.972,87.987,177.972z"/>
	<path style="fill:#3A3847;" d="M187.971,41.993c-2.21,0-4-1.789-4-3.999c0-4.413-3.589-7.999-7.999-7.999c-2.21,0-4-1.789-4-3.999
		c0-2.211,1.789-4,4-4c8.823,0,15.998,7.179,15.998,15.998C191.971,40.204,190.182,41.993,187.971,41.993z"/>
	<path style="fill:#3A3847;" d="M175.973,29.995h-63.99c-2.21,0-3.999-1.789-3.999-3.999c0-2.211,1.789-4,3.999-4h63.99
		c2.21,0,4,1.789,4,4C179.973,28.206,178.184,29.995,175.973,29.995z"/>
	<path style="fill:#3A3847;" d="M123.981,177.972H87.987c-2.211,0-3.999-1.789-3.999-4c0-2.21,1.788-3.999,3.999-3.999h35.994
		c2.211,0,4,1.789,4,3.999C127.981,176.183,126.192,177.972,123.981,177.972z"/>
	<path style="fill:#3A3847;" d="M99.985,81.987H63.991c-2.211,0-4-1.789-4-4c0-2.21,1.789-3.999,4-3.999h35.994
		c2.211,0,3.999,1.789,3.999,3.999C103.984,80.198,102.196,81.987,99.985,81.987z"/>
	<path style="fill:#3A3847;" d="M51.993,133.979c-2.211,0-4-1.789-4-3.999V89.985c0-2.21,1.789-3.999,4-3.999
		c2.21,0,3.999,1.789,3.999,3.999v39.994C55.992,132.189,54.204,133.979,51.993,133.979z"/>
	<path style="fill:#3A3847;" d="M27.997,133.979c-2.211,0-4-1.789-4-3.999v-11.998c0-2.211,1.789-4,4-4c2.21,0,3.999,1.789,3.999,4
		v11.998C31.996,132.189,30.208,133.979,27.997,133.979z"/>
	<path style="fill:#3A3847;" d="M51.993,121.98H27.997c-2.211,0-4-1.789-4-3.999c0-2.211,1.789-4,4-4h23.996
		c2.21,0,3.999,1.789,3.999,4C55.992,120.191,54.204,121.98,51.993,121.98z"/>
	<path style="fill:#3A3847;" d="M75.989,145.977H39.995c-2.211,0-4-1.789-4-3.999c0-2.211,1.789-4,4-4h35.994
		c2.21,0,3.999,1.789,3.999,4C79.988,144.188,78.2,145.977,75.989,145.977z"/>
	<path style="fill:#3A3847;" d="M443.93,225.964H195.97c-2.21,0-3.999-1.789-3.999-4c0-2.21,1.789-3.999,3.999-3.999h247.96
		c2.211,0,3.999,1.789,3.999,3.999C447.929,224.175,446.141,225.964,443.93,225.964z"/>
	<path style="fill:#3A3847;" d="M255.96,305.951c-2.21,0-3.999-1.789-3.999-4v-79.987c0-2.21,1.789-3.999,3.999-3.999
		c2.211,0,4,1.789,4,3.999v79.987C259.96,304.162,258.171,305.951,255.96,305.951z"/>
	<path style="fill:#3A3847;" d="M395.938,249.96H283.956c-2.211,0-4-1.789-4-3.999c0-2.211,1.789-4,4-4h111.981
		c2.211,0,3.999,1.789,3.999,4C399.937,248.171,398.148,249.96,395.938,249.96z"/>
	<path style="fill:#3A3847;" d="M419.934,265.957H283.956c-2.211,0-4-1.788-4-3.999c0-2.21,1.789-3.999,4-3.999h135.978
		c2.211,0,3.999,1.789,3.999,3.999C423.933,264.169,422.145,265.957,419.934,265.957z"/>
	<path style="fill:#3A3847;" d="M371.941,281.955h-87.985c-2.211,0-4-1.789-4-4c0-2.21,1.789-3.999,4-3.999h87.985
		c2.211,0,3.999,1.789,3.999,3.999C375.94,280.166,374.152,281.955,371.941,281.955z"/>
	<path style="fill:#3A3847;" d="M347.945,217.965c-2.21,0-3.999-1.789-3.999-3.999v-39.994c0-2.21,1.789-3.999,3.999-3.999
		c2.211,0,3.999,1.789,3.999,3.999v39.994C351.944,216.176,350.156,217.965,347.945,217.965z"/>
	<path style="fill:#3A3847;" d="M363.942,217.965c-2.21,0-3.999-1.789-3.999-3.999v-39.994c0-2.21,1.789-3.999,3.999-3.999
		c2.211,0,4,1.789,4,3.999v39.994C367.942,216.176,366.153,217.965,363.942,217.965z"/>
	<path style="fill:#3A3847;" d="M419.934,177.972h-127.98c-2.21,0-3.999-1.789-3.999-4V125.98c0-2.21,1.789-3.999,3.999-3.999
		h127.979c2.211,0,3.999,1.789,3.999,3.999v47.992C423.933,176.183,422.145,177.972,419.934,177.972z M295.954,169.973h119.98
		V129.98h-119.98V169.973z"/>
	<path style="fill:#3A3847;" d="M315.95,161.974c-2.21,0-3.999-1.788-3.999-3.999v-15.997c0-2.211,1.789-4,3.999-4
		c2.211,0,4,1.789,4,4v15.997C319.95,160.186,318.161,161.974,315.95,161.974z"/>
	<path style="fill:#3A3847;" d="M339.946,161.974c-6.615,0-11.998-5.382-11.998-11.998s5.383-11.998,11.998-11.998
		c6.616,0,11.998,5.382,11.998,11.998S346.563,161.974,339.946,161.974z M339.946,145.977c-2.202,0-3.999,1.797-3.999,3.999
		c0,2.203,1.797,4,3.999,4c2.203,0,4-1.797,4-4S342.149,145.977,339.946,145.977z"/>
	<path style="fill:#3A3847;" d="M363.942,161.974c-6.615,0-11.998-5.382-11.998-11.998s5.383-11.998,11.998-11.998
		c6.616,0,11.998,5.382,11.998,11.998S370.559,161.974,363.942,161.974z M363.942,145.977c-2.202,0-3.999,1.797-3.999,3.999
		c0,2.203,1.797,4,3.999,4c2.203,0,4-1.797,4-4S366.146,145.977,363.942,145.977z"/>
	<path style="fill:#3A3847;" d="M387.939,161.974c-6.615,0-11.998-5.382-11.998-11.998s5.383-11.998,11.998-11.998
		c6.617,0,11.998,5.382,11.998,11.998S394.556,161.974,387.939,161.974z M387.939,145.977c-2.202,0-3.999,1.797-3.999,3.999
		c0,2.203,1.797,4,3.999,4c2.203,0,4-1.797,4-4S390.142,145.977,387.939,145.977z"/>
	<path style="fill:#3A3847;" d="M155.977,65.989h-15.998c-2.21,0-4-1.788-4-3.999s1.789-3.999,4-3.999h15.998
		c2.21,0,3.999,1.788,3.999,3.999C159.976,64.201,158.187,65.989,155.977,65.989z"/>
	<path style="fill:#3A3847;" d="M155.977,89.985h-15.998c-2.21,0-4-1.788-4-3.999s1.789-3.999,4-3.999h15.998
		c2.21,0,3.999,1.788,3.999,3.999S158.187,89.985,155.977,89.985z"/>
	<path style="fill:#3A3847;" d="M155.977,113.981h-15.998c-2.21,0-4-1.788-4-3.999s1.789-3.999,4-3.999h15.998
		c2.21,0,3.999,1.788,3.999,3.999S158.187,113.981,155.977,113.981z"/>
	<path style="fill:#3A3847;" d="M155.977,137.978h-15.998c-2.21,0-4-1.788-4-3.999s1.789-3.999,4-3.999h15.998
		c2.21,0,3.999,1.788,3.999,3.999S158.187,137.978,155.977,137.978z"/>
	<path style="fill:#3A3847;" d="M155.977,161.974h-15.998c-2.21,0-4-1.788-4-3.999s1.789-3.999,4-3.999h15.998
		c2.21,0,3.999,1.788,3.999,3.999S158.187,161.974,155.977,161.974z"/>
	<path style="fill:#3A3847;" d="M155.977,185.97h-15.998c-2.21,0-4-1.788-4-3.999s1.789-3.999,4-3.999h15.998
		c2.21,0,3.999,1.788,3.999,3.999S158.187,185.97,155.977,185.97z"/>
	<path style="fill:#3A3847;" d="M155.977,209.966h-15.998c-2.21,0-4-1.788-4-3.999c0-2.21,1.789-3.999,4-3.999h15.998
		c2.21,0,3.999,1.789,3.999,3.999C159.976,208.178,158.187,209.966,155.977,209.966z"/>
	<path style="fill:#3A3847;" d="M155.977,233.963h-15.998c-2.21,0-4-1.789-4-4c0-2.21,1.789-3.999,4-3.999h15.998
		c2.21,0,3.999,1.789,3.999,3.999C159.976,232.174,158.187,233.963,155.977,233.963z"/>
</g>
<g>
</g>
<g>
</g>
<g>
</g>
<g>
</g>
<g>
</g>
<g>
</g>
<g>
</g>
<g>
</g>
<g>
</g>
<g>
</g>
<g>
</g>
<g>
</g>
<g>
</g>
<g>
</g>
<g>
</g>
</svg>
