<?xml version="1.0" encoding="iso-8859-1"?>
<!-- Generator: Adobe Illustrator 19.0.0, SVG Export Plug-In . SVG Version: 6.00 Build 0)  -->
<svg version="1.1" id="Capa_1" xmlns="http://www.w3.org/2000/svg" xmlns:xlink="http://www.w3.org/1999/xlink" x="0px" y="0px"
	 viewBox="0 0 512 512" style="enable-background:new 0 0 512 512;" xml:space="preserve">
<path style="fill:#50515B;" d="M380.51,7.604H131.489c-24.744,0-44.804,20.059-44.804,44.804v407.184
	c0,24.744,20.059,44.804,44.804,44.804H380.51c24.744,0,44.804-20.059,44.804-44.804V52.408
	C425.315,27.663,405.256,7.604,380.51,7.604z"/>
<rect x="86.685" y="67.422" style="fill:#C7F3FF;" width="338.63" height="375.129"/>
<circle style="fill:#00C7A9;" cx="256" cy="254.986" r="142.954"/>
<path style="fill:#FCD2BE;" d="M331.072,188.39v88.58c0,40.594-32.922,73.516-73.528,73.516c-10.877,0-21.192-2.362-30.478-6.596
	v-0.012c-22.466-10.245-38.876-31.472-42.349-56.827c-3.263-1.147-6.327-3.017-8.947-5.637c-9.263-9.251-9.263-24.268,0-33.518
	c9.25-9.275,24.279-9.275,33.542,0l6.175-35.401l4.211-24.104h111.375V188.39z"/>
<path style="fill:#FAB998;" d="M227.066,343.878c-22.466-10.245-38.876-31.472-42.349-56.827c-3.263-1.147-6.327-3.017-8.947-5.637
	c-9.263-9.251-9.263-24.268,0-33.518c9.25-9.275,24.279-9.275,33.542,0l6.175-35.401l19.356,3.93
	C226.704,230.492,192.332,281.846,227.066,343.878z"/>
<path style="fill:#F9CE55;" d="M365.445,152.544c0,35.284-28.607,63.879-63.879,63.879h-66.721v5.929
	c0,14.105-11.438,25.531-25.542,25.531c-6.83-6.83-16.806-8.62-25.274-5.368v-26.092c0-35.273,28.607-63.879,63.879-63.879H365.445z
	"/>
<path style="fill:#E2A11E;" d="M300.044,152.544h-52.136c-35.273,0-63.879,28.607-63.879,63.879v26.093
	c8.468-3.251,18.443-1.462,25.274,5.368c14.105,0,25.542-11.426,25.542-25.531v-5.929h1.32
	C236.165,181.151,264.771,152.544,300.044,152.544z"/>
<path d="M380.511,0H131.489c-28.898,0-52.408,23.509-52.408,52.408v15.014v375.129v17.042c0,28.898,23.509,52.408,52.408,52.408
	H380.51c28.899,0,52.409-23.509,52.409-52.408V159.176c0-4.199-3.404-7.604-7.604-7.604c-4.2,0-7.604,3.405-7.604,7.604v275.77
	H150.051c-4.2,0-7.604,3.405-7.604,7.604s3.404,7.604,7.604,7.604h98.345v46.638H131.489c-20.511,0-37.2-16.687-37.2-37.2v-9.438
	h31.43c4.2,0,7.604-3.405,7.604-7.604s-3.404-7.604-7.604-7.604h-31.43V75.026h323.422v59.818c0,4.199,3.404,7.604,7.604,7.604
	c4.2,0,7.604-3.405,7.604-7.604V52.408C432.919,23.509,409.409,0,380.511,0z M263.604,450.154h154.107v9.438
	c0,20.512-16.688,37.2-37.2,37.2H263.604V450.154z M94.289,59.818v-7.41c0-20.512,16.688-37.2,37.2-37.2H380.51
	c20.512,0,37.201,16.687,37.201,37.2v7.41H94.289z"/>
<path d="M296.554,27.374h-81.109c-4.2,0-7.604,3.405-7.604,7.604s3.404,7.604,7.604,7.604h81.109c4.2,0,7.604-3.405,7.604-7.604
	S300.755,27.374,296.554,27.374z"/>
<path d="M275.927,259.79v-12.161c0-4.199-3.404-7.604-7.604-7.604s-7.604,3.405-7.604,7.604v12.161c0,4.199,3.404,7.604,7.604,7.604
	S275.927,263.989,275.927,259.79z"/>
<path d="M292.336,247.629v12.161c0,4.199,3.404,7.604,7.604,7.604c4.2,0,7.604-3.405,7.604-7.604v-12.161
	c0-4.199-3.404-7.604-7.604-7.604C295.739,240.025,292.336,243.429,292.336,247.629z"/>
<path d="M248.173,293.865c-2.085-3.646-6.733-4.914-10.374-2.83c-3.647,2.083-4.914,6.728-2.83,10.375
	c7.312,12.796,19.862,20.023,36.292,20.9c0.138,0.007,0.275,0.011,0.412,0.011c4.013,0,7.37-3.143,7.586-7.198
	c0.224-4.193-2.994-7.774-7.188-7.998C260.901,306.528,252.86,302.067,248.173,293.865z"/>
<path d="M373.045,152.549c0-4.199-3.404-7.604-7.604-7.604H247.909c-39.414,0-71.479,32.065-71.479,71.479v5.949
	c0,4.199,3.404,7.604,7.604,7.604s7.604-3.405,7.604-7.604v-5.949c0-31.028,25.243-56.271,56.271-56.271h109.416
	c-3.722,27.446-27.309,48.667-55.76,48.667h-66.722c-4.2,0-7.604,3.405-7.604,7.604v5.926c0,8.987-6.646,16.451-15.28,17.736
	c-8.6-6.799-20.26-8.662-30.64-4.676c-4.093,1.56-7.769,3.952-10.921,7.105c-5.918,5.911-9.177,13.772-9.177,22.139
	c0,8.366,3.259,16.229,9.173,22.137c2.239,2.239,4.747,4.095,7.49,5.549c7.258,37.773,40.767,65.751,79.66,65.751
	c44.737,0,81.131-36.391,81.131-81.12v-44.385c0-4.199-3.404-7.604-7.604-7.604c-4.2,0-7.604,3.405-7.604,7.604v44.385
	c0,36.344-29.573,65.912-65.923,65.912c-32.779,0-60.849-24.446-65.293-56.863c-0.387-2.826-2.323-5.196-5.014-6.142
	c-2.301-0.808-4.35-2.101-6.093-3.844c-3.042-3.038-4.715-7.079-4.715-11.38c0-4.301,1.674-8.341,4.72-11.383
	c1.63-1.63,3.511-2.859,5.606-3.658c5.934-2.278,12.677-0.847,17.182,3.658c1.571,1.57,3.669,2.312,5.742,2.216
	c17.543-0.194,31.856-14.087,32.727-31.46h59.16C340.979,224.028,373.045,191.962,373.045,152.549z"/>
<path d="M330.968,124.392c-22.705-13.061-48.629-19.964-74.968-19.964c-83.018,0-150.558,67.54-150.558,150.558
	S172.982,405.545,256,405.545s150.558-67.54,150.558-150.558c0-24.05-5.504-47.035-16.358-68.316
	c-1.909-3.741-6.49-5.226-10.229-3.318c-3.741,1.908-5.227,6.488-3.319,10.229c9.753,19.12,14.698,39.781,14.698,61.406
	c0,74.632-60.718,135.35-135.35,135.35s-135.35-60.718-135.35-135.35s60.718-135.35,135.35-135.35
	c23.681,0,46.983,6.203,67.386,17.939c3.641,2.094,8.289,0.84,10.382-2.8C335.863,131.134,334.609,126.485,330.968,124.392z"/>
<g>
</g>
<g>
</g>
<g>
</g>
<g>
</g>
<g>
</g>
<g>
</g>
<g>
</g>
<g>
</g>
<g>
</g>
<g>
</g>
<g>
</g>
<g>
</g>
<g>
</g>
<g>
</g>
<g>
</g>
</svg>
