<svg xmlns="http://www.w3.org/2000/svg" width="200" height="200" viewBox="0 0 200 200">
    <g fill="none" fill-rule="nonzero">
        <path fill="#29485A" d="M112 146h13v13h-13z"/>
        <g fill="#ED1C24">
            <path d="M154.341 14.872l4.764-4.715 6.736 6.666-4.764 4.714zM134.13 60.144l6.736-6.666 4.763 4.714-6.736 6.666z"/>
        </g>
        <g fill="#FBCC34">
            <path d="M170.285 65.965h6.7v10.074h-6.7zM7.13 7.893l4.737-4.749 6.698 6.715-4.737 4.75z"/>
        </g>
        <g fill="#0378A3">
            <path d="M66.466 124.116l6.725-6.7 4.755 4.738-6.724 6.7zM18.405 66.175h6.725v10.052h-6.725zM49.655 6.846l6.725-6.7 4.755 4.738-6.724 6.7zM193.26 2.513h6.724v10.052h-6.725z"/>
        </g>
        <path fill="#06AAE9" d="M124 111.971l4.971-4.971 7.029 7.029-4.971 4.971z"/>
        <path fill="#ED1C24" d="M0 171.971L4.971 167 12 174.029 7.029 179z"/>
        <path fill="#FBCC34" d="M73 190h7v10h-7z"/>
        <path fill="#0378A3" d="M124 188.029l7.029-7.029 4.971 4.971-7.029 7.029z"/>
        <g fill="#06AAE9">
            <path d="M181.57 182.154l4.737-4.74 6.699 6.702-4.738 4.74zM6.403 142.919h10.05v6.703H6.402z"/>
        </g>
        <path fill="#FF1D25" d="M35.5 190c-7.456 0-13.5-6.044-13.5-13.5S28.044 163 35.5 163 49 169.044 49 176.5 42.956 190 35.5 190zm0-20.25a6.75 6.75 0 1 0 0 13.5 6.75 6.75 0 0 0 0-13.5z"/>
        <g>
            <path fill="#FFD311" d="M143.5 38c8.016 0 14.5 6.484 14.5 14.5S151.516 67 143.5 67 129 60.516 129 52.5 135.483 38 143.5 38z"/>
            <path fill="#FDB51E" d="M144.5 27c14.089 0 25.5 11.188 25.5 25s-11.411 25-25.5 25S119 65.812 119 52s11.411-25 25.5-25zm14.875 25c0-8.062-6.651-14.583-14.875-14.583S129.625 43.937 129.625 52c0 8.062 6.651 14.583 14.875 14.583s14.875-6.52 14.875-14.583z"/>
            <g fill="#FFD311">
                <path d="M167.643 127.7h4.204v12.646h-6.306v12.645h-46.238v-12.645h6.305v-12.645h-4.203v-12.645H115.1V102.41h4.203V89.765h4.204V77.12h46.238v12.645h-4.204v12.645h-4.203v12.646h6.305zM102.49 115.056h6.305v25.29h-8.407v12.645H54.15v-12.645h8.407v-25.29H56.25V102.41h4.204V89.765h4.203V77.12h-6.305V64.475H54.15V51.829h6.305V39.184h46.238V51.83h-6.305v12.646h4.203V77.12h6.306v12.645h-4.204v12.645h-4.203z"/>
            </g>
            <g fill="#231F20">
                <path d="M88.008 50.1h4.211v3.838h-4.211zM92.221 75.419h4.211v3.838h-4.211zM88.008 100.742h4.211v3.838h-4.211zM90.115 126.062h4.211v3.838h-4.211zM98.539 126.062h4.211v3.838h-4.211z"/>
            </g>
            <g fill="#FFF">
                <path d="M68.128 63.022h4.224v3.838h-4.224zM74.464 88.342h4.224v3.838h-4.224zM70.238 113.664h4.224v3.838h-4.224zM68.128 138.984h4.224v3.838h-4.224zM150.497 88.342h4.224v3.838h-4.224zM148.387 115.773h4.224v3.838h-4.224zM152.61 138.984h4.224v3.838h-4.224z"/>
            </g>
            <g fill="#231F20">
                <path d="M135.378 126.094h4.267v3.807h-4.267zM128.978 100.982h4.267v3.807h-4.267zM160.785 52.657c0-9.128-7.57-16.553-16.873-16.553-9.305 0-16.874 7.425-16.874 16.553s7.57 16.553 16.874 16.553c9.304 0 16.873-7.425 16.873-16.553zm-29.866 0c0-7.029 5.828-12.746 12.993-12.746 7.164 0 12.993 5.717 12.993 12.746 0 7.028-5.829 12.747-12.993 12.747-7.165 0-12.994-5.719-12.994-12.747z"/>
            </g>
            <g fill="#FFF">
                <path d="M135.134 50.098h4.203v3.766h-4.203zM147.743 50.098h4.203v3.766h-4.203z"/>
            </g>
            <path fill="#231F20" d="M167.464 151.175v-8.792h6.344V125.94h-4.23v-12.617h-6.343v-8.793h4.23V91.913h4.229V75.47H158.35c7.984-4.743 13.343-13.421 13.343-23.322 0-14.97-12.247-27.148-27.3-27.148-15.054 0-27.301 12.178-27.301 27.147 0 9.901 5.359 18.58 13.342 23.323h-9.113v12.617h-4.23v12.617h-4.229v16.443h6.344v12.618h4.23v8.792h-6.344v12.617h-15.187v-8.792h8.46v-29.06h-6.345v-8.792h4.23V91.913h4.23V75.47h-6.345V62.853h-4.23V54.06h6.345V37.617H57.88v12.618h-6.344v16.443h4.23v12.617h6.343v8.792h-4.23v12.618H53.65v16.442h6.345v21.41h-8.46v12.617H45V155h129v-3.825h-6.536zm-90.743-12.618v3.825h21.34v8.793H55.381v-8.793h8.46v-12.617H85.18v-3.825H63.841v-12.617h-6.344v-8.793h25.568v-3.825H61.727v-8.792h4.229V79.295h21.339V75.47H59.612V62.853h-4.23V54.06h27.683v-3.825H61.727v-8.792h42.677v8.792H98.06v12.618H76.721v3.825h25.568v12.617h6.345v8.792H83.065v3.825h21.34v8.793h-4.23v12.617h-21.34v3.825h27.684v21.41H76.721zm44.219-86.41c0-12.86 10.521-23.322 23.453-23.322 12.933 0 23.454 10.463 23.454 23.322 0 12.86-10.521 23.323-23.454 23.323-12.932 0-23.453-10.463-23.453-23.323zm42.678 99.028H120.94v-8.792h27.683v-3.825h-21.339V125.94h-4.23v-6.69h21.34v-3.824h-21.34v-2.103h-6.344v-8.793h4.23V91.913h25.568v-3.825H125.17v-8.792h42.678v8.792h-4.23v12.617H138.05v3.825h21.339v12.618h6.344v8.792h-21.339v3.825h25.569v8.792h-6.344v12.618z"/>
        </g>
        <g>
            <path fill="#FDBB00" d="M131 123a4.136 4.136 0 0 0-4.37-4.131 4.136 4.136 0 0 0-5.17-4.701 4.135 4.135 0 0 0-6.215-2.779A4.132 4.132 0 0 0 111.5 109a4.132 4.132 0 0 0-3.745 2.39 4.135 4.135 0 0 0-6.214 2.778 4.136 4.136 0 0 0-5.17 4.701A4.136 4.136 0 0 0 92 123"/>
            <path fill="#EDAB06" d="M103.383 118.861c.08 0 .159.003.237.008a4.197 4.197 0 0 1-.062-.712c0-2.286 1.837-4.139 4.103-4.139.378 0 .744.053 1.092.15.353-1.925 2.024-3.383 4.033-3.383.783 0 1.514.221 2.136.604.024-.052.052-.103.078-.154a4.095 4.095 0 0 0-3.64-2.235 4.1 4.1 0 0 0-3.719 2.39 4.056 4.056 0 0 0-2.135-.605c-2.01 0-3.681 1.458-4.033 3.383a4.067 4.067 0 0 0-1.093-.15c-2.265 0-4.102 1.853-4.102 4.139 0 .243.022.48.061.712a4.088 4.088 0 0 0-.236-.008c-2.266 0-4.103 1.853-4.103 4.139h7.28c0-2.286 1.838-4.139 4.103-4.139z"/>
            <g fill="#8CC63F">
                <path d="M96.833 126.287a79.115 79.115 0 0 0-10.222 2.769c-.963.33-2.02-.152-2.38-1.088a1.794 1.794 0 0 1-.122-.649c0-.76.484-1.473 1.26-1.74a83.456 83.456 0 0 1 27.127-4.53c9.172 0 18.342 1.51 27.127 4.53.996.343 1.512 1.422 1.138 2.39a1.88 1.88 0 0 1-1.76 1.191c-.205 0-.414-.034-.62-.104a79.11 79.11 0 0 0-10.222-2.769 79.517 79.517 0 0 0-15.663-1.556c-5.247 0-10.496.518-15.663 1.556z"/>
                <path d="M130.994 162.972l-2.835-36.501a79.517 79.517 0 0 0-15.663-1.556c-5.247 0-10.496.518-15.663 1.556l-2.835 36.501h36.996z"/>
            </g>
            <path fill="#7EAF31" d="M101 126c-1.736.235-3.468.53-5.19.885L93 164h5.312L101 126z"/>
            <path fill="#FDBB00" d="M118 130.762v-1.064c0-.938-.763-1.698-1.706-1.698h-9.588c-.943 0-1.706.76-1.706 1.698v8.604c0 .938.763 1.698 1.706 1.698h9.588c.943 0 1.706-.76 1.706-1.698v-7.54z"/>
            <g fill="#A67C52">
                <path d="M109.316 131.444h6.305v5.046h-6.305zM128.861 136.888l-.496-5.841h-9.39v5.84zM105.963 136.888v-5.841h-9.39l-.496 5.84z"/>
            </g>
            <path fill="#936841" d="M102 131h-5.474L96 137h5.51z"/>
            <path fill="#000" d="M115 115c-1.654 0-3 1.391-3 3.101 0 .496.39.899.87.899s.87-.403.87-.899c0-.719.565-1.303 1.26-1.303.695 0 1.26.584 1.26 1.303 0 .496.39.899.87.899s.87-.403.87-.899c0-1.71-1.346-3.101-3-3.101z"/>
            <path fill="#000" d="M140.735 125.88a2.805 2.805 0 0 0-1.624-1.474 82.265 82.265 0 0 0-6.746-2.048 5.108 5.108 0 0 0-4.281-4.444 5.104 5.104 0 0 0-5.51-4.882 5.098 5.098 0 0 0-6.53-2.93A5.123 5.123 0 0 0 111.92 108a5.122 5.122 0 0 0-4.125 2.103 5.1 5.1 0 0 0-6.53 2.929 5.104 5.104 0 0 0-5.51 4.883 5.108 5.108 0 0 0-4.286 4.488c-.354.092-.708.185-1.061.281a.962.962 0 1 0 .508 1.856 79.894 79.894 0 0 1 21.083-2.835c9.032 0 17.94 1.52 26.474 4.516a.896.896 0 0 1 .544 1.163.901.901 0 0 1-.838.581.9.9 0 0 1-.294-.05 78.103 78.103 0 0 0-51.77-.001.89.89 0 0 1-1.133-.53.901.901 0 0 1 .544-1.162 80.364 80.364 0 0 1 2.302-.77.962.962 0 1 0-.582-1.834c-.785.25-1.579.515-2.359.789A2.828 2.828 0 0 0 83 127.07c0 .341.061.676.182.995a2.8 2.8 0 0 0 3.57 1.664 76.257 76.257 0 0 1 8.735-2.495l-1.982 26.065a.962.962 0 0 0 1.918.146l1.18-15.523h7.97v.102a2.662 2.662 0 0 0 2.658 2.66h9.536a2.662 2.662 0 0 0 2.658-2.66v-6.575h7.478l.346 4.55h-5.93a.962.962 0 1 0 0 1.923h6.076l1.837 24.154H94.767l.432-5.676a.962.962 0 0 0-1.919-.146l-.51 6.711a.962.962 0 0 0 .96 1.035h36.54a.962.962 0 0 0 .958-1.035l-2.716-35.73a76.243 76.243 0 0 1 8.738 2.495c.303.105.616.159.93.159a2.835 2.835 0 0 0 2.636-1.824c.27-.715.242-1.491-.08-2.185zm-47.191-3.985a3.18 3.18 0 0 1 3.177-2.111.962.962 0 0 0 1.002-1.125 3.178 3.178 0 0 1 3.972-3.606.961.961 0 0 0 1.202-.753 3.172 3.172 0 0 1 4.772-2.13.963.963 0 0 0 1.373-.414 3.189 3.189 0 0 1 2.877-1.833c1.228 0 2.357.72 2.878 1.833a.961.961 0 0 0 1.373.414 3.171 3.171 0 0 1 4.772 2.13.962.962 0 0 0 1.201.753 3.178 3.178 0 0 1 3.972 3.606.961.961 0 0 0 1.003 1.125 3.18 3.18 0 0 1 3.161 2.067 81.599 81.599 0 0 0-18.28-2.07 81.8 81.8 0 0 0-18.455 2.114zM96.75 136l.346-4.55h7.477v4.55H96.75zm20.752 2.025c0 .406-.33.736-.735.736h-9.535a.736.736 0 0 1-.735-.736v-8.6c0-.406.33-.736.735-.736h9.535c.405 0 .735.33.735.736v8.6zm1.924-8.499v-.102a2.662 2.662 0 0 0-2.659-2.659h-9.535a2.662 2.662 0 0 0-2.659 2.66v.101h-7.33l.204-2.699A76.155 76.155 0 0 1 112 125.42c4.878 0 9.77.474 14.553 1.406l.205 2.7h-7.331z"/>
            <path fill="#000" d="M114.06 130h-6.12c-.52 0-.94.401-.94.896v2.664c0 .494.42.896.94.896.519 0 .94-.402.94-.896v-1.769h4.24v3.418h-5.18c-.52 0-.94.4-.94.895s.42.896.94.896h6.12c.52 0 .94-.401.94-.896v-5.208c0-.495-.42-.896-.94-.896z"/>
        </g>
    </g>
</svg>
