<?xml version="1.0" encoding="UTF-8" standalone="no"?>
<svg width="132px" height="132px" viewBox="0 0 132 132" version="1.1" xmlns="http://www.w3.org/2000/svg" xmlns:xlink="http://www.w3.org/1999/xlink">
    <!-- Generator: Sketch 50 (54983) - http://www.bohemiancoding.com/sketch -->
    <title>017-confetti</title>
    <desc>Created with Sketch.</desc>
    <defs></defs>
    <g id="Page-1" stroke="none" stroke-width="1" fill="none" fill-rule="evenodd">
        <g id="Promo-Redeem" transform="translate(-116.000000, -172.000000)" fill-rule="nonzero">
            <g id="017-confetti" transform="translate(116.000000, 172.000000)">
                <path d="M127.764819,130 C127.171816,130 126.603406,129.764151 126.184224,129.344989 L96.6559496,99.8203151 C95.7818161,98.9467809 95.7812572,97.5300124 96.6548318,96.6559193 C97.5284064,95.7818262 98.9452404,95.7812673 99.8193739,96.6548015 L129.345413,126.183947 C130.218429,127.057201 130.218149,128.472573 129.344854,129.345548 C128.925952,129.764431 128.357541,129.999721 127.764819,130 Z" id="Shape" fill="#E6E6E6"></path>
                <polygon id="Shape" fill="#FBB03B" points="33 78.4545455 84.75 32 105 105"></polygon>
                <circle id="Oval" fill="#ED1C24" cx="128" cy="128" r="4"></circle>
                <g id="Group" transform="translate(47.000000, 32.000000)" fill="#93CAE2">
                    <polygon id="Shape" points="0.0356275862 35.107751 0.0356275862 52.5518672 13.6080414 57.6307054 13.6080414 22.7402158"></polygon>
                    <polygon id="Shape" points="38.4908 0.0705394191 27.1804552 10.3749378 27.1804552 62.7095436 40.752869 67.7883817 40.752869 8.34791701"></polygon>
                </g>
                <circle id="Oval" fill="#F8CF26" cx="10" cy="24" r="7"></circle>
                <circle id="Oval" fill="#29ABE2" cx="61" cy="24" r="7"></circle>
                <g id="Group" fill="#E6E6E6">
                    <path d="M82.526918,24.3103774 C81.4821148,24.3101019 80.5774918,23.5930491 80.350918,22.5848226 L75.8919016,2.75086038 C75.6246393,1.56164906 76.3832295,0.383732075 77.5863279,0.119554717 C78.7894262,-0.144622642 79.9810984,0.605211321 80.2483607,1.79442264 L84.707377,21.6283849 C84.974082,22.8164943 84.2160492,23.9935849 83.0137869,24.2572113 C83.0135082,24.2572113 83.0132295,24.2572113 83.0129508,24.2574868 C82.853541,24.2924717 82.6905082,24.3101019 82.526918,24.3103774 Z" id="Shape"></path>
                    <path d="M24.5597049,72.7933962 C24.3428852,72.7939472 24.127459,72.7625434 23.9198361,72.7008377 L1.6247541,66.089517 C0.445065574,65.7402189 -0.224622951,64.5118906 0.128754098,63.3458189 C0.482131148,62.1797472 1.72480328,61.5177887 2.9044918,61.8670868 L25.1995738,68.4784075 C26.3792623,68.8274302 27.0492295,70.055483 26.6961311,71.2215547 C26.413541,72.1545774 25.5451475,72.7936717 24.5597049,72.7933962 Z" id="Shape"></path>
                    <path d="M44.6252787,35.3292453 C43.9048689,35.3292453 43.2290492,34.9854566 42.810459,34.4058642 L20.515377,3.55303396 C19.7615246,2.59053585 19.9398852,1.20656604 20.9133443,0.461415094 C21.8868033,-0.283735849 23.2872131,-0.107433962 24.0410656,0.854788679 C24.0759016,0.899415094 24.1090656,0.945143396 24.1405574,0.992249057 L46.4356393,31.8450792 C47.1510328,32.8356755 46.9186066,34.2119321 45.9164426,34.9190679 C45.5396557,35.1848981 45.088459,35.3284189 44.6252787,35.3292453 Z" id="Shape"></path>
                    <path d="M40.1662623,59.5707547 C39.6835738,59.5715811 39.2139836,59.4170415 38.8285574,59.13 L20.9924918,45.9073585 C20.0073279,45.177083 19.8077869,43.7958679 20.5465902,42.8220755 C21.2853934,41.848283 22.6827377,41.6510453 23.6679016,42.3813208 L41.5039672,55.6039623 C42.4891311,56.3342377 42.6886721,57.7154528 41.9498689,58.6892453 C41.5287705,59.2440453 40.868,59.5707547 40.1662623,59.5707547 Z" id="Shape"></path>
                </g>
                <polygon id="Shape" fill="#FBCC34" points="9 81.9026066 12.2283331 77 16 79.0973934 12.7716669 84"></polygon>
                <polygon id="Shape" fill="#06AAE9" points="6 43.3923937 10.5833837 42 13 48.6076063 8.41661631 50"></polygon>
                <polygon id="Shape" fill="#CDA349" points="23 25.899751 25.899751 23 30 27.100249 27.100249 30"></polygon>
                <g id="Group" transform="translate(34.000000, 1.000000)" fill="#ED1C24">
                    <polygon id="Shape" points="21.2988571 37.82744 25.8702857 35.58744 27.9145714 39.59452 23.3431429 41.83452"></polygon>
                    <polygon id="Shape" points="0.135714286 3.33508 3.36828571 0.16716 7.93914286 4.6466 4.70657143 7.81452"></polygon>
                </g>
                <polygon id="Shape" fill="#29ABE2" points="7 0 14 0 14 6 7 6"></polygon>
                <polygon id="Shape" fill="#FBCC34" points="61 7.10981256 66.1098126 2 69 4.89018744 63.8901874 10"></polygon>
                <g id="Group" transform="translate(0.000000, 9.000000)" fill="#ED1C24">
                    <polygon id="Shape" points="106.271025 4.66520597 110.763074 0.176214925 113.939911 3.35088955 109.447862 7.8398806"></polygon>
                    <polygon id="Shape" points="0.0353793103 87.0552239 4.52799015 87.0552239 4.52799015 93.7895522 0.0353793103 93.7895522"></polygon>
                </g>
                <polygon id="Shape" fill="#CDA349" points="88 3.8998572 90.899751 1 95 5.10039911 92.100249 8"></polygon>
                <polygon id="Shape" fill="#06AAE9" points="102 34.899751 104.899751 32 109 36.100249 106.100249 39"></polygon>
                <polygon id="Shape" fill="#FBCC34" points="23 103.100249 27.100249 99 30 101.899751 25.899751 106"></polygon>
                <polygon id="Shape" fill="#F8CF26" points="125 14 131 14 131 21 125 21"></polygon>
                <g id="Group" transform="translate(18.000000, 18.000000)" fill="#FF1D25">
                    <path d="M3.38874747,44.7903727 C1.53675758,44.7903727 0.0352121212,43.2886025 0.0352121212,41.4363354 C0.0352121212,39.5840683 1.53675758,38.0822981 3.38874747,38.0822981 C5.24073737,38.0822981 6.74228283,39.5840683 6.74228283,41.4363354 C6.74228283,43.2886025 5.24101684,44.7903727 3.38874747,44.7903727 Z M3.38874747,40.318323 C2.77141751,40.318323 2.27090236,40.818913 2.27090236,41.4363354 C2.27090236,42.0537578 2.77141751,42.5543478 3.38874747,42.5543478 C4.00607744,42.5543478 4.50659259,42.0537578 4.50659259,41.4363354 C4.50659259,40.818913 4.00607744,40.318323 3.38874747,40.318323 Z" id="Shape"></path>
                    <path d="M79.4022155,6.77795031 C77.5502256,6.77795031 76.0486801,5.27618012 76.0486801,3.42391304 C76.0486801,1.57164596 77.5502256,0.0698757764 79.4022155,0.0698757764 C81.2542054,0.0698757764 82.7557508,1.57164596 82.7557508,3.42391304 C82.7557508,5.27618012 81.2544848,6.77795031 79.4022155,6.77795031 Z M79.4022155,2.30590062 C78.7848855,2.30590062 78.2843704,2.80649068 78.2843704,3.42391304 C78.2843704,4.0413354 78.7848855,4.54192547 79.4022155,4.54192547 C80.0195455,4.54192547 80.5200606,4.0413354 80.5200606,3.42391304 C80.5200606,2.80649068 80.0195455,2.30590062 79.4022155,2.30590062 Z" id="Shape"></path>
                </g>
                <g id="Group" transform="translate(47.000000, 6.000000)" fill="#FBCC34">
                    <path d="M50.2889848,20.7954545 C47.821802,20.7954545 45.8219797,18.8419091 45.8219797,16.4318182 C45.8219797,14.0217273 47.821802,12.0681818 50.2889848,12.0681818 C52.7561675,12.0681818 54.7559898,14.0217273 54.7559898,16.4318182 C54.7559898,18.8419091 52.7561675,20.7954545 50.2889848,20.7954545 Z M48.0554822,16.4318182 C48.0554822,17.6367273 49.055533,18.6136364 50.2889848,18.6136364 C51.5224365,18.6136364 52.5224873,17.6367273 52.5224873,16.4318182 C52.5224873,17.6367273 51.5224365,18.6136364 50.2889848,18.6136364 C49.055533,18.6136364 48.0554822,17.6367273 48.0554822,16.4318182 Z M50.2889848,15.3409091 L50.2889848,16.4318182 L50.2889848,15.3409091 Z" id="Shape"></path>
                    <path d="M3.38543147,6.61363636 C1.53525381,6.61363636 0.035177665,5.14827273 0.035177665,3.34090909 C0.035177665,1.53354545 1.53525381,0.0681818182 3.38543147,0.0681818182 C5.23560914,0.0681818182 6.73568528,1.53354545 6.73568528,3.34090909 C6.73568528,5.14827273 5.23588832,6.61363636 3.38543147,6.61363636 Z M3.38543147,2.25 C2.76870558,2.25 2.2686802,2.73845455 2.2686802,3.34090909 C2.2686802,3.94336364 2.76870558,4.43181818 3.38543147,4.43181818 C4.00215736,4.43181818 4.50218274,3.94336364 4.50218274,3.34090909 C4.50218274,2.73845455 4.00215736,2.25 3.38543147,2.25 Z" id="Shape"></path>
                </g>
                <path d="M25.5,94 C23.567125,94 22,92.432875 22,90.5 C22,88.567125 23.567125,87 25.5,87 C27.432875,87 29,88.567125 29,90.5 C29,92.432875 27.4331667,94 25.5,94 Z M25.5,89.3333333 C24.8557083,89.3333333 24.3333333,89.8557083 24.3333333,90.5 C24.3333333,91.1442917 24.8557083,91.6666667 25.5,91.6666667 C26.1442917,91.6666667 26.6666667,91.1442917 26.6666667,90.5 C26.6666667,89.8557083 26.1442917,89.3333333 25.5,89.3333333 Z" id="Shape" fill="#0378A3"></path>
                <path d="M48.5,52 C46.567125,52 45,50.432875 45,48.5 C45,46.567125 46.567125,45 48.5,45 C50.432875,45 52,46.567125 52,48.5 C52,50.432875 50.4331667,52 48.5,52 Z M48.5,47.3333333 C47.8557083,47.3333333 47.3333333,47.8557083 47.3333333,48.5 C47.3333333,49.1442917 47.8557083,49.6666667 48.5,49.6666667 C49.1442917,49.6666667 49.6666667,49.1442917 49.6666667,48.5 C49.6666667,47.8557083 49.1442917,47.3333333 48.5,47.3333333 Z" id="Shape" fill="#0071BC"></path>
            </g>
        </g>
    </g>
</svg>