<?xml version="1.0" encoding="UTF-8" standalone="no"?>
<svg width="203px" height="236px" viewBox="0 0 203 236" version="1.1" xmlns="http://www.w3.org/2000/svg" xmlns:xlink="http://www.w3.org/1999/xlink">
    <!-- Generator: Sketch 50 (54983) - http://www.bohemiancoding.com/sketch -->
    <title>Group 2</title>
    <desc>Created with Sketch.</desc>
    <defs></defs>
    <g id="Page-1" stroke="none" stroke-width="1" fill="none" fill-rule="evenodd">
        <g id="Initial-Slider-1" transform="translate(-80.000000, -111.000000)" fill-rule="nonzero">
            <g id="Group-2" transform="translate(80.000000, 111.000000)">
                <g id="005-flags">
                    <path d="M160,0 C159.080345,0.768588235 158.161034,1.53164706 157.241379,2.28917647 C112.913793,38.6246691 58.2948276,60.0476838 1.1337931,63.5191176 L0,63.5882353 L30.3448276,94 L44.137931,58.0588235 L77.2413793,82.9411765 L88.2758621,44.2352941 L124.137931,69.1176471 L126.896552,24.8823529 L160,41.4705882 L160,0 Z" id="Shape" fill="#93CAE2"></path>
                    <g id="Group" transform="translate(0.000000, 86.000000)" fill="#FBCC34">
                        <path d="M0.146769231,2.75802629 C1.13538462,3.37030812 2.12676923,3.97983193 3.12369231,4.57832364 C50.3248846,33.2724844 105.610154,45.9138979 160.651385,40.598147 L161.734154,40.4905839 L138.655385,74.4667098 L119.270769,41.3703943 L91.5784615,71.7086835 L77.7323077,35.8543417 L44.5015385,63.4346046 L36.1938462,22.0642103 L5.73230769,44.1284206 L0.149538462,2.75802629" id="Shape"></path>
                        <ellipse id="Oval" cx="141.424615" cy="5.51605257" rx="5.53846154" ry="5.51605257"></ellipse>
                    </g>
                    <circle id="Oval" fill="#06AAE9" cx="13.5" cy="149.5" r="5.5"></circle>
                    <circle id="Oval" fill="#ED1C24" cx="35.5" cy="18.5" r="5.5"></circle>
                    <polygon id="Shape" fill="#FBCC34" points="1 27.1425015 5.14250146 23 11 28.8574985 6.85749854 33"></polygon>
                    <polygon id="Shape" fill="#FF1D25" points="111 8 116 8 116 16 111 16"></polygon>
                    <polygon id="Shape" fill="#06AAE9" points="73 6.85749854 78.8574985 1 83 5.14250146 77.1425015 11"></polygon>
                    <g id="Group" transform="translate(47.000000, 37.000000)" fill="#7AC943">
                        <polygon id="Shape" points="0.314468417 5.68719814 5.85506944 0.118352758 9.77345673 4.05671484 4.23285571 9.62556022"></polygon>
                        <polygon id="Shape" points="97.2878005 15.1975385 101.206188 11.2591764 106.746789 16.8280218 102.828402 20.7663838"></polygon>
                    </g>
                    <polygon id="Shape" fill="#FF1D25" points="98 75 103 75 103 83 98 83"></polygon>
                    <polygon id="Shape" fill="#7AC943" points="112 109.857499 117.857499 104 122 108.142501 116.142501 114"></polygon>
                    <polygon id="Shape" fill="#06AAE9" points="48 94.1425015 52.1425015 90 58 95.8574985 53.8574985 100"></polygon>
                    <polygon id="Shape" fill="#7AC943" points="66 147 71 147 71 155 66 155"></polygon>
                    <polygon id="Shape" fill="#06AAE9" points="23 132.142501 27.1425015 128 33 133.857499 28.8574985 138"></polygon>
                    <polygon id="Shape" fill="#FF1D25" points="26 158.857499 31.8574985 153 36 157.142501 30.1425015 163"></polygon>
                    <polygon id="Shape" fill="#06AAE9" points="112 155.857499 117.857499 150 122 154.142501 116.142501 160"></polygon>
                </g>
                <g id="006-hangout" transform="translate(12.000000, 81.000000)">
                    <polygon id="Shape" fill="#EBEAE6" points="139 152 11 152 75.0001854 41"></polygon>
                    <polygon id="Shape" fill="#C9C5B5" points="75.5057229 41 70 50.475243 128.989302 152 140 152"></polygon>
                    <polygon id="Shape" fill="#475D6D" points="75 152 47 152 75 99"></polygon>
                    <polygon id="Shape" fill="#C9C5B5" points="75 152 98 138.836111 75 99"></polygon>
                    <path d="M58.5187075,90.174191 C60.1546264,91.2752697 62.2928374,91.2752697 63.9287563,90.174191 L74.9990622,82.7257397 L86.0686178,90.174191 C86.8867648,90.7247303 87.8302035,91 88.7736422,91 C89.7170809,91 90.6601445,90.7247303 91.4782915,90.174567 L100,84.4416625 L95.1350074,75.9947947 L88.7736422,80.2742603 L77.7044617,72.825809 C76.0685428,71.7247303 73.9303318,71.7247303 72.2944129,72.825809 L61.224107,80.2738842 L54.8646175,75.9947947 L50,84.4416625 L58.5187075,90.174191 Z" id="Shape" fill="#75DC5E"></path>
                    <polygon id="Shape" fill="#2AAD52" points="88.6695441 80.3392259 85 77.8586332 91.9597153 90 100 84.5655762 95.0901106 76"></polygon>
                    <g id="Group" transform="translate(124.000000, 3.000000)">
                        <path d="M32.0004375,0.0440778155 C14.4544853,0.0440778155 0.230911825,14.2130583 0.230911825,31.6912085 C0.230911825,56.0351268 32.0004375,76.8794887 32.0004375,76.8794887 C32.0004375,76.8794887 63.7703349,56.0351268 63.7703349,31.6912085 C63.7703349,14.2126879 49.5463896,0.0440778155 32.0004375,0.0440778155 Z M32.0004375,46.145028 C23.9865701,46.145028 17.4901763,39.673738 17.4901763,31.6908381 C17.4901763,23.7079383 23.9865701,17.2366483 32.0004375,17.2366483 C40.0143049,17.2366483 46.5106986,23.7079383 46.5106986,31.6908381 C46.5106986,39.673738 40.0143049,46.145028 32.0004375,46.145028 Z" id="Shape" fill="#FF5A59"></path>
                        <path d="M32.0004375,0.0440778155 C44.3164785,0.0440778155 54.3003472,14.2130583 54.3003472,31.6912085 C54.3003472,56.0336452 32.0030403,76.8768959 32.0004375,76.8794887 C32.0045277,76.8768959 63.7703349,56.0336452 63.7703349,31.6912085 C63.7703349,14.2126879 49.5463896,0.0440778155 32.0004375,0.0440778155 Z" id="Shape" fill="#CE3A4C"></path>
                    </g>
                    <g id="Group" fill="#000000">
                        <path d="M187.426945,149.208266 L140.788285,149.208266 L115.988487,106.33445 L78.2801918,41.1432297 L91.2451581,18.7290431 C92.0145559,17.3989354 91.5579698,15.6980144 90.2253624,14.9300598 C88.8916404,14.1617344 87.1882657,14.6178349 86.4192394,15.9479426 L75.0629126,35.5810287 L63.7065858,15.9479426 C62.9375595,14.6178349 61.2326987,14.1621053 59.9004628,14.9300598 C58.5678554,15.6980144 58.1112692,17.3989354 58.880667,18.7290431 L71.8456334,41.1432297 L52.709881,74.2264593 C52.7095095,74.227201 52.7087665,74.2279426 52.708395,74.2286842 L48.6789943,81.1947847 L45.603632,86.511878 L27.7440175,117.387656 C26.9746197,118.717763 27.4312058,120.418684 28.7638133,121.186639 C30.0967922,121.954593 31.8005384,121.498493 32.5699363,120.168756 L46.5825617,95.9435167 C46.5825617,95.9431459 46.5829332,95.9427751 46.5829332,95.9427751 L50.2140748,89.6649043 L51.2256974,87.9161483 L57.1869516,91.9098086 C58.4727487,92.7715789 59.9457871,93.2020933 61.4191969,93.2020933 C62.8926068,93.2020933 64.3660166,92.7712081 65.6510707,91.9101794 L72.2765854,87.4719139 L72.2765854,98.397189 L44.917081,149.208636 L15.7720982,149.208636 L26.9801923,129.831782 C27.7495902,128.501675 27.293004,126.800754 25.9603966,126.032799 C24.6266746,125.264474 22.9229284,125.720574 22.1542736,127.050682 L9.33753982,149.208636 L2.78632723,149.208636 C1.24716007,149.208636 0,150.453828 0,151.989737 C0,153.525646 1.24716007,154.770837 2.78632723,154.770837 C12.9735111,154.770837 177.755789,154.770837 187.426945,154.770837 C188.966112,154.770837 190.213272,153.525646 190.213272,151.989737 C190.213272,150.453828 188.966112,149.208266 187.426945,149.208266 Z M77.8492398,122.573481 L77.8492398,109.293911 L94.6890586,137.815766 L77.8492398,147.2411 L77.8492398,122.573481 Z M77.8492398,51.5230383 L91.2889963,74.7578349 L88.7043992,76.4891627 L79.2944149,70.1853349 C78.8341136,69.8768182 78.3492927,69.6261483 77.8492398,69.428134 L77.8492398,51.5230383 Z M72.2765854,51.5234091 L72.2765854,69.4273923 C71.7765325,69.6254067 71.2909685,69.8764474 70.8302958,70.1849641 L61.4191969,76.4891627 L58.8364573,74.7589474 L72.2765854,51.5234091 Z M77.8492398,75.9158852 L87.1511146,82.1474043 C88.0899212,82.7763038 89.3173912,82.7763038 90.2561977,82.1474043 L94.0812677,79.5854545 L95.8882938,82.7088158 L96.1067419,83.0866746 L89.8297039,87.2913278 C89.1620999,87.7392703 88.2459555,87.7388995 87.5776085,87.2909569 L77.8488683,80.7735407 L77.8488683,75.9158852 L77.8492398,75.9158852 Z M62.5452446,87.2916986 C61.8616657,87.7496531 60.9778427,87.7496531 60.2935207,87.2916986 C60.2935207,87.2916986 60.2931492,87.2916986 60.2931492,87.2913278 L54.0183403,83.0877871 L56.0438144,79.586567 L59.8666554,82.1474043 C60.8062049,82.7763038 62.0333034,82.7763038 62.97211,82.1474043 L72.2765854,75.9144019 L72.2765854,80.7724282 L62.5452446,87.2916986 Z M72.2765854,110.146411 L72.2765854,122.573481 L72.2765854,149.208266 L51.2435299,149.208266 L72.2765854,110.146411 Z M85.7282302,149.208266 L99.897633,141.277679 C100.551491,140.912057 101.029996,140.298732 101.225039,139.576758 C101.420082,138.854785 101.315688,138.084605 100.935633,137.440132 L77.8492398,98.3382297 L77.8492398,87.4726555 L84.4717824,91.9094378 C85.7274872,92.7511842 87.1904947,93.1957895 88.7040277,93.1957895 C90.2164461,93.1957895 91.6794537,92.7511842 92.93553,91.9101794 L98.8997563,87.9150359 L134.353727,149.208266 L85.7282302,149.208266 Z" id="Shape"></path>
                        <path d="M154.152625,82.2538278 C154.617385,82.559378 155.151245,82.7121531 155.685105,82.7121531 C156.218966,82.7121531 156.752826,82.559378 157.217585,82.2538278 C158.565053,81.3679545 190.213272,60.2679306 190.213272,34.6925598 C190.213272,15.6894856 174.723893,0.229533493 155.685105,0.229533493 C148.927333,0.229533493 142.381322,2.17852871 136.75517,5.86626794 C135.469001,6.70912679 135.110865,8.43340909 135.955679,9.71753589 C136.800122,11.0016627 138.527274,11.3591268 139.814557,10.5155263 C144.529023,7.42516746 150.017344,5.79173445 155.685477,5.79173445 C171.651875,5.79173445 184.640989,18.7564833 184.640989,34.6925598 C184.640989,54.2978349 161.871495,72.0698086 155.685477,76.5351435 C149.499087,72.0694378 126.730336,54.2974641 126.730336,34.6925598 C126.730336,28.5007177 128.662932,22.5973684 132.318965,17.6206818 C133.229165,16.3821651 132.960935,14.641567 131.719719,13.733445 C130.479989,12.8256938 128.735377,13.0926794 127.825548,14.331567 C123.463646,20.2690311 121.158053,27.3096651 121.158053,34.6925598 C121.156938,60.2679306 152.805157,81.3679545 154.152625,82.2538278 Z" id="Shape"></path>
                        <path d="M155.685105,51.9439115 C165.215459,51.9439115 172.968879,44.2050359 172.968879,34.6925598 C172.968879,25.1800837 165.215459,17.4412081 155.685105,17.4412081 C146.155123,17.4412081 138.401703,25.1800837 138.401703,34.6925598 C138.401703,44.2050359 146.154752,51.9439115 155.685105,51.9439115 Z M155.685105,23.0034091 C162.142697,23.0034091 167.396224,28.2470813 167.396224,34.6925598 C167.396224,41.1380383 162.142326,46.3817105 155.685105,46.3817105 C149.227885,46.3817105 143.974358,41.1380383 143.974358,34.6925598 C143.974358,28.2470813 149.227513,23.0034091 155.685105,23.0034091 Z" id="Shape"></path>
                        <path d="M158.471804,93.8918062 C158.471804,92.3558971 157.224644,91.1107057 155.685477,91.1107057 C154.14631,91.1107057 152.89915,92.3558971 152.89915,93.8918062 L152.89915,95.2119019 C152.89915,96.747811 154.14631,97.9930024 155.685477,97.9930024 C157.224644,97.9930024 158.471804,96.747811 158.471804,95.2119019 L158.471804,93.8918062 Z" id="Shape"></path>
                        <path d="M158.471804,108.93756 C158.471804,107.401651 157.224644,106.156459 155.685477,106.156459 C154.14631,106.156459 152.89915,107.401651 152.89915,108.93756 L152.89915,110.257285 C152.89915,111.793194 154.14631,113.038385 155.685477,113.038385 C157.224644,113.038385 158.471804,111.793194 158.471804,110.257285 L158.471804,108.93756 Z" id="Shape"></path>
                        <path d="M158.471804,123.983313 C158.471804,122.447404 157.224644,121.202213 155.685477,121.202213 C154.14631,121.202213 152.89915,122.447404 152.89915,123.983313 L152.89915,125.303409 C152.89915,126.839318 154.14631,128.08451 155.685477,128.08451 C157.224644,128.08451 158.471804,126.839318 158.471804,125.303409 L158.471804,123.983313 Z" id="Shape"></path>
                        <path d="M155.685477,136.247967 C154.14631,136.247967 152.89915,137.493158 152.89915,139.029067 L152.89915,140.348792 C152.89915,141.884701 154.14631,143.129892 155.685477,143.129892 C157.224644,143.129892 158.471804,141.884701 158.471804,140.348792 L158.471804,139.029067 C158.471804,137.493158 157.224272,136.247967 155.685477,136.247967 Z" id="Shape"></path>
                    </g>
                </g>
            </g>
        </g>
    </g>
</svg>