<?xml version="1.0" encoding="UTF-8" standalone="no"?>
<svg width="97px" height="61px" viewBox="0 0 97 61" version="1.1" xmlns="http://www.w3.org/2000/svg" xmlns:xlink="http://www.w3.org/1999/xlink">
    <!-- Generator: Sketch 50 (54983) - http://www.bohemiancoding.com/sketch -->
    <title>dog-eating</title>
    <desc>Created with Sketch.</desc>
    <defs></defs>
    <g id="Page-1" stroke="none" stroke-width="1" fill="none" fill-rule="evenodd">
        <g id="404" transform="translate(-140.000000, -255.000000)" fill="#909090" fill-rule="nonzero">
            <g id="Notification" transform="translate(54.000000, 161.000000)">
                <g id="dog-eating" transform="translate(86.000000, 94.000000)">
                    <path d="M96.9792668,56.5568467 C96.9774833,56.5470494 95.3210569,49.2007291 95.3210569,49.2007291 C95.3050054,49.1287309 95.349147,49.2663477 95.3210569,49.2007291 C94.3169459,46.0952381 85.5530458,46 84.4998885,46 C83.4467313,46 74.6828311,46.0954659 73.6789431,49.2009569 C73.650853,49.2663477 73.6949946,49.1289588 73.6789431,49.2009569 C73.6789431,49.2009569 72.0225167,56.5470494 72.0207332,56.5570745 C72.0080258,56.6263386 72,56.6962862 72,56.7666895 C72,58.1982228 73.400494,59.3046252 76.1629139,60.0553657 C78.4041056,60.6643882 81.364717,61 84.4998885,61 C87.6350601,61 90.5958944,60.6646161 92.8370861,60.0553657 C95.599506,59.304853 97,58.1982228 97,56.7666895 C97,56.6960583 96.9919742,56.6261107 96.9792668,56.5568467 Z M92.9639376,49.7313739 C92.0378548,50.345409 88.9889601,51.1845523 84.4998885,51.1845523 C80.010594,51.1845523 76.9621452,50.345409 76.0358394,49.731146 C76.9621452,49.117111 80.0110399,48.2781955 84.4998885,48.2781955 C88.9889601,48.2784233 92.0380777,49.1173388 92.9639376,49.7313739 Z M83.3792716,32.4314021 C77.2880292,32.4316326 72.1669372,28.9358252 69.9253417,23.4942141 L65.2369309,26.2313864 L64.3855556,31.5653455 C64.3807404,31.5950823 64.3915173,31.5360697 64.3855556,31.5653455 C64.3782182,31.6358841 64.4004599,31.4943459 64.3855556,31.5653455 C64.0661466,33.0823853 63.5348683,35.6570424 61.5727843,37.0456836 L61.5727843,56.9251063 C61.5727843,58.0710119 60.6489516,58.9997695 59.5091223,58.9997695 L57.5981713,58.9997695 C56.5821616,58.9997695 55.717258,58.2563485 55.5595025,57.2473706 L52.5048241,37.7178745 C46.7414747,36.7248023 39.5349376,35.1676524 33.7738811,33.859462 C33.0405932,35.0470914 32.0766337,36.1969158 30.8219272,37.2566077 C30.793036,37.2810426 30.8521943,37.2337864 30.8219272,37.2566077 L15.6430052,48.7122063 L17.0628046,56.5537416 C17.172408,57.1590822 17.0091494,57.7821727 16.6170536,58.2545044 C16.2249579,58.726836 15.6446102,59 15.0326198,59 L12.7100828,59 C11.7147099,59 10.8610417,58.2856243 10.6805859,57.3015424 L8.40046866,44.8715437 C8.29705626,44.3081573 8.43004782,43.7267906 8.7680298,43.2652933 L13.8700902,36.2981133 C10.70856,29.9042318 11.0286569,24.8588815 11.9020445,21.6848773 C12.6286828,19.0449837 13.8214795,17.263309 14.5283984,16.3746616 C8.48301514,14.8129013 3.22709727,10.7479445 0.236163113,5.01080924 C-0.292822252,3.99606842 0.0967512785,2.74228029 1.1061113,2.21024444 C2.11570062,1.67820859 3.36284037,2.07008942 3.89182574,3.08483024 C7.22647427,9.48078634 14.0076677,13.3350495 21.1743073,12.9014449 C21.1908166,12.9002923 54.8771182,11.0363227 55.1680946,11.0162676 L86.4435804,0.11483462 C87.2896818,-0.180459107 88.2272723,0.106997004 88.7665759,0.824830468 C89.3058796,1.54266393 89.3233061,2.52812895 88.8101421,3.26509542 L86.366537,6.77265932 L89.0497562,6.92088248 C89.8690301,6.96606403 90.583745,7.49487263 90.8701354,8.26803045 C91.1565259,9.04118826 90.9602487,9.91139421 90.3700413,10.4844623 L86.8677776,13.8864489 C87.9009844,16.297438 87.52471,19.1282007 85.8632328,21.1832699 L88.3781489,29.4139198 C88.5473692,29.9683159 88.4781219,30.5688156 88.1873748,31.069501 C87.8961692,31.5701864 87.4100621,31.9256453 86.8464531,32.0496641 C85.6949297,32.302773 84.528502,32.4314021 83.3792716,32.4314021 Z" id="Combined-Shape"></path>
                </g>
            </g>
        </g>
    </g>
</svg>