<?xml version="1.0" encoding="UTF-8" standalone="no"?>
<svg width="129px" height="136px" viewBox="0 0 129 136" version="1.1" xmlns="http://www.w3.org/2000/svg" xmlns:xlink="http://www.w3.org/1999/xlink">
    <!-- Generator: Sketch 50 (54983) - http://www.bohemiancoding.com/sketch -->
    <title>Group 2</title>
    <desc>Created with Sketch.</desc>
    <defs></defs>
    <g id="Page-1" stroke="none" stroke-width="1" fill="none" fill-rule="evenodd">
        <g id="Promo-Catchup" transform="translate(-111.000000, -238.000000)" fill-rule="nonzero">
            <g id="Notification" transform="translate(50.000000, 238.000000)">
                <g id="Group-2" transform="translate(61.000000, 0.000000)">
                    <g id="027-balloons">
                        <path d="M35,20.83375 C35,31.7875 26.8425,43 17.5,43 C8.1575,43 0,31.7875 0,20.83375 C0,9.88 5.83375,1 16.91625,1 C27.99875,1 35,9.875 35,20.83375 Z" id="Shape" fill="#18CBBB"></path>
                        <path d="M73,34.3605521 C73,45.0582822 65.3084615,56 56.5,56 C47.6915385,56 40,45.0582822 40,34.3605521 C40,23.6628221 45.4995769,15 55.9504231,15 C66.4012692,15 73,23.6678528 73,34.3605521 Z" id="Shape" fill="#FFCA76"></path>
                        <g id="Group" transform="translate(15.000000, 47.000000)" fill="#4A4A4A">
                            <path d="M1.40707307,27.8602007 C1.30845688,27.8597276 1.21015932,27.8486882 1.11393285,27.8273978 C0.4299921,27.6681147 0.00525740619,26.9909247 0.16441343,26.3134194 L1.53452535,20.5224516 C2.2018973,17.7028244 2.12909019,14.7611326 1.32295458,11.9773047 C0.520961159,9.19205735 0.352086899,6.26566308 0.828439763,3.40818638 L1.44275971,1.04764158 C1.63361949,0.376917563 2.33747465,-0.013562724 3.01504279,0.17521147 C3.67174062,0.358308244 4.06636471,1.02098925 3.91023568,1.67846595 L3.31885714,3.93303226 C2.92678209,6.38567742 3.0816366,8.89367742 3.77258723,11.2808746 C4.69868729,14.4794695 4.78248716,17.8594265 4.01602107,21.0990251 L2.64336011,26.8874695 C2.5082607,27.4558423 1.99701777,27.8581505 1.40707307,27.8602007 Z" id="Shape"></path>
                            <path d="M42.5741567,27.8602007 C41.9418341,27.8598853 41.4054194,27.4008029 41.3136537,26.781491 C41.2042041,26.0420072 41.0440922,25.3105663 40.8344332,24.5925305 C40.0324398,21.8072832 39.8635655,18.8808889 40.3399184,16.0234122 L40.9542383,13.6628674 C41.1153061,12.9845735 41.8014773,12.5639713 42.4866926,12.7235699 C43.1719078,12.8830108 43.5968018,13.5622509 43.4355747,14.2405448 C43.4312732,14.2583656 43.4266531,14.2761864 43.4217143,14.2938495 L42.8290612,16.5496774 C42.4369862,19.0023226 42.5918407,21.5103226 43.2827913,23.8975197 C43.5238354,24.725319 43.7083226,25.5684158 43.8346596,26.4208172 C43.9370994,27.1101505 43.4556485,27.7512258 42.7592811,27.8527885 C42.7591218,27.8527885 42.7591218,27.8527885 42.7589625,27.8527885 C42.6976261,27.860043 42.635971,27.8625663 42.5741567,27.8602007 Z" id="Shape"></path>
                        </g>
                        <g id="Group" transform="translate(0.000000, 44.000000)" fill="#F8CF26">
                            <polygon id="Shape" points="0.131848418 0.101669004 2.66739493 0.101669004 2.66739493 3.8043338 0.131848418 3.8043338"></polygon>
                            <polygon id="Shape" points="43.2361391 16.1465498 45.7716856 16.1465498 45.7716856 19.8492146 43.2361391 19.8492146"></polygon>
                        </g>
                        <polygon id="Shape" fill="#93CAE2" points="70 3 73 3 73 6 70 6"></polygon>
                        <polygon id="Shape" fill="#ED1C24" points="38 2.34299941 40.3429387 0 42 1.65700059 39.6569148 4"></polygon>
                        <polygon id="Shape" fill="#93CAE2" points="29 49.6568541 30.6570006 48 33 50.3429994 31.3429994 52"></polygon>
                        <polygon id="Shape" fill="#ED1C24" points="68 60.3429994 70.3429994 58 72 59.6570006 69.6570006 62"></polygon>
                        <g id="Group" transform="translate(3.000000, 6.000000)" fill="#7AC943">
                            <polygon id="Shape" points="47.5638797 1.74596073 49.3330454 0.0004628331 51.8346463 2.46859748 50.0654806 4.21409537"></polygon>
                            <polygon id="Shape" points="0.0322121378 57.286087 1.8013778 55.5405891 4.30297868 58.0087237 2.53381301 59.7542216"></polygon>
                        </g>
                        <g id="Group" transform="translate(8.000000, 13.000000)" fill="#F2F2F2">
                            <polygon id="Shape" points="10.1290246 0.110383226 12.4900472 7.59708258 20.1280616 7.59708258 13.9486567 12.2247471 16.3084295 19.7114465 10.1290246 15.0837819 3.94961964 19.7114465 6.30939239 12.2247471 0.129987482 7.59708258 7.76800193 7.59708258"></polygon>
                            <path d="M48.8752932,32.5777277 L56.945766,25.3620684 C59.0360335,23.344569 59.4853652,20.1650013 58.035661,17.6480452 C56.8910838,15.3724645 54.1172884,14.4550503 51.8401639,15.5988516 C51.6575253,15.6904994 51.4812922,15.7943252 51.3125585,15.9093923 L48.8752932,17.5893406 L46.4380279,15.9081432 C44.3326057,14.4731613 41.4616322,15.0153974 40.0256767,17.1195484 C39.9105315,17.2883239 39.8067915,17.4644374 39.7149254,17.6467961 C38.2653775,20.16344 38.7140843,23.3428516 40.8035705,25.3608194 L48.8752932,32.5777277 Z" id="Shape"></path>
                        </g>
                        <path d="M57.0001108,55 L54.2449806,56.2202162 C53.1324772,56.7134892 52.6818409,57.9120951 53.2387222,58.8976651 C53.2802758,58.9714191 53.327181,59.0426634 53.3786508,59.1112587 C54.0087232,59.9483449 55.2436838,60.2390386 56.2597011,59.7894045 L57.0001108,59.4614853 L57.7405206,59.7894045 C58.7565378,60.2390386 59.9914985,59.9483449 60.6215708,59.1112587 C61.3116125,58.1942841 61.0315979,56.9553854 59.9963779,56.3441619 C59.918937,56.2984317 59.8385056,56.2570235 59.755241,56.2202162 L57.0001108,55 Z" id="Shape" fill="#FFCA76"></path>
                        <path d="M18.0002633,44 L15.2464973,45.22015 C14.1340363,45.712002 13.6821581,46.9095669 14.2374442,47.8949439 C14.2794684,47.9695304 14.3266866,48.0417467 14.3789414,48.1110354 C15.0094619,48.9482155 16.2448477,49.2388934 17.261141,48.7891443 L18.0002633,48.461243 L18.7406449,48.7891443 C19.7566233,49.2391722 20.9918517,48.9484944 21.6215852,48.1110354 C22.3116007,47.1941106 22.0315967,45.9552791 20.9964161,45.3440889 C20.9189783,45.2983611 20.8385499,45.2569552 20.7552885,45.22015 L18.0002633,44 Z" id="Shape" fill="#18CBBB"></path>
                    </g>
                    <g id="dog-bitting" transform="translate(18.000000, 23.000000)" fill="#06AAE9">
                        <path d="M108.037278,60.7652082 C107.966813,60.845118 108.057582,106.393723 108.061164,106.39253 C108.063553,110.040951 105.106407,112.997615 101.452969,113 L101.450581,113 C97.7995319,113 94.8101387,110.048107 94.8077501,106.402072 L94.8125274,64.7117998 C92.8896656,64.0689431 91.1710332,62.8249736 90.0113445,60.8093375 L84.8112575,51.7723703 C82.7414938,56.6957701 77.980918,60.6650227 68.6532469,65.1220831 C67.9784538,65.4453005 67.2666366,65.5967714 66.5631797,65.5967714 C66.0436488,65.5967714 65.5348667,65.503742 65.0475825,65.345115 C63.767267,66.715509 62.2170344,68.1407665 60.5843933,69.4586824 C56.3947044,72.835171 51.6138251,75.5544907 49.6658825,74.953378 C49.2275656,76.3249646 48.0822088,77.4246194 46.7887558,78.1187615 C45.5705452,78.7711597 44.2699263,79.0931844 42.8928706,79.1253869 C42.4223069,79.1337356 41.9505489,79.1480479 41.4799852,79.1575893 C41.1407972,79.1647454 40.1518969,82.2836143 40.1518969,82.2836143 L27,81.1803815 C27.213784,79.8720071 27.4299567,78.566018 27.6461293,77.2528729 C28.1190817,74.3785042 28.6780253,71.5136771 28.8117896,68.5999499 C28.8488137,67.8056223 28.7747656,66.9922118 28.6338354,66.2050403 C27.9865117,62.5924002 30.3703826,62.6317588 30.8994681,62.740293 C32.2168076,63.0062616 33.0850812,63.9556381 33.5556449,65.2222686 C33.8172019,65.9319156 34.064427,66.6451407 34.3092634,67.3583658 C34.3809229,67.5682782 34.4979666,67.6601148 34.7284712,67.6780051 C35.1154322,67.7090149 35.5023932,67.7817686 35.8857712,67.852137 C38.0809389,68.2624203 39.3266189,69.6542826 41.4393782,70.3567735 C42.1249202,70.5845762 48.1443136,69.864195 49.4222404,71.9478141 C50.6117872,69.7914413 53.4160602,66.9123019 56.5069709,64.4172068 C58.224409,63.0336933 60.0409759,61.7599067 61.7237785,60.7783277 C61.7166126,58.9642552 62.7174562,57.2193584 64.4647523,56.3844796 C77.933145,49.9475636 77.5951513,47.9748642 75.3952064,35.128464 C75.3617653,34.9328638 75.3641539,34.7420343 75.3545993,34.5500122 C74.5221555,30.7477354 76.4509889,26.7772901 79.0152027,24.3346731 C79.0152027,24.3346731 79.959913,23.3387819 81.1864839,22.6684934 C82.3616988,22.0304074 83.8116082,21.5569119 83.8116082,21.5569119 L83.8450493,21.5437923 C88.0012971,20.3439522 93.572819,20.903321 96.1477817,25.5297425 L109.882509,49.402507 C112.095591,53.2501058 110.781835,57.6356052 108.037278,60.7652082 Z M72.5,25 C65.5964406,25 60,19.4035594 60,12.5 C60,5.59644063 65.5964406,0 72.5,0 C79.4035594,0 85,5.59644063 85,12.5 C85,19.4035594 79.4035594,25 72.5,25 Z M53.4986307,90.2350073 C54.9356519,90.2909468 56.0537303,91.5049528 55.9980042,92.9498579 C55.9422782,94.3554864 54.7886299,95.4599939 53.3978495,95.4599939 C53.3634653,95.4599939 53.3290812,95.4599939 53.294697,95.4599939 C48.2627514,95.2624203 43.9813292,93.8722645 41.3954024,92.8129847 C36.0836408,97.0489135 30.0177988,99.9363434 25.2478843,101.768064 L33.1242308,108.382016 C34.2268956,109.307994 34.3727319,110.955233 33.4502876,112.063311 C32.9357107,112.679836 32.1958582,113 31.4524487,113 C30.8631751,113 30.2715302,112.800046 29.7830379,112.389426 L21.201223,105.182754 L22.6773711,109.543654 C23.1409645,110.911196 22.4105973,112.395377 21.0506441,112.859556 C20.7720137,112.954772 20.4898264,113 20.2123817,113 C19.1275018,113 18.1161329,112.314444 17.7473923,111.226599 L14.642146,102.056093 L10.6132696,93.327152 L2.14883524,94.2198034 C2.08006689,94.2269446 2.01129855,94.229325 1.94253021,94.229325 C0.959617179,94.229325 0.115426495,93.4830684 0.01108832,92.4809184 C-0.102735143,91.406166 0.672687199,90.4468632 1.74215349,90.3337941 L10.531459,89.4078169 L26.4537016,82 L40.3804766,83.2151962 L42.3783155,87.5439607 C44.2658879,88.4009061 48.4797274,90.038624 53.4986307,90.2350073 Z" id="Combined-Shape"></path>
                    </g>
                </g>
            </g>
        </g>
    </g>
</svg>