<?xml version="1.0" encoding="UTF-8" standalone="no"?>
<svg width="101px" height="54px" viewBox="0 0 101 54" version="1.1" xmlns="http://www.w3.org/2000/svg" xmlns:xlink="http://www.w3.org/1999/xlink">
    <!-- Generator: Sketch 50 (54983) - http://www.bohemiancoding.com/sketch -->
    <title>dog-out</title>
    <desc>Created with Sketch.</desc>
    <defs></defs>
    <g id="Page-1" stroke="none" stroke-width="1" fill="none" fill-rule="evenodd">
        <g id="500" transform="translate(-137.000000, -257.000000)" fill="#909090" fill-rule="nonzero">
            <g id="Notification" transform="translate(54.000000, 171.000000)">
                <g id="dog-out" transform="translate(83.000000, 86.000000)">
                    <path d="M95.5643764,43.0992208 L90.2768969,43.0992208 C90.2768969,43.0992208 96.8648286,21.0636779 96.8751642,20.9086861 L97.7341701,8.09734004 C97.7725267,7.5248148 97.5724748,6.96173185 97.181788,6.54258627 C96.7908714,6.12344068 96.2442313,5.88554101 95.671867,5.88554101 L93.867036,5.88554101 C92.982306,5.88554101 92.1961089,6.44977546 91.9103861,7.28944843 L85.7875579,25.2952059 C84.6871576,25.2952059 83.7755549,25.2949756 83.0238099,25.294515 C83.0238099,25.294515 79.9267953,12.1471616 79.8941807,12.06149 L75.8166591,1.33458719 C75.5111838,0.531071278 74.7424424,0 73.8850444,0 L70.911598,0 C70.2985802,0 69.7170286,0.272905232 69.3242746,0.745019767 C68.9315206,1.216904 68.767988,1.83940429 68.878005,2.4441715 L72.5253346,22.5124938 C64.9651645,19.8856945 58.1617924,18.3431467 52.2318959,17.9216981 C49.3280428,17.7153495 46.6263086,17.7775304 44.1356511,18.1001804 L43.4787643,10.7089395 L46.418907,10.3360841 C47.3176476,10.2220857 48.0379262,9.53441062 48.1950278,8.639696 L48.4956799,6.93018079 C48.5921458,6.38137642 48.4642136,5.81645108 48.1405935,5.36345143 C47.8169734,4.91022147 47.3247677,4.60691667 46.7756011,4.52193605 L39.0436298,3.32414693 C38.4765482,3.23640272 37.8993606,3.38840057 37.4491864,3.74421372 C36.9987825,4.09979657 36.7160456,4.62718305 36.668272,5.20016889 L36.3444222,9.09108356 C36.3444222,9.09246536 36.3444222,9.09384716 36.3444222,9.09545926 L35.8196018,15.4052125 L31.3973295,7.91839711 L33.7687828,6.25171765 C34.3916768,5.81391778 34.7244842,5.06820712 34.6349087,4.31075116 L34.4585139,2.81794803 C34.3866239,2.20949603 34.0501416,1.66414616 33.5388724,1.32813879 C33.0280625,0.992131424 32.3946031,0.900472115 31.809836,1.07688174 L24.3181108,3.33888612 C23.7689442,3.50470195 23.3134874,3.89160557 23.0599199,4.40724677 C22.8065821,4.92288796 22.777872,5.52097647 22.9811394,6.05849614 L30.2677598,24.7945342 C29.9089985,25.2058496 29.5743537,25.6316739 29.2654332,26.0706253 C28.8255946,26.6954285 28.4898014,27.2732507 28.2343965,27.7704679 C27.4194894,20.2306836 21.6237265,14.3071431 13.5042839,13.3320539 C12.929393,13.2625034 12.3540429,13.4382221 11.9148934,13.8147622 C11.4757439,14.1913023 11.2136782,14.7352704 11.1925476,15.314244 L10.8298817,25.2673397 C8.22484317,26.8114996 6.75442729,29.7538095 7.04795924,32.7477066 L1.81835926,35.1748359 C1.07258602,35.5209765 0.601970251,36.2775112 0.620115026,37.1015238 C0.638259802,37.9255364 1.14171991,38.660423 1.90196304,38.9734004 L5.22084923,40.3393083 L0.857375195,43.4974091 C0.130435763,44.0236441 -0.175498936,44.9598127 0.100347591,45.8153763 C0.375964437,46.67094 1.17043,47.2506045 2.06733315,47.2506045 L95.5643764,47.2446167 C96.281899,47.2446167 96.8657473,47.8300388 96.8657473,48.5497256 C96.8657473,49.2691821 96.281899,49.8546041 95.5643764,49.8546041 L67.2369364,49.8546041 C66.0951936,49.8546041 65.16981,50.7824819 65.16981,51.927302 C65.16981,53.0721222 66.0951936,54 67.2369364,54 L95.5643764,54 C98.5617096,54 101,51.5549073 101,48.5497256 C101,45.5443135 98.5617096,43.0992208 95.5643764,43.0992208 Z" id="Shape"></path>
                </g>
            </g>
        </g>
    </g>
</svg>