<?xml version="1.0" encoding="UTF-8" standalone="no"?>
<svg width="190px" height="191px" viewBox="0 0 190 191" version="1.1" xmlns="http://www.w3.org/2000/svg" xmlns:xlink="http://www.w3.org/1999/xlink">
    <!-- Generator: Sketch 50 (54983) - http://www.bohemiancoding.com/sketch -->
    <title>email</title>
    <desc>Created with Sketch.</desc>
    <defs></defs>
    <g id="Page-1" stroke="none" stroke-width="1" fill="none" fill-rule="evenodd">
        <g id="Reset-Password" transform="translate(-92.000000, -93.000000)" fill-rule="nonzero">
            <g id="email" transform="translate(92.000000, 93.000000)">
                <g id="011-whistle" transform="translate(95.500000, 95.500000) rotate(-180.000000) translate(-95.500000, -95.500000) ">
                    <polygon id="Shape" fill="#29485A" points="107 140 119 140 119 152 107 152"></polygon>
                    <g id="Group" transform="translate(128.000000, 10.000000)" fill="#ED1C24">
                        <polygon id="Shape" points="19.0697368 4.60593939 23.5357895 0.148909091 29.8507895 6.45115152 25.3843421 10.9081818"></polygon>
                        <polygon id="Shape" points="0.121578947 47.4086364 6.43657895 41.1063939 10.9026316 45.5634242 4.58763158 51.8656667"></polygon>
                    </g>
                    <g id="Group" transform="translate(8.000000, 4.000000)" fill="#FBCC34">
                        <polygon id="Shape" points="155.601 59.5611285 161.985236 59.5611285 161.985236 69.0909091 155.601 69.0909091"></polygon>
                        <polygon id="Shape" points="0.123295567 4.62869383 4.63774877 0.136196447 11.0211872 6.48858934 6.50673399 10.9810867"></polygon>
                    </g>
                    <g id="Group" transform="translate(18.000000, 1.000000)" fill="#0378A3">
                        <polygon id="Shape" points="46.0695404 118.343172 52.461351 111.95436 56.9817252 116.472614 50.5899145 122.861425"></polygon>
                        <polygon id="Shape" points="0.384755196 63.0974026 6.7773649 63.0974026 6.7773649 72.6818182 0.384755196 72.6818182"></polygon>
                        <polygon id="Shape" points="30.0900139 6.52738636 36.4818245 0.138574675 41.0021986 4.65682792 34.610388 11.0456396"></polygon>
                        <polygon id="Shape" points="166.592607 2.3961039 172.985217 2.3961039 172.985217 11.9805195 166.592607 11.9805195"></polygon>
                    </g>
                    <polygon id="Shape" fill="#06AAE9" points="119 107.556752 123.556752 103 130 109.443248 125.443248 114"></polygon>
                    <polygon id="Shape" fill="#ED1C24" points="1 164.556752 5.55675161 160 12 166.443248 7.44324839 171"></polygon>
                    <polygon id="Shape" fill="#FBCC34" points="70 181 77 181 77 191 70 191"></polygon>
                    <polygon id="Shape" fill="#0378A3" points="119 179.443248 125.443248 173 130 177.556752 123.556752 184"></polygon>
                    <g id="Group" transform="translate(7.000000, 92.000000)" fill="#06AAE9">
                        <polygon id="Shape" points="167.164871 81.5216937 171.675352 77.0368649 178.053174 83.3784144 173.542693 87.8632432"></polygon>
                        <polygon id="Shape" points="0.38391314 44.3963964 9.95184187 44.3963964 9.95184187 50.7387387 0.38391314 50.7387387"></polygon>
                        <path d="M166.228011,25.3693694 C159.182428,25.3693694 153.470773,19.6901982 153.470773,12.6846847 C153.470773,5.67917117 159.182428,0 166.228011,0 C173.273595,0 178.985249,5.67917117 178.985249,12.6846847 C178.985249,19.6901982 173.273595,25.3693694 166.228011,25.3693694 Z M166.228011,6.34234234 C162.70502,6.34234234 159.849392,9.18172973 159.849392,12.6846847 C159.849392,16.1876396 162.70502,19.027027 166.228011,19.027027 C169.751002,19.027027 172.60663,16.1876396 172.60663,12.6846847 C172.60663,9.18172973 169.751002,6.34234234 166.228011,6.34234234 Z" id="Shape"></path>
                    </g>
                    <path d="M35,182 C27.8203438,182 22,176.179656 22,169 C22,161.820344 27.8203438,156 35,156 C42.1796563,156 48,161.820344 48,169 C48,176.179656 42.1796563,182 35,182 Z M35,162.5 C31.4099688,162.5 28.5,165.409969 28.5,169 C28.5,172.590031 31.4099688,175.5 35,175.5 C38.5900313,175.5 41.5,172.590031 41.5,169 C41.5,165.409969 38.5900313,162.5 35,162.5 Z" id="Shape" fill="#FF1D25"></path>
                    <path d="M112,26 C104.820344,26 99,20.1796563 99,13 C99,5.82034375 104.820344,0 112,0 C119.179656,0 125,5.82034375 125,13 C125,20.1796563 119.179656,26 112,26 Z M112,6.5 C108.409969,6.5 105.5,9.40996875 105.5,13 C105.5,16.5900313 108.409969,19.5 112,19.5 C115.590031,19.5 118.5,16.5900313 118.5,13 C118.5,9.40996875 115.590031,6.5 112,6.5 Z" id="Shape" fill="#F8CF26"></path>
                </g>
                <g id="014-celebration" transform="translate(36.000000, 36.000000)">
                    <path d="M91.9172414,22.4038345 L64.461069,1.6621965 C61.5281293,-0.554065499 57.4718707,-0.554065499 54.538931,1.6621965 L27.0827586,22.4038345 L8.20689659,36.662689 L3.24582763,40.4097501 C1.20077159,41.9553617 -0.000256424451,44.3646975 4.10655791e-08,46.9211371 L4.10655791e-08,55.1364765 L54.538931,96.3378035 C57.4718707,98.5540655 61.5281293,98.5540655 64.461069,96.3378035 L119,55.1364765 L119,46.9211371 C119.000256,44.3646975 117.799228,41.9551063 115.754172,40.4097501 L110.793103,36.6688184 L91.9172414,22.4038345 Z" id="Shape" fill="#CDA349"></path>
                    <polygon id="Shape" fill="#F2F2F2" points="9 61.9382716 9 23 111 23 111 61.9382716 60 106"></polygon>
                    <polygon id="Shape" fill="#FBCC34" points="44.1818182 68 72.8181818 68 81 49.3076923 68.7272727 51.3846154 58.5 41 48.2727273 51.3846154 36 49.3076923"></polygon>
                    <g id="Group" transform="translate(27.000000, 29.000000)" fill="#CDA349">
                        <path d="M47.4375,49.9642487 L18.5625,49.9642487 C17.4234844,49.9642487 16.5,49.0362694 16.5,47.8917098 C16.5,46.7471503 17.4234844,45.819171 18.5625,45.819171 L47.4375,45.819171 C48.5765156,45.819171 49.5,46.7471503 49.5,47.8917098 C49.5,49.0362694 48.5765156,49.9642487 47.4375,49.9642487 Z" id="Shape"></path>
                        <path d="M33,8.5134715 C30.7217109,8.5134715 28.875,6.65777202 28.875,4.36839378 C28.875,2.07901554 30.7217109,0.223316062 33,0.223316062 C35.2782891,0.223316062 37.125,2.07901554 37.125,4.36839378 C37.125,6.65777202 35.2782891,8.5134715 33,8.5134715 Z" id="Shape"></path>
                        <path d="M4.125,16.8036269 C1.84671094,16.8036269 0,14.9479275 0,12.6585492 C0,10.369171 1.84671094,8.5134715 4.125,8.5134715 C6.40328906,8.5134715 8.25,10.369171 8.25,12.6585492 C8.25,14.9479275 6.40328906,16.8036269 4.125,16.8036269 Z" id="Shape"></path>
                        <path d="M61.875,16.8036269 C59.5967109,16.8036269 57.75,14.9479275 57.75,12.6585492 C57.75,10.369171 59.5967109,8.5134715 61.875,8.5134715 C64.1532891,8.5134715 66,10.369171 66,12.6585492 C66,14.9479275 64.1532891,16.8036269 61.875,16.8036269 Z" id="Shape"></path>
                    </g>
                    <path d="M110.9,113 L94.1,113 C92.940275,113 92,112.1045 92,111 C92,109.8955 92.940275,109 94.1,109 L110.9,109 C112.059725,109 113,109.8955 113,111 C113,112.1045 112.059725,113 110.9,113 Z" id="Shape" fill="#000000"></path>
                    <path d="M110,105 L100,105 C98.8955,105 98,104.1045 98,103 C98,101.8955 98.8955,101 100,101 L110,101 C111.1045,101 112,101.8955 112,103 C112,104.1045 111.1045,105 110,105 Z" id="Shape" fill="#000000"></path>
                    <polygon id="Shape" fill="#E2C675" points="0 56 59.5 99.6935484 119 56 119 119 0 119"></polygon>
                </g>
            </g>
        </g>
    </g>
</svg>