<svg xmlns="http://www.w3.org/2000/svg" width="98" height="35" viewBox="0 0 98 35">
    <g fill="none" fill-rule="evenodd">
        <g fill="#979797" fill-rule="nonzero">
            <path d="M19.838 0H2.162C.97 0 0 .994 0 2.216v30.568C0 34.006.97 35 2.162 35h17.676C21.03 35 22 34.006 22 32.784V2.216C22 .994 21.03 0 19.838 0zM1.084 5.57h19.832v23.146H1.084V5.57zm1.078-4.46h17.676c.594 0 1.078.496 1.078 1.106v2.613H1.084V2.216c0-.61.483-1.106 1.078-1.106zm17.676 32.78H2.162c-.595 0-1.079-.496-1.079-1.106v-3.328h19.833v3.328c0 .61-.484 1.106-1.078 1.106z"/>
            <path d="M11 30.196c-.919 0-1.667.77-1.667 1.716s.748 1.715 1.667 1.715 1.667-.77 1.667-1.715c0-.946-.748-1.716-1.667-1.716zm0 2.733c-.545 0-.988-.456-.988-1.017 0-.561.443-1.017.988-1.017.545 0 .988.456.988 1.017 0 .56-.443 1.017-.988 1.017zM8.342 3.431h4.65a.343.343 0 0 0 0-.686h-4.65a.343.343 0 0 0 0 .686zM7 3.431a.33.33 0 0 0 .235-.1.353.353 0 0 0 0-.486.33.33 0 0 0-.235-.1.332.332 0 0 0-.236.1.35.35 0 0 0 0 .486.33.33 0 0 0 .236.1z"/>
        </g>
        <g fill="#979797" fill-rule="nonzero">
            <path d="M8.915 13.04H6.231v2.744h2.684V13.04zm-.537 2.195h-1.61v-1.647h1.61v1.647z"/>
            <path d="M7.573 14.412h1v1h-1zM12.27 13.04v2.744h2.684V13.04H12.27zm2.147 2.195h-1.61v-1.647h1.61v1.647z"/>
            <path d="M13.612 14.412h1v1h-1zM6.23 21.96h2.685v-2.744H6.231v2.745zm.538-2.195h1.61v1.647h-1.61v-1.647z"/>
            <path d="M7.573 20.588h1v1h-1zM10.928 13.04h1.342v1h-1.342z"/>
            <path d="M10.593 15.098h.503v-.457h.503v-.458h-1.51v-.458h-.503v.916h1.007zM9.586 15.098h1v1h-1z"/>
            <path d="M11.6 15.784h-.504v.687h-1.51v.686H11.6zM6.902 18.015h.671V17.5h-.671v-1.03h-.671v2.06h.671zM7.573 16.47h1v1h-1z"/>
            <path d="M9.183 18.53h1.074v-.515H9.72V17.5H8.647v-1.03H8.11v1.03h-.537v1.03h.537v-.515h1.073zM10.928 17.843h1v1.373h-1zM11.197 19.216h-1.61v.549h1.073v1.647H9.586v.549h1.61v-.55h1.074v-.548h-1.073z"/>
            <path d="M9.586 20.588h1v1h-1zM11.599 19.215h1v1.373h-1zM14.283 20.588h-1.342v1.373h.448v-.915h.894z"/>
            <path d="M13.612 21.274h1.342v1h-1.342zM14.283 19.215h1v1h-1zM12.941 19.216h.671v-1.373H12.27v.458h.671zM13.88 17.157h-.536v-.686h-.537v.686h-.537v.686h2.147v-.686h.537v-.686h-1.073zM13.612 17.843h1.342v1h-1.342z"/>
        </g>
        <path stroke="#979797" d="M14.283 11.667h2.013v2.058M6.902 23.333H4.889v-2.058M16.32 21.297v2.013h-2.06M4.866 13.703V11.69h2.059"/>
        <g fill="#979797" fill-rule="nonzero">
            <path d="M97.996 14.333c-.04-.697-.854-1.241-2.482-1.657a.933.933 0 0 0 .086-.381v-2.85h-.007C95.45 7.07 85.897 7 84.8 7c-1.097 0-10.65.07-10.793 2.444H74v2.852c.002.774.983 1.38 2.442 1.83a.909.909 0 0 0-.036.207H76.4v2.847c-1.572.412-2.357.95-2.396 1.635H74v2.851c.001.54.478.996 1.26 1.377a.912.912 0 0 0-.054.254H75.2v2.851c.003 1.355 2.999 2.196 6.327 2.59.025.004.047.014.073.014.008 0 .014-.004.022-.004.641.074 1.293.131 1.938.172.014.002.026.008.04.008.008 0 .014-.004.02-.004.82.05 1.626.076 2.38.076s1.56-.026 2.38-.077c.006 0 .013.005.02.005.014 0 .026-.007.04-.008a38.057 38.057 0 0 0 1.938-.173c.008 0 .014.004.022.004.026 0 .048-.01.073-.015 3.328-.392 6.323-1.234 6.327-2.59v-2.85h-.006c-.028-.5-.446-.916-1.272-1.264a.925.925 0 0 0 .078-.367v-2.663c1.436-.45 2.398-1.051 2.4-1.818v-2.85h-.004zm-3.24 7.464l-.136.122c-.21.189-.56.38-1.02.562V20.54c.476-.169.88-.356 1.2-.56v1.685a.262.262 0 0 1-.043.133zm-8.946 1.894l-.176.003c-.142.003-.289.004-.434.005v-2.035l.33-.005h.064c.403-.009.806-.021 1.206-.04v2.034a34.883 34.883 0 0 1-.99.037zm-1.746.005a40.005 40.005 0 0 1-.547-.013c-.023 0-.045-.002-.067-.003a41.506 41.506 0 0 1-.65-.027V21.62a40.904 40.904 0 0 0 1.6.046V23.7l-.232-.002-.104-.003zm-7.225-.929a1.395 1.395 0 0 0-.039-.01v-1.97c.374.104.775.197 1.2.282v1.989a18.22 18.22 0 0 1-1.014-.249c-.05-.014-.1-.027-.147-.042zm8.431 3.374l.33.005v2.037a39.681 39.681 0 0 1-1.6-.048v-2.034c.4.02.804.032 1.206.04h.064zm1.524-.001c.402-.008.805-.02 1.206-.04v2.035c-.514.026-1.047.042-1.6.047v-2.036l.33-.005.064-.001zM90 25.956v2.023c-.384.041-.784.077-1.2.107v-2.032c.406-.026.806-.06 1.2-.098zm.8-.088c.412-.05.813-.108 1.2-.172v2c-.377.068-.777.13-1.2.187v-2.015zm2-.318c.425-.085.826-.178 1.2-.281v1.968c-.356.105-.758.206-1.2.302V25.55zm-13.6 0v1.989a17.164 17.164 0 0 1-1.2-.302V25.27c.374.103.775.197 1.2.281zm.8.146c.387.064.788.122 1.2.172v2.015a27.39 27.39 0 0 1-1.2-.186v-2zm2 .26c.394.039.794.072 1.2.099v2.032c-.416-.03-.816-.066-1.2-.108v-2.023zm-.992-2.436l-.122-.013-.086-.01v-2.022c.394.038.794.071 1.2.099v2.03a38.027 38.027 0 0 1-.992-.084zM80 21.386v2.015a27.39 27.39 0 0 1-1.2-.186v-2c.387.063.788.121 1.2.171zm7.866 2.199l-.266.02v-2.032c.406-.027.806-.06 1.2-.099v2.024a32.072 32.072 0 0 1-.934.087zM89.6 23.4v-2.015c.412-.05.813-.108 1.2-.172v2c-.377.068-.777.131-1.2.187zm2-2.332c.425-.085.826-.179 1.2-.282v1.969c-.356.104-.758.206-1.2.302v-1.989zm-5.47-1.861a37.377 37.377 0 0 1-.93-.036v-2.034a40.904 40.904 0 0 0 1.6.045v2.034c-.195-.002-.392-.003-.582-.007l-.088-.002zm-9.33-5.822v-1.968c.374.102.775.196 1.2.281v1.989l-.148-.032a16.594 16.594 0 0 1-1.052-.27zm7.27-1.097l.33.005v2.034a38.944 38.944 0 0 1-1.6-.046v-2.033a40.904 40.904 0 0 0 1.27.04zm1.524 0c.402-.009.805-.021 1.206-.04v2.033l-.202.011h-.017c-.268.013-.542.022-.819.029l-.13.002c-.142.003-.288.004-.432.005v-2.035l.33-.005h.064zm9.114.204l-.01-.003-.146.116c-.212.167-.536.336-.952.5v-1.938c.476-.168.88-.355 1.2-.56v1.685c0 .062-.032.13-.092.2zM89.6 14.029v-2.013c.412-.05.813-.108 1.2-.172v1.997c-.38.069-.778.131-1.2.188zm2-.345V11.7c.425-.085.826-.179 1.2-.281v1.963c-.358.107-.762.208-1.2.303zm-2.8-1.58v2.02a35.06 35.06 0 0 1-1.2.109v-2.03c.406-.027.806-.06 1.2-.099zm-8 2.022v-2.022c.394.039.794.072 1.2.099v2.028c-.407-.03-.809-.063-1.2-.105zm-.8-2.11v2.013l-.24-.03-.15-.023c-.232-.033-.458-.07-.68-.108l-.13-.023v-2c.387.063.788.12 1.2.171zm4.3 7.1l-.161-.012a34.11 34.11 0 0 1-.75-.068l-.157-.016-.032-.004v-2.023c.394.039.794.072 1.2.099v2.03l-.1-.006zm-2.642-.304c-.158-.026-.307-.054-.458-.08v-1.999c.387.064.788.122 1.2.172v2.015a30.163 30.163 0 0 1-.742-.108zM80.4 16.588v1.985c-.442-.097-.843-.2-1.2-.306v-1.961c.374.103.775.197 1.2.282zm-2-.53v1.935c-.629-.248-1.034-.5-1.166-.725l-.027-.046c-.003-.012-.007-.026-.007-.038v-1.688c.32.205.724.392 1.2.561zm9.594 1.119c.402-.008.805-.02 1.206-.04v2.033c-.526.027-1.06.041-1.6.047v-2.034l.33-.005.064-.001zm5.169 1.563a25.323 25.323 0 0 1-.853.137c-.102.015-.207.027-.31.04v-2.012c.413-.05.813-.108 1.2-.172v2l-.037.007zm-2.709.348c-.149.013-.303.021-.454.032v-2.028c.406-.027.806-.06 1.2-.1v2.022c-.232.025-.464.05-.703.07l-.043.004zm4.572-.764a15.913 15.913 0 0 1-.93.232l-.096.02v-1.988c.425-.085.827-.179 1.2-.282v1.969l-.174.05zm2.17-3.964c-.037.276-.653.644-1.752.99-1.415.446-3.63.853-6.436.98l-.433.017-.361.01a43.158 43.158 0 0 1-2.389-.011c-.147-.004-.29-.01-.433-.017-2.807-.126-5.022-.534-6.436-.98-1.09-.342-1.705-.707-1.75-.983.002-.007.002-.014.006-.024l.086.02a26.715 26.715 0 0 0 3.094.536l.008.002h.002c.64.073 1.302.132 1.983.173l.015.003.008-.002a40.164 40.164 0 0 0 3.034.068c2.907-.046 5.6-.398 7.475-.944.086-.024.17-.05.254-.076l.152-.047c.145-.047.283-.096.417-.146l.069-.027c.113-.044.222-.089.326-.135l.09-.04c.11-.05.218-.103.317-.157.045-.024.084-.049.126-.073.048-.029.096-.057.14-.086l.08-.048c1.79.395 2.262.828 2.308.997zM84.8 7.815c6.596 0 9.932 1.057 9.994 1.664-.048.276-.662.64-1.75.982-1.415.445-3.63.853-6.436.98-.143.005-.286.012-.433.016a43.158 43.158 0 0 1-2.389.011 34.342 34.342 0 0 1-.361-.01c-.147-.005-.29-.012-.433-.018-2.807-.126-5.022-.534-6.436-.98-1.088-.341-1.702-.705-1.75-.98.062-.608 3.398-1.665 9.994-1.665zm-10 4.48v-1.687c.32.205.724.392 1.2.56v1.95c-.778-.296-1.2-.594-1.2-.823zm1.938 5.638c.006.006.015.012.02.019.548.563 1.682 1.005 3.094 1.335l.1.023.315.07c1.296.28 2.844.483 4.53.584h.004a39.505 39.505 0 0 0 2.399.073 40.5 40.5 0 0 0 2.394-.073h.006l.01-.001c1.69-.102 3.276-.307 4.618-.602-.29.155-.688.315-1.184.47-1.494.47-3.88.899-6.912.998-.09.003-.179.007-.27.009l-.297.006a43.158 43.158 0 0 1-1.778-.005l-.362-.011-.433-.017c-2.807-.127-5.022-.534-6.436-.98-1.1-.346-1.716-.714-1.752-.99.045-.154.45-.537 1.934-.908zM74.8 21.665v-1.687c.32.205.724.392 1.2.56v1.943l-.228-.09-.005.005c-.628-.265-.966-.526-.967-.731zm1.2 4.482v-1.688c.32.205.724.392 1.2.561v1.95c-.778-.296-1.2-.594-1.2-.823zm18.8.824v-1.95c.476-.17.88-.356 1.2-.561v1.686c0 .23-.422.527-1.2.825zm1.195-3.643c-.044.275-.658.641-1.75.985-1.416.445-3.63.853-6.437.98l-.433.017-.361.01a43.256 43.256 0 0 1-2.386-.011c-.148-.005-.292-.01-.436-.017-2.807-.126-5.021-.534-6.436-.98-1.058-.332-1.67-.686-1.746-.959a11.652 11.652 0 0 0 .869.27l.195.052c1.457.38 3.316.65 5.324.77h.003a39.299 39.299 0 0 0 3.073.067c.584-.01 1.16-.032 1.723-.066H87.206c.686-.043 1.35-.103 1.988-.177l.006.001c.01 0 .016-.004.025-.005a28.516 28.516 0 0 0 2.39-.38l.085-.018c1.18-.247 2.203-.567 2.905-.963.038-.021.074-.043.11-.065.045-.027.087-.054.129-.082.038-.025.082-.05.118-.075.79.287 1.007.543 1.033.646zm.005-5.32v-1.95c.476-.17.88-.356 1.2-.561v1.686c0 .23-.422.527-1.2.825z"/>
        </g>
        <g>
            <path stroke="#979797" stroke-linecap="square" stroke-width="3" d="M34.41 15.417H56.5"/>
            <path fill="#979797" d="M62.098 15l-10.833 4.91v-9.82z"/>
        </g>
    </g>
</svg>
