<svg xmlns="http://www.w3.org/2000/svg" width="39" height="39" viewBox="0 0 39 39">
    <g fill="none" fill-rule="nonzero">
        <path fill="#FFD311" d="M29.5 4C31.988 4 34 6.012 34 8.5S31.988 13 29.5 13A4.497 4.497 0 0 1 25 8.5C25 6.012 27.012 4 29.5 4z"/>
        <path fill="#FDB51E" d="M30.5 1C34.644 1 38 4.356 38 8.5S34.644 16 30.5 16A7.498 7.498 0 0 1 23 8.5C23 4.356 26.356 1 30.5 1zm4.375 7.5A4.372 4.372 0 0 0 30.5 4.125 4.372 4.372 0 0 0 26.125 8.5a4.372 4.372 0 0 0 4.375 4.375A4.372 4.372 0 0 0 34.875 8.5z"/>
        <g fill="#FFD311">
            <path d="M36.67 30.455h1.283v3.771H36.03v3.771H21.923v-3.771h1.924v-3.771h-1.283v-3.772h-1.923v-3.771h1.282V19.14h1.282v-3.77h14.107v3.77H36.03v3.772h-1.283v3.771h1.924zM16.793 26.683h1.924V34.226h-2.565v3.771H2.046v-3.771H4.61V26.683H2.687v-3.771h1.282V19.14h1.283v-3.77H3.328v-3.772H2.046V7.826h1.923V4.055h14.107v3.771h-1.924v3.772h1.283v3.771h1.923v3.771h-1.282v3.772h-1.283z"/>
        </g>
        <g fill="#231F20">
            <path d="M13.003 7.03h1.404v1.151h-1.404zM14.407 14.626h1.404v1.151h-1.404zM13.003 22.223h1.404v1.151h-1.404zM13.705 29.819h1.404v1.151h-1.404zM16.513 29.819h1.404v1.151h-1.404z"/>
        </g>
        <g fill="#FFF">
            <path d="M7.039 11.007H8.32v1.151H7.039zM8.961 18.603h1.281v1.151H8.961zM7.679 26.199h1.282v1.151H7.679zM7.039 33.795H8.32v1.151H7.039zM32.027 18.603h1.282v1.151h-1.282zM31.387 26.832h1.281v1.151h-1.281zM32.668 33.795h1.282v1.151h-1.282z"/>
        </g>
        <g fill="#231F20">
            <path d="M27.711 29.837h1.38v1.134h-1.38zM25.64 22.356h1.38v1.134h-1.38zM35.93 7.962c0-2.72-2.448-4.931-5.459-4.931-3.01 0-5.459 2.212-5.459 4.93 0 2.72 2.45 4.931 5.46 4.931s5.459-2.211 5.459-4.93zm-9.662 0c0-2.094 1.885-3.797 4.203-3.797 2.318 0 4.204 1.703 4.204 3.797 0 2.093-1.886 3.797-4.204 3.797-2.317 0-4.203-1.704-4.203-3.797z"/>
        </g>
        <g fill="#FFF">
            <path d="M27.039 7.024h1.236v1h-1.236zM30.748 7.024h1.236v1h-1.236z"/>
        </g>
        <path fill="#231F20" d="M37.024 37.852v-2.637h1.918v-4.933h-1.279v-3.785h-1.918v-2.638h1.28v-3.785h1.278V15.14h-4.034c2.414-1.423 4.034-4.026 4.034-6.997C38.303 3.654 34.6 0 30.049 0c-4.55 0-8.254 3.654-8.254 8.144 0 2.97 1.62 5.574 4.034 6.997h-2.755v3.785h-1.279v3.785h-1.278v4.933h1.918v3.785h1.278v2.638h-1.918v3.785h-4.59v-2.637h2.557v-8.718h-1.918v-2.638h1.278v-3.785h1.279V15.14h-1.918v-3.785h-1.279V8.718h1.918V3.785H3.894V7.57H1.976v4.933h1.279v3.786h1.918v2.637h-1.28v3.785H2.616v4.933h1.918v6.423H1.976v3.785H0V39h39v-1.148h-1.976zM9.59 34.067v1.148h6.451v2.637H3.14v-2.637h2.557V31.43h6.451v-1.148h-6.45v-3.785H3.777v-2.638h7.73v-1.147H5.057v-2.638h1.279v-3.785h6.45V15.14H4.419v-3.785h-1.28V8.718h8.37V7.57H5.057V4.933h12.902V7.57h-1.918v3.786h-6.45v1.147h7.73v3.786h1.917v2.637h-7.73v1.148h6.451v2.637h-1.278v3.786h-6.452v1.147h8.37v6.423H9.59zM22.96 8.144c0-3.858 3.18-6.996 7.09-6.996 3.91 0 7.09 3.138 7.09 6.996 0 3.858-3.18 6.997-7.09 6.997-3.91 0-7.09-3.139-7.09-6.997zM35.86 37.852H22.96v-2.637h8.369v-1.148h-6.451v-3.785h-1.28v-2.007h6.452v-1.147h-6.451v-.631H21.68v-2.638h1.279v-3.785h7.73v-1.148h-6.452V16.29H37.14v2.637H35.86v3.786h-7.73v1.147h6.451v3.785H36.5v2.638h-6.45v1.148h7.73v2.637H35.86v3.785z"/>
    </g>
</svg>
