<?xml version="1.0" encoding="UTF-8" standalone="no"?>
<svg width="313px" height="190px" viewBox="0 0 313 190" version="1.1" xmlns="http://www.w3.org/2000/svg" xmlns:xlink="http://www.w3.org/1999/xlink">
    <!-- Generator: Sketch 50 (54983) - http://www.bohemiancoding.com/sketch -->
    <title>logo</title>
    <desc>Created with Sketch.</desc>
    <defs></defs>
    <g id="Page-1" stroke="none" stroke-width="1" fill="none" fill-rule="evenodd">
        <g id="logo" transform="translate(-1.000000, 0.000000)">
            <g>
                <g id="brand" transform="translate(108.000000, 0.000000)">
                    <circle id="Oval-6" fill="#2D50C6" cx="55.5" cy="55.5" r="55.5"></circle>
                    <circle id="Oval-6" fill="#10437D" cx="55" cy="54" r="39"></circle>
                    <circle id="Oval-6" fill="#FFFFFF" cx="55.5" cy="54.5" r="23.5"></circle>
                </g>
                <g id="Text" transform="translate(0.000000, 116.000000)">
                    <path d="M35.168,50.936 C35.4240013,50.936 35.6799987,50.9839995 35.936,51.08 C36.1920013,51.1760005 36.4373322,51.3413322 36.672,51.576 L40.96,56.088 C39.0826573,58.5413456 36.7306808,60.3919938 33.904,61.64 C31.0773192,62.8880062 27.7333526,63.512 23.872,63.512 C20.330649,63.512 17.1573474,62.9093394 14.352,61.704 C11.5466526,60.4986606 9.16800976,58.8346773 7.216,56.712 C5.26399024,54.5893227 3.76533856,52.0720146 2.72,49.16 C1.67466144,46.2479854 1.152,43.0853504 1.152,39.672 C1.152,36.1946493 1.74932736,33.0000146 2.944,30.088 C4.13867264,27.1759854 5.80798928,24.6640106 7.952,22.552 C10.0960107,20.4399894 12.6613184,18.7973392 15.648,17.624 C18.6346816,16.4506608 21.9306486,15.864 25.536,15.864 C27.2853421,15.864 28.9333256,16.0186651 30.48,16.328 C32.0266744,16.6373349 33.4719933,17.0639973 34.816,17.608 C36.1600067,18.1520027 37.3973277,18.8026629 38.528,19.56 C39.6586723,20.3173371 40.661329,21.1546621 41.536,22.072 L37.888,26.968 C37.6533322,27.2666682 37.3760016,27.5386654 37.056,27.784 C36.7359984,28.0293346 36.2880029,28.152 35.712,28.152 C35.3279981,28.152 34.965335,28.0666675 34.624,27.896 C34.282665,27.7253325 33.9200019,27.5173346 33.536,27.272 C33.1519981,27.0266654 32.730669,26.7600014 32.272,26.472 C31.813331,26.1839986 31.2693365,25.9173346 30.64,25.672 C30.0106635,25.4266654 29.2746709,25.2186675 28.432,25.048 C27.5893291,24.8773325 26.6026723,24.792 25.472,24.792 C23.5093235,24.792 21.7173414,25.1386632 20.096,25.832 C18.4746586,26.5253368 17.0826725,27.5173269 15.92,28.808 C14.7573275,30.0986731 13.8506699,31.6613242 13.2,33.496 C12.5493301,35.3306758 12.224,37.3893219 12.224,39.672 C12.224,42.0613453 12.5493301,44.1839907 13.2,46.04 C13.8506699,47.8960093 14.7359944,49.4586603 15.856,50.728 C16.9760056,51.9973397 18.2826592,52.9626634 19.776,53.624 C21.2693408,54.2853366 22.8693248,54.616 24.576,54.616 C25.5573382,54.616 26.4533293,54.5680005 27.264,54.472 C28.0746707,54.3759995 28.8266632,54.2106678 29.52,53.976 C30.2133368,53.7413322 30.8746635,53.4373352 31.504,53.064 C32.1333365,52.6906648 32.7679968,52.2266694 33.408,51.672 C33.6640013,51.4586656 33.9413318,51.2826674 34.24,51.144 C34.5386682,51.0053326 34.8479984,50.936 35.168,50.936 Z M57.068,29.816 L57.068,50.872 C57.068,52.5146749 57.4413296,53.7839955 58.188,54.68 C58.9346704,55.5760045 60.0333261,56.024 61.484,56.024 C62.5720054,56.024 63.5906619,55.8000022 64.54,55.352 C65.4893381,54.9039978 66.4119955,54.2746707 67.308,53.464 L67.308,29.816 L77.228,29.816 L77.228,63 L71.084,63 C69.8466605,63 69.0360019,62.4453389 68.652,61.336 L68.044,59.416 C67.4039968,60.0346698 66.7426701,60.5946642 66.06,61.096 C65.3773299,61.5973358 64.6466705,62.0239982 63.868,62.376 C63.0893294,62.7280018 62.2520045,63.0053323 61.356,63.208 C60.4599955,63.4106677 59.478672,63.512 58.412,63.512 C56.5986576,63.512 54.9933403,63.1973365 53.596,62.568 C52.1986597,61.9386635 51.0200048,61.0586723 50.06,59.928 C49.0999952,58.7973277 48.3746691,57.4640077 47.884,55.928 C47.3933309,54.3919923 47.148,52.7066758 47.148,50.872 L47.148,29.816 L57.068,29.816 Z M86.808,73.528 L86.808,29.816 L92.952,29.816 C93.5706697,29.816 94.0879979,29.9546653 94.504,30.232 C94.920002,30.5093347 95.2133324,30.9253306 95.384,31.48 L96.12,33.912 C96.7600032,33.2079965 97.4479963,32.5680029 98.184,31.992 C98.9200036,31.4159971 99.7093291,30.9200021 100.552,30.504 C101.394671,30.0879979 102.301328,29.7626678 103.272,29.528 C104.242671,29.2933322 105.303994,29.176 106.456,29.176 C108.184009,29.176 109.783993,29.5599962 111.256,30.328 C112.728007,31.0960038 113.997328,32.2053261 115.064,33.656 C116.130672,35.1066739 116.967997,36.8826562 117.576,38.984 C118.184003,41.0853438 118.488,43.46932 118.488,46.136 C118.488,48.6320125 118.141337,50.9359894 117.448,53.048 C116.754663,55.1600106 115.784006,56.9946589 114.536,58.552 C113.287994,60.1093411 111.794675,61.325329 110.056,62.2 C108.317325,63.074671 106.392011,63.512 104.28,63.512 C102.551991,63.512 101.101339,63.2666691 99.928,62.776 C98.7546608,62.2853309 97.6880048,61.6240042 96.728,60.792 L96.728,73.528 L86.808,73.528 Z M103,36.76 C102.274663,36.76 101.61867,36.8293326 101.032,36.968 C100.44533,37.1066674 99.9013358,37.3039987 99.4,37.56 C98.8986641,37.8160013 98.4346688,38.1413314 98.008,38.536 C97.5813312,38.9306686 97.1546688,39.3839974 96.728,39.896 L96.728,53.976 C97.4746704,54.8080042 98.2853289,55.3893317 99.16,55.72 C100.034671,56.0506683 100.951995,56.216 101.912,56.216 C102.829338,56.216 103.671996,56.0346685 104.44,55.672 C105.208004,55.3093315 105.874664,54.728004 106.44,53.928 C107.005336,53.127996 107.447998,52.0880064 107.768,50.808 C108.088002,49.5279936 108.248,47.9706758 108.248,46.136 C108.248,44.3866579 108.120001,42.9146726 107.864,41.72 C107.607999,40.5253274 107.250669,39.5600037 106.792,38.824 C106.333331,38.0879963 105.784003,37.5600016 105.144,37.24 C104.503997,36.9199984 103.789337,36.76 103,36.76 Z M139.908,29.304 C142.105344,29.304 144.115991,29.6453299 145.94,30.328 C147.764009,31.0106701 149.331993,32.0026602 150.644,33.304 C151.956006,34.6053398 152.979996,36.1999906 153.716,38.088 C154.452004,39.9760094 154.82,42.1146547 154.82,44.504 C154.82,45.2506704 154.788,45.8586643 154.724,46.328 C154.66,46.7973357 154.542667,47.1706653 154.372,47.448 C154.201332,47.7253347 153.972001,47.9173328 153.684,48.024 C153.395998,48.1306672 153.028002,48.184 152.58,48.184 L133.444,48.184 C133.764002,50.9573472 134.60666,52.9679938 135.972,54.216 C137.33734,55.4640062 139.097322,56.088 141.252,56.088 C142.404006,56.088 143.395996,55.9493347 144.228,55.672 C145.060004,55.3946653 145.80133,55.085335 146.452,54.744 C147.10267,54.402665 147.699997,54.0933347 148.244,53.816 C148.788003,53.5386653 149.358664,53.4 149.956,53.4 C150.745337,53.4 151.342665,53.6879971 151.748,54.264 L154.628,57.816 C153.603995,58.9893392 152.500006,59.9439963 151.316,60.68 C150.131994,61.4160037 148.916006,61.9919979 147.668,62.408 C146.419994,62.8240021 145.172006,63.1119992 143.924,63.272 C142.675994,63.4320008 141.486672,63.512 140.356,63.512 C138.030655,63.512 135.849343,63.1333371 133.812,62.376 C131.774656,61.6186629 129.993341,60.4933408 128.468,59 C126.942659,57.5066592 125.737338,55.6506778 124.852,53.432 C123.966662,51.2133222 123.524,48.6320147 123.524,45.688 C123.524,43.4693222 123.902663,41.3680099 124.66,39.384 C125.417337,37.3999901 126.505326,35.6613408 127.924,34.168 C129.342674,32.6746592 131.05999,31.490671 133.076,30.616 C135.09201,29.741329 137.369321,29.304 139.908,29.304 Z M140.1,36.152 C138.201324,36.152 136.718672,36.6906613 135.652,37.768 C134.585328,38.8453387 133.881335,40.3973232 133.54,42.424 L145.924,42.424 C145.924,41.6346627 145.822668,40.8666704 145.62,40.12 C145.417332,39.3733296 145.086669,38.7066696 144.628,38.12 C144.169331,37.5333304 143.56667,37.0586685 142.82,36.696 C142.07333,36.3333315 141.166672,36.152 140.1,36.152 Z M162.416,63 L162.416,29.816 L168.304,29.816 C168.794669,29.816 169.205332,29.8586662 169.536,29.944 C169.866668,30.0293338 170.143999,30.1626658 170.368,30.344 C170.592001,30.5253342 170.762666,30.7653318 170.88,31.064 C170.997334,31.3626682 171.098666,31.7253312 171.184,32.152 L171.728,35.256 C172.944006,33.3786573 174.309326,31.8960054 175.824,30.808 C177.338674,29.7199946 178.991991,29.176 180.784,29.176 C182.298674,29.176 183.514662,29.538663 184.432,30.264 L183.152,37.56 C183.066666,38.0080022 182.896001,38.3226658 182.64,38.504 C182.383999,38.6853342 182.042669,38.776 181.616,38.776 C181.253331,38.776 180.826669,38.7280005 180.336,38.632 C179.845331,38.5359995 179.22667,38.488 178.48,38.488 C175.87732,38.488 173.829341,39.8746528 172.336,42.648 L172.336,63 L162.416,63 Z" id="Cuper" fill="#324277"></path>
                    <path d="M228.902,57.098 C229.095334,57.098 229.259666,57.165666 229.395,57.301 L230.555,58.548 C229.704329,59.4566712 228.776338,60.2734964 227.771,60.9985 C226.765662,61.7235036 225.668506,62.3421641 224.4795,62.8545 C223.290494,63.3668359 221.985507,63.7631653 220.5645,64.0435 C219.143493,64.3238347 217.582342,64.464 215.881,64.464 C213.038986,64.464 210.433845,63.9661716 208.0655,62.9705 C205.697155,61.9748284 203.667175,60.5635091 201.9755,58.7365 C200.283825,56.9094909 198.964338,54.7006796 198.017,52.11 C197.069662,49.5193204 196.596,46.6386825 196.596,43.468 C196.596,40.3553178 197.084162,37.5133462 198.0605,34.942 C199.036838,32.3706538 200.409491,30.1618426 202.1785,28.3155 C203.947509,26.4691574 206.064488,25.0385051 208.5295,24.0235 C210.994512,23.0084949 213.715652,22.501 216.693,22.501 C218.181674,22.501 219.54466,22.6121656 220.782,22.8345 C222.01934,23.0568344 223.174495,23.3758313 224.2475,23.7915 C225.320505,24.2071687 226.330662,24.7243302 227.278,25.343 C228.225338,25.9616698 229.153329,26.6769959 230.062,27.489 L229.163,28.794 C229.008333,29.0260012 228.766668,29.142 228.438,29.142 C228.263999,29.142 228.041668,29.040501 227.771,28.8375 C227.500332,28.634499 227.157169,28.3831682 226.7415,28.0835 C226.325831,27.7838318 225.82317,27.4551685 225.2335,27.0975 C224.64383,26.7398315 223.943004,26.4111682 223.131,26.1115 C222.318996,25.8118318 221.381339,25.560501 220.318,25.3575 C219.254661,25.154499 218.04634,25.053 216.693,25.053 C214.198988,25.053 211.90801,25.4831624 209.82,26.3435 C207.73199,27.2038376 205.934008,28.431492 204.426,30.0265 C202.917992,31.621508 201.743504,33.554822 200.9025,35.8265 C200.061496,38.098178 199.641,40.6453192 199.641,43.468 C199.641,46.3680145 200.056663,48.9586553 200.888,51.24 C201.719337,53.5213447 202.869659,55.4498255 204.339,57.0255 C205.808341,58.6011745 207.54349,59.8094958 209.5445,60.6505 C211.54551,61.4915042 213.715655,61.912 216.055,61.912 C217.524341,61.912 218.834161,61.8153343 219.9845,61.622 C221.134839,61.4286657 222.193329,61.1386686 223.16,60.752 C224.126671,60.3653314 225.025663,59.8916695 225.857,59.331 C226.688337,58.7703305 227.509996,58.1130038 228.322,57.359 C228.418667,57.2816663 228.5105,57.2188336 228.5975,57.1705 C228.6845,57.1221664 228.785999,57.098 228.902,57.098 Z M243.789875,21.805 L243.789875,64 L241.034875,64 L241.034875,21.805 L243.789875,21.805 Z M257.77875,35.145 L257.77875,53.589 C257.77875,56.2956802 258.39741,58.4174923 259.63475,59.9545 C260.87209,61.4915077 262.757071,62.26 265.28975,62.26 C267.165093,62.26 268.914742,61.7815048 270.53875,60.8245 C272.162758,59.8674952 273.62241,58.5383418 274.91775,56.837 L274.91775,35.145 L277.70175,35.145 L277.70175,64 L276.16475,64 C275.623414,64 275.343083,63.7486692 275.32375,63.246 L275.06275,58.954 C273.728743,60.616675 272.186925,61.9506616 270.43725,62.956 C268.687575,63.9613384 266.739761,64.464 264.59375,64.464 C262.989075,64.464 261.587423,64.2126692 260.38875,63.71 C259.190077,63.2073308 258.194421,62.4823381 257.40175,61.535 C256.609079,60.5876619 256.009752,59.4470067 255.60375,58.113 C255.197748,56.7789933 254.99475,55.2710084 254.99475,53.589 L254.99475,35.145 L257.77875,35.145 Z M289.109625,64 L289.109625,21.805 L291.893625,21.805 L291.893625,40.191 C293.169631,38.4896582 294.648617,37.1460049 296.330625,36.16 C298.012633,35.1739951 299.907281,34.681 302.014625,34.681 C305.552643,34.681 308.312448,35.9038211 310.294125,38.3495 C312.275802,40.7951789 313.266625,44.4733088 313.266625,49.384 C313.266625,51.4913439 312.991128,53.4584909 312.440125,55.2855 C311.889122,57.1125091 311.07713,58.6978266 310.004125,60.0415 C308.93112,61.3851734 307.616466,62.4436628 306.060125,63.217 C304.503784,63.9903372 302.710635,64.377 300.680625,64.377 C298.669948,64.377 296.939632,63.9855039 295.489625,63.2025 C294.039618,62.4194961 292.79263,61.264341 291.748625,59.737 L291.574625,63.275 C291.516625,63.7583358 291.255627,64 290.791625,64 L289.109625,64 Z M301.231625,36.885 C299.317615,36.885 297.587299,37.3779951 296.040625,38.364 C294.493951,39.3500049 293.111631,40.7226579 291.893625,42.482 L291.893625,57.707 C292.995631,59.369675 294.213618,60.5344967 295.547625,61.2015 C296.881632,61.8685033 298.418616,62.202 300.158625,62.202 C301.859967,62.202 303.348619,61.8926698 304.624625,61.274 C305.900631,60.6553302 306.968787,59.7805057 307.829125,58.6495 C308.689463,57.5184943 309.337123,56.1651745 309.772125,54.5895 C310.207127,53.0138255 310.424625,51.2786761 310.424625,49.384 C310.424625,45.0919785 309.631966,41.9358434 308.046625,39.9155 C306.461284,37.8951566 304.18964,36.885 301.231625,36.885 Z" id="Club" fill="#B3AFAF"></path>
                </g>
            </g>
        </g>
    </g>
</svg>