<?xml version="1.0" encoding="UTF-8" standalone="no"?>
<svg width="393px" height="193px" viewBox="0 0 393 193" version="1.1" xmlns="http://www.w3.org/2000/svg" xmlns:xlink="http://www.w3.org/1999/xlink">
    <!-- Generator: Sketch 50 (54983) - http://www.bohemiancoding.com/sketch -->
    <title>logo partner</title>
    <desc>Created with Sketch.</desc>
    <defs></defs>
    <g id="logo-partner" stroke="none" stroke-width="1" fill="none" fill-rule="evenodd">
        <g id="Group-11" transform="translate(32.000000, 37.000000)">
            <circle id="Oval-6" fill="#2D50C6" cx="62" cy="62" r="62"></circle>
            <circle id="Oval-6" fill="#10437D" cx="61.4414414" cy="60.3243243" r="43.5675676"></circle>
            <circle id="Oval-6" fill="#FFFFFF" cx="62" cy="60.8828829" r="26.2522523"></circle>
        </g>
        <path d="M230.016,76.072 C230.272001,76.072 230.527999,76.1199995 230.784,76.216 C231.040001,76.3120005 231.285332,76.4773322 231.52,76.712 L235.808,81.224 C233.930657,83.6773456 231.578681,85.5279938 228.752,86.776 C225.925319,88.0240062 222.581353,88.648 218.72,88.648 C215.178649,88.648 212.005347,88.0453394 209.2,86.84 C206.394653,85.6346606 204.01601,83.9706773 202.064,81.848 C200.11199,79.7253227 198.613339,77.2080146 197.568,74.296 C196.522661,71.3839854 196,68.2213504 196,64.808 C196,61.3306493 196.597327,58.1360146 197.792,55.224 C198.986673,52.3119854 200.655989,49.8000106 202.8,47.688 C204.944011,45.5759894 207.509318,43.9333392 210.496,42.76 C213.482682,41.5866608 216.778649,41 220.384,41 C222.133342,41 223.781326,41.1546651 225.328,41.464 C226.874674,41.7733349 228.319993,42.1999973 229.664,42.744 C231.008007,43.2880027 232.245328,43.9386629 233.376,44.696 C234.506672,45.4533371 235.509329,46.2906621 236.384,47.208 L232.736,52.104 C232.501332,52.4026682 232.224002,52.6746654 231.904,52.92 C231.583998,53.1653346 231.136003,53.288 230.56,53.288 C230.175998,53.288 229.813335,53.2026675 229.472,53.032 C229.130665,52.8613325 228.768002,52.6533346 228.384,52.408 C227.999998,52.1626654 227.578669,51.8960014 227.12,51.608 C226.661331,51.3199986 226.117336,51.0533346 225.488,50.808 C224.858664,50.5626654 224.122671,50.3546675 223.28,50.184 C222.437329,50.0133325 221.450672,49.928 220.32,49.928 C218.357324,49.928 216.565341,50.2746632 214.944,50.968 C213.322659,51.6613368 211.930672,52.6533269 210.768,53.944 C209.605328,55.2346731 208.69867,56.7973242 208.048,58.632 C207.39733,60.4666758 207.072,62.5253219 207.072,64.808 C207.072,67.1973453 207.39733,69.3199907 208.048,71.176 C208.69867,73.0320093 209.583994,74.5946603 210.704,75.864 C211.824006,77.1333397 213.130659,78.0986634 214.624,78.76 C216.117341,79.4213366 217.717325,79.752 219.424,79.752 C220.405338,79.752 221.301329,79.7040005 222.112,79.608 C222.922671,79.5119995 223.674663,79.3466678 224.368,79.112 C225.061337,78.8773322 225.722664,78.5733352 226.352,78.2 C226.981336,77.8266648 227.615997,77.3626694 228.256,76.808 C228.512001,76.5946656 228.789332,76.4186674 229.088,76.28 C229.386668,76.1413326 229.695998,76.072 230.016,76.072 Z M251.916,54.952 L251.916,76.008 C251.916,77.6506749 252.28933,78.9199955 253.036,79.816 C253.78267,80.7120045 254.881326,81.16 256.332,81.16 C257.420005,81.16 258.438662,80.9360022 259.388,80.488 C260.337338,80.0399978 261.259995,79.4106707 262.156,78.6 L262.156,54.952 L272.076,54.952 L272.076,88.136 L265.932,88.136 C264.69466,88.136 263.884002,87.5813389 263.5,86.472 L262.892,84.552 C262.251997,85.1706698 261.59067,85.7306642 260.908,86.232 C260.22533,86.7333358 259.494671,87.1599982 258.716,87.512 C257.937329,87.8640018 257.100004,88.1413323 256.204,88.344 C255.307995,88.5466677 254.326672,88.648 253.26,88.648 C251.446658,88.648 249.84134,88.3333365 248.444,87.704 C247.04666,87.0746635 245.868005,86.1946723 244.908,85.064 C243.947995,83.9333277 243.222669,82.6000077 242.732,81.064 C242.241331,79.5279923 241.996,77.8426758 241.996,76.008 L241.996,54.952 L251.916,54.952 Z M281.656,98.664 L281.656,54.952 L287.8,54.952 C288.41867,54.952 288.935998,55.0906653 289.352,55.368 C289.768002,55.6453347 290.061332,56.0613306 290.232,56.616 L290.968,59.048 C291.608003,58.3439965 292.295996,57.7040029 293.032,57.128 C293.768004,56.5519971 294.557329,56.0560021 295.4,55.64 C296.242671,55.2239979 297.149328,54.8986678 298.12,54.664 C299.090671,54.4293322 300.151994,54.312 301.304,54.312 C303.032009,54.312 304.631993,54.6959962 306.104,55.464 C307.576007,56.2320038 308.845328,57.3413261 309.912,58.792 C310.978672,60.2426739 311.815997,62.0186562 312.424,64.12 C313.032003,66.2213438 313.336,68.60532 313.336,71.272 C313.336,73.7680125 312.989337,76.0719894 312.296,78.184 C311.602663,80.2960106 310.632006,82.1306589 309.384,83.688 C308.135994,85.2453411 306.642675,86.461329 304.904,87.336 C303.165325,88.210671 301.240011,88.648 299.128,88.648 C297.399991,88.648 295.949339,88.4026691 294.776,87.912 C293.602661,87.4213309 292.536005,86.7600042 291.576,85.928 L291.576,98.664 L281.656,98.664 Z M297.848,61.896 C297.122663,61.896 296.46667,61.9653326 295.88,62.104 C295.29333,62.2426674 294.749336,62.4399987 294.248,62.696 C293.746664,62.9520013 293.282669,63.2773314 292.856,63.672 C292.429331,64.0666686 292.002669,64.5199974 291.576,65.032 L291.576,79.112 C292.32267,79.9440042 293.133329,80.5253317 294.008,80.856 C294.882671,81.1866683 295.799995,81.352 296.76,81.352 C297.677338,81.352 298.519996,81.1706685 299.288,80.808 C300.056004,80.4453315 300.722664,79.864004 301.288,79.064 C301.853336,78.263996 302.295998,77.2240064 302.616,75.944 C302.936002,74.6639936 303.096,73.1066758 303.096,71.272 C303.096,69.5226579 302.968001,68.0506726 302.712,66.856 C302.455999,65.6613274 302.098669,64.6960037 301.64,63.96 C301.181331,63.2239963 300.632003,62.6960016 299.992,62.376 C299.351997,62.0559984 298.637337,61.896 297.848,61.896 Z M334.756,54.44 C336.953344,54.44 338.963991,54.7813299 340.788,55.464 C342.612009,56.1466701 344.179993,57.1386602 345.492,58.44 C346.804006,59.7413398 347.827996,61.3359906 348.564,63.224 C349.300004,65.1120094 349.668,67.2506547 349.668,69.64 C349.668,70.3866704 349.636,70.9946643 349.572,71.464 C349.508,71.9333357 349.390667,72.3066653 349.22,72.584 C349.049332,72.8613347 348.820001,73.0533328 348.532,73.16 C348.243998,73.2666672 347.876002,73.32 347.428,73.32 L328.292,73.32 C328.612002,76.0933472 329.45466,78.1039938 330.82,79.352 C332.18534,80.6000062 333.945322,81.224 336.1,81.224 C337.252006,81.224 338.243996,81.0853347 339.076,80.808 C339.908004,80.5306653 340.64933,80.221335 341.3,79.88 C341.95067,79.538665 342.547997,79.2293347 343.092,78.952 C343.636003,78.6746653 344.206664,78.536 344.804,78.536 C345.593337,78.536 346.190665,78.8239971 346.596,79.4 L349.476,82.952 C348.451995,84.1253392 347.348006,85.0799963 346.164,85.816 C344.979994,86.5520037 343.764006,87.1279979 342.516,87.544 C341.267994,87.9600021 340.020006,88.2479992 338.772,88.408 C337.523994,88.5680008 336.334672,88.648 335.204,88.648 C332.878655,88.648 330.697343,88.2693371 328.66,87.512 C326.622656,86.7546629 324.841341,85.6293408 323.316,84.136 C321.790659,82.6426592 320.585338,80.7866778 319.7,78.568 C318.814662,76.3493222 318.372,73.7680147 318.372,70.824 C318.372,68.6053222 318.750663,66.5040099 319.508,64.52 C320.265337,62.5359901 321.353326,60.7973408 322.772,59.304 C324.190674,57.8106592 325.90799,56.626671 327.924,55.752 C329.94001,54.877329 332.217321,54.44 334.756,54.44 Z M334.948,61.288 C333.049324,61.288 331.566672,61.8266613 330.5,62.904 C329.433328,63.9813387 328.729335,65.5333232 328.388,67.56 L340.772,67.56 C340.772,66.7706627 340.670668,66.0026704 340.468,65.256 C340.265332,64.5093296 339.934669,63.8426696 339.476,63.256 C339.017331,62.6693304 338.41467,62.1946685 337.668,61.832 C336.92133,61.4693315 336.014672,61.288 334.948,61.288 Z M357.264,88.136 L357.264,54.952 L363.152,54.952 C363.642669,54.952 364.053332,54.9946662 364.384,55.08 C364.714668,55.1653338 364.991999,55.2986658 365.216,55.48 C365.440001,55.6613342 365.610666,55.9013318 365.728,56.2 C365.845334,56.4986682 365.946666,56.8613312 366.032,57.288 L366.576,60.392 C367.792006,58.5146573 369.157326,57.0320054 370.672,55.944 C372.186674,54.8559946 373.839991,54.312 375.632,54.312 C377.146674,54.312 378.362662,54.674663 379.28,55.4 L378,62.696 C377.914666,63.1440022 377.744001,63.4586658 377.488,63.64 C377.231999,63.8213342 376.890669,63.912 376.464,63.912 C376.101331,63.912 375.674669,63.8640005 375.184,63.768 C374.693331,63.6719995 374.07467,63.624 373.328,63.624 C370.72532,63.624 368.677341,65.0106528 367.184,67.784 L367.184,88.136 L357.264,88.136 Z" id="Cuper" fill="#324277"></path>
        <path d="M198.958,136.505 L198.958,153.035 L196,153.035 L196,112 L206.585,112 C211.399024,112 215.028821,113.053656 217.4745,115.161 C219.920179,117.268344 221.143,120.274647 221.143,124.18 C221.143,125.978009 220.809503,127.630992 220.1425,129.139 C219.475497,130.647008 218.513673,131.947161 217.257,133.0395 C216.000327,134.131839 214.473009,134.982497 212.675,135.5915 C210.876991,136.200503 208.847011,136.505 206.585,136.505 L198.958,136.505 Z M198.958,134.127 L206.585,134.127 C208.402342,134.127 210.026326,133.875669 211.457,133.373 C212.887674,132.870331 214.100828,132.174338 215.0965,131.285 C216.092172,130.395662 216.855831,129.346839 217.3875,128.1385 C217.919169,126.930161 218.185,125.610674 218.185,124.18 C218.185,121.028651 217.21351,118.602342 215.2705,116.901 C213.32749,115.199658 210.432353,114.349 206.585,114.349 L198.958,114.349 L198.958,134.127 Z M246.847875,153.035 C246.267872,153.035 245.910209,152.764336 245.774875,152.223 L245.368875,148.54 C244.576204,149.313337 243.788379,150.00933 243.005375,150.628 C242.222371,151.24667 241.405546,151.768665 240.554875,152.194 C239.704204,152.619335 238.78588,152.943166 237.799875,153.1655 C236.81387,153.387834 235.731214,153.499 234.551875,153.499 C233.56587,153.499 232.60888,153.354001 231.680875,153.064 C230.75287,152.773999 229.931212,152.329336 229.215875,151.73 C228.500538,151.130664 227.925377,150.362171 227.490375,149.4245 C227.055373,148.486829 226.837875,147.360673 226.837875,146.046 C226.837875,144.827994 227.185872,143.697005 227.881875,142.653 C228.577878,141.608995 229.665368,140.700337 231.144375,139.927 C232.623382,139.153663 234.527697,138.535002 236.857375,138.071 C239.187053,137.606998 241.985525,137.336334 245.252875,137.259 L245.252875,134.243 C245.252875,131.574987 244.677714,129.520841 243.527375,128.0805 C242.377036,126.640159 240.670886,125.92 238.408875,125.92 C237.016868,125.92 235.832713,126.113331 234.856375,126.5 C233.880037,126.886669 233.053545,127.311998 232.376875,127.776 C231.700205,128.240002 231.14921,128.665331 230.723875,129.052 C230.29854,129.438669 229.940876,129.632 229.650875,129.632 C229.264206,129.632 228.974209,129.458002 228.780875,129.11 L228.287875,128.269 C229.795883,126.760992 231.3812,125.620337 233.043875,124.847 C234.70655,124.073663 236.591531,123.687 238.698875,123.687 C240.245549,123.687 241.598869,123.933498 242.758875,124.4265 C243.918881,124.919502 244.880705,125.625162 245.644375,126.5435 C246.408045,127.461838 246.983206,128.573493 247.369875,129.8785 C247.756544,131.183507 247.949875,132.638325 247.949875,134.243 L247.949875,153.035 L246.847875,153.035 Z M235.247875,151.498 C236.369214,151.498 237.398704,151.377168 238.336375,151.1355 C239.274046,150.893832 240.144038,150.555502 240.946375,150.1205 C241.748712,149.685498 242.497872,149.168336 243.193875,148.569 C243.889878,147.969664 244.576205,147.322003 245.252875,146.626 L245.252875,139.115 C242.507528,139.192334 240.144052,139.400165 238.162375,139.7385 C236.180698,140.076835 234.547048,140.535997 233.261375,141.116 C231.975702,141.696003 231.028378,142.387163 230.419375,143.1895 C229.810372,143.991837 229.505875,144.905328 229.505875,145.93 C229.505875,146.896671 229.665373,147.73283 229.984375,148.4385 C230.303377,149.14417 230.723872,149.724164 231.245875,150.1785 C231.767878,150.632836 232.376872,150.966332 233.072875,151.179 C233.768878,151.391668 234.493871,151.498 235.247875,151.498 Z M258.37175,153.035 L258.37175,124.18 L259.82175,124.18 C260.150418,124.18 260.387249,124.247666 260.53225,124.383 C260.677251,124.518334 260.759417,124.750332 260.77875,125.079 L261.01075,131.169 C261.938755,128.829655 263.176076,126.99784 264.72275,125.6735 C266.269424,124.34916 268.173739,123.687 270.43575,123.687 C271.305754,123.687 272.10808,123.778832 272.84275,123.9625 C273.57742,124.146168 274.273413,124.411998 274.93075,124.76 L274.55375,126.674 C274.49575,126.983335 274.302418,127.138 273.97375,127.138 C273.857749,127.138 273.693418,127.099334 273.48075,127.022 C273.268082,126.944666 273.002252,126.857667 272.68325,126.761 C272.364248,126.664333 271.972752,126.577334 271.50875,126.5 C271.044748,126.422666 270.513086,126.384 269.91375,126.384 C267.729072,126.384 265.935924,127.06066 264.53425,128.414 C263.132576,129.76734 261.996754,131.719987 261.12675,134.272 L261.12675,153.035 L258.37175,153.035 Z M291.007625,153.499 C289.054949,153.499 287.532464,152.957672 286.440125,151.875 C285.347786,150.792328 284.801625,149.120011 284.801625,146.858 L284.801625,127.138 L280.654625,127.138 C280.441957,127.138 280.267959,127.080001 280.132625,126.964 C279.997291,126.847999 279.929625,126.683668 279.929625,126.471 L279.929625,125.398 L284.859625,125.05 L285.555625,114.726 C285.574958,114.551999 285.647458,114.397334 285.773125,114.262 C285.898792,114.126666 286.067957,114.059 286.280625,114.059 L287.585625,114.059 L287.585625,125.079 L296.662625,125.079 L296.662625,127.138 L287.585625,127.138 L287.585625,146.713 C287.585625,147.505671 287.687124,148.187164 287.890125,148.7575 C288.093126,149.327836 288.373457,149.796665 288.731125,150.164 C289.088793,150.531335 289.509289,150.801999 289.992625,150.976 C290.475961,151.150001 290.997956,151.237 291.558625,151.237 C292.254628,151.237 292.853956,151.135501 293.356625,150.9325 C293.859294,150.729499 294.29429,150.507168 294.661625,150.2655 C295.02896,150.023832 295.328624,149.801501 295.560625,149.5985 C295.792626,149.395499 295.976291,149.294 296.111625,149.294 C296.266292,149.294 296.420958,149.390666 296.575625,149.584 L297.329625,150.802 C296.594955,151.614004 295.662131,152.266498 294.531125,152.7595 C293.400119,153.252502 292.225631,153.499 291.007625,153.499 Z M305.5185,153.035 L305.5185,124.18 L307.0265,124.18 C307.529169,124.18 307.819166,124.421664 307.8965,124.905 L308.1575,129.255 C309.472173,127.592325 311.004325,126.253505 312.754,125.2385 C314.503675,124.223495 316.451489,123.716 318.5975,123.716 C320.182841,123.716 321.579661,123.967331 322.788,124.47 C323.996339,124.972669 324.996829,125.697662 325.7895,126.645 C326.582171,127.592338 327.181498,128.732993 327.5875,130.067 C327.993502,131.401007 328.1965,132.908992 328.1965,134.591 L328.1965,153.035 L325.4415,153.035 L325.4415,134.591 C325.4415,131.88432 324.82284,129.762508 323.5855,128.2255 C322.34816,126.688492 320.453513,125.92 317.9015,125.92 C316.006824,125.92 314.247508,126.408162 312.6235,127.3845 C310.999492,128.360838 309.549506,129.699658 308.2735,131.401 L308.2735,153.035 L305.5185,153.035 Z M349.493375,123.716 C351.117383,123.716 352.620535,123.996331 354.002875,124.557 C355.385215,125.117669 356.58387,125.934495 357.598875,127.0075 C358.61388,128.080505 359.406539,129.399992 359.976875,130.966 C360.547211,132.532008 360.832375,134.32999 360.832375,136.36 C360.832375,136.785335 360.769542,137.075333 360.643875,137.23 C360.518208,137.384667 360.320043,137.462 360.049375,137.462 L339.198375,137.462 L339.198375,138.013 C339.198375,140.178344 339.449706,142.082658 339.952375,143.726 C340.455044,145.369342 341.17037,146.746828 342.098375,147.8585 C343.02638,148.970172 344.147702,149.806331 345.462375,150.367 C346.777048,150.927669 348.246367,151.208 349.870375,151.208 C351.320382,151.208 352.577036,151.048502 353.640375,150.7295 C354.703714,150.410498 355.597871,150.052835 356.322875,149.6565 C357.047879,149.260165 357.62304,148.902502 358.048375,148.5835 C358.47371,148.264498 358.783041,148.105 358.976375,148.105 C359.22771,148.105 359.421041,148.201666 359.556375,148.395 L360.310375,149.323 C359.846373,149.903003 359.232545,150.444331 358.468875,150.947 C357.705205,151.449669 356.854546,151.879832 355.916875,152.2375 C354.979204,152.595168 353.97388,152.880332 352.900875,153.093 C351.82787,153.305668 350.750047,153.412 349.667375,153.412 C347.695365,153.412 345.897383,153.068837 344.273375,152.3825 C342.649367,151.696163 341.257381,150.695673 340.097375,149.381 C338.937369,148.066327 338.043211,146.456843 337.414875,144.5525 C336.786539,142.648157 336.472375,140.468346 336.472375,138.013 C336.472375,135.944323 336.767205,134.035175 337.356875,132.2855 C337.946545,130.535825 338.797203,129.02784 339.908875,127.7615 C341.020547,126.49516 342.383534,125.504337 343.997875,124.789 C345.612216,124.073663 347.444031,123.716 349.493375,123.716 Z M349.522375,125.775 C348.033701,125.775 346.699714,126.006998 345.520375,126.471 C344.341036,126.935002 343.321213,127.601996 342.460875,128.472 C341.600537,129.342004 340.904544,130.385994 340.372875,131.604 C339.841206,132.822006 339.488376,134.184992 339.314375,135.693 L358.338375,135.693 C358.338375,134.146326 358.12571,132.759173 357.700375,131.5315 C357.27504,130.303827 356.675712,129.264671 355.902375,128.414 C355.129038,127.563329 354.201047,126.910836 353.118375,126.4565 C352.035703,126.002164 350.837048,125.775 349.522375,125.775 Z M369.97825,153.035 L369.97825,124.18 L371.42825,124.18 C371.756918,124.18 371.993749,124.247666 372.13875,124.383 C372.283751,124.518334 372.365917,124.750332 372.38525,125.079 L372.61725,131.169 C373.545255,128.829655 374.782576,126.99784 376.32925,125.6735 C377.875924,124.34916 379.780239,123.687 382.04225,123.687 C382.912254,123.687 383.71458,123.778832 384.44925,123.9625 C385.18392,124.146168 385.879913,124.411998 386.53725,124.76 L386.16025,126.674 C386.10225,126.983335 385.908918,127.138 385.58025,127.138 C385.464249,127.138 385.299918,127.099334 385.08725,127.022 C384.874582,126.944666 384.608752,126.857667 384.28975,126.761 C383.970748,126.664333 383.579252,126.577334 383.11525,126.5 C382.651248,126.422666 382.119586,126.384 381.52025,126.384 C379.335572,126.384 377.542424,127.06066 376.14075,128.414 C374.739076,129.76734 373.603254,131.719987 372.73325,134.272 L372.73325,153.035 L369.97825,153.035 Z" id="Partner" fill="#696969"></path>
    </g>
</svg>