<?xml version="1.0" encoding="UTF-8" standalone="no"?>
<svg width="393px" height="193px" viewBox="0 0 393 193" version="1.1" xmlns="http://www.w3.org/2000/svg" xmlns:xlink="http://www.w3.org/1999/xlink">
    <!-- Generator: Sketch 50 (54983) - http://www.bohemiancoding.com/sketch -->
    <title>logo cashier</title>
    <desc>Created with Sketch.</desc>
    <defs></defs>
    <g id="logo-cashier" stroke="none" stroke-width="1" fill="none" fill-rule="evenodd">
        <g id="Group-11" transform="translate(22.000000, 35.000000)">
            <circle id="Oval-6" fill="#2D50C6" cx="62" cy="62" r="62"></circle>
            <circle id="Oval-6" fill="#10437D" cx="62" cy="61" r="44"></circle>
            <circle id="Oval-6" fill="#FFFFFF" cx="61" cy="60" r="26"></circle>
        </g>
        <path d="M219.964033,74.2763596 C220.219643,74.2763596 220.47525,74.3246388 220.73086,74.4211987 C220.98647,74.5177585 221.231426,74.6840536 221.465736,74.9200888 L225.747185,79.4583796 C223.87271,81.9260205 221.524327,83.7874521 218.701964,85.0427303 C215.879602,86.2980085 212.540744,86.9256382 208.68529,86.9256382 C205.149349,86.9256382 201.980896,86.3194659 199.179834,85.1071032 C196.378773,83.8947405 194.003764,82.2210614 192.054736,80.0860155 C190.105708,77.9509697 188.609346,75.4189936 187.565605,72.4900111 C186.521863,69.5610286 186,66.3799654 186,62.9467259 C186,59.4491131 186.596415,56.2358637 187.789262,53.3068812 C188.98211,50.3778988 190.648876,47.851287 192.789612,45.72697 C194.930347,43.6026531 197.491735,41.9504314 200.473854,40.7702553 C203.455973,39.5900792 206.746905,39 210.346748,39 C212.093418,39 213.738884,39.1555663 215.283195,39.4667037 C216.827507,39.777841 218.270617,40.2069895 219.612571,40.754162 C220.954524,41.3013346 222.189955,41.9557861 223.3189,42.7175361 C224.447845,43.4792861 225.44897,44.32149 226.322305,45.2441731 L222.679878,50.1687014 C222.445568,50.4691099 222.168662,50.7426921 221.849149,50.9894562 C221.529636,51.2362202 221.082325,51.3596004 220.507202,51.3596004 C220.123787,51.3596004 219.761678,51.2737707 219.420864,51.1021088 C219.080051,50.9304468 218.717942,50.7212369 218.334526,50.4744728 C217.951111,50.2277087 217.530426,49.9594909 217.072457,49.6698113 C216.614489,49.3801317 216.071326,49.1119139 215.442951,48.8651498 C214.814576,48.6183857 214.079707,48.4091758 213.238324,48.2375139 C212.39694,48.0658519 211.411791,47.9800222 210.282846,47.9800222 C208.323168,47.9800222 206.533923,48.3287054 204.915059,49.0260821 C203.296194,49.7234589 201.906335,50.7212292 200.745439,52.0194229 C199.584542,53.3176166 198.67927,54.8893729 198.029594,56.7347392 C197.379918,58.5801054 197.055085,60.6507469 197.055085,62.9467259 C197.055085,65.3499935 197.379918,67.4850073 198.029594,69.3518313 C198.67927,71.2186553 199.563242,72.7904117 200.681536,74.0671476 C201.799831,75.3438836 203.104488,76.314832 204.595548,76.9800222 C206.086607,77.6452124 207.684147,77.9778024 209.388215,77.9778024 C210.368054,77.9778024 211.262676,77.9295232 212.072108,77.8329634 C212.881541,77.7364035 213.632384,77.5701085 214.324662,77.3340733 C215.016939,77.098038 215.677256,76.7922697 216.305631,76.4167592 C216.934006,76.0412486 217.567697,75.5745496 218.206722,75.0166482 C218.462332,74.8020707 218.739239,74.6250469 219.037451,74.4855716 C219.335663,74.3460962 219.64452,74.2763596 219.964033,74.2763596 Z M241.830576,53.0332963 L241.830576,74.2119867 C241.830576,75.8642332 242.203335,77.14095 242.948865,78.0421754 C243.694395,78.9434007 244.791372,79.3940067 246.23983,79.3940067 C247.326173,79.3940067 248.343273,79.1687037 249.291161,78.718091 C250.239049,78.2674783 251.160297,77.6344843 252.054932,76.8190899 L252.054932,53.0332963 L261.959777,53.0332963 L261.959777,86.4106548 L255.825164,86.4106548 C254.589714,86.4106548 253.780294,85.8527618 253.396879,84.7369589 L252.789808,82.8057714 C252.150782,83.428046 251.490466,83.9913034 250.808839,84.4955605 C250.127212,84.9998175 249.397669,85.428966 248.620188,85.7830189 C247.842707,86.1370717 247.006661,86.4160182 246.112025,86.6198668 C245.21739,86.8237154 244.237565,86.9256382 243.172523,86.9256382 C241.361951,86.9256382 239.759086,86.6091412 238.36388,85.9761376 C236.968675,85.3431341 235.791821,84.4580153 234.833282,83.3207547 C233.874744,82.1834941 233.150526,80.8424051 232.660607,79.2974473 C232.170687,77.7524895 231.925731,76.0573529 231.925731,74.2119867 L231.925731,53.0332963 L241.830576,53.0332963 Z M271.525142,97 L271.525142,53.0332963 L277.659756,53.0332963 C278.27748,53.0332963 278.794018,53.1727696 279.209385,53.4517203 C279.624751,53.730671 279.917633,54.1490908 280.08804,54.7069922 L280.822916,57.1531632 C281.461941,56.4450575 282.148883,55.8013348 282.883763,55.2219756 C283.618642,54.6426164 284.406761,54.1437313 285.248145,53.7253052 C286.089528,53.3068792 286.994801,52.9796534 287.96399,52.7436182 C288.933178,52.507583 289.992879,52.3895671 291.143125,52.3895671 C292.868494,52.3895671 294.466034,52.7758008 295.935792,53.5482797 C297.405551,54.3207586 298.672932,55.4365447 299.737975,56.8956715 C300.803017,58.3547983 301.639063,60.1411289 302.246137,62.254717 C302.853211,64.3683051 303.156744,66.7661723 303.156744,69.4483907 C303.156744,71.9589471 302.81061,74.276349 302.118333,76.4006659 C301.426055,78.5249829 300.456881,80.3703214 299.210781,81.936737 C297.964682,83.5031525 296.473645,84.7262257 294.737626,85.6059933 C293.001606,86.485761 291.079234,86.9256382 288.97045,86.9256382 C287.245081,86.9256382 285.796645,86.6788778 284.625098,86.1853496 C283.453552,85.6918214 282.388525,85.0266413 281.429987,84.1897891 L281.429987,97 L271.525142,97 Z M287.692405,60.017758 C286.968176,60.017758 286.313185,60.0874947 285.727412,60.22697 C285.141638,60.3664454 284.598475,60.5649266 284.097905,60.8224195 C283.597335,61.0799125 283.134048,61.4071382 282.708031,61.8041065 C282.282014,62.2010749 281.856004,62.6570451 281.429987,63.1720311 L281.429987,77.3340733 C282.175517,78.1709254 282.984937,78.7556402 283.858272,79.0882353 C284.731606,79.4208304 285.647529,79.5871254 286.606067,79.5871254 C287.522004,79.5871254 288.363375,79.4047373 289.130205,79.0399556 C289.897036,78.6751739 290.562677,78.0904591 291.12715,77.2857936 C291.691622,76.4811281 292.133608,75.4350786 292.453121,74.1476138 C292.772634,72.8601489 292.932388,71.2937569 292.932388,69.4483907 C292.932388,67.6888554 292.804584,66.2082931 292.548974,65.0066593 C292.293364,63.8050254 291.93658,62.834077 291.478612,62.0937847 C291.020644,61.3534924 290.472155,60.8224211 289.83313,60.5005549 C289.194104,60.1786887 288.480536,60.017758 287.692405,60.017758 Z M324.54402,52.518313 C326.738007,52.518313 328.745582,52.8616318 330.566805,53.5482797 C332.388027,54.2349276 333.953616,55.2326979 335.263619,56.5416204 C336.573621,57.850543 337.596046,59.4544855 338.330925,61.3534961 C339.065805,63.2525067 339.433239,65.4036136 339.433239,67.8068812 C339.433239,68.5579024 339.401288,69.169439 339.337385,69.6415094 C339.273483,70.1135799 339.15633,70.4890848 338.985923,70.7680355 C338.815516,71.0469862 338.586536,71.2401031 338.298974,71.3473918 C338.011413,71.4546805 337.643979,71.5083241 337.196661,71.5083241 L318.089895,71.5083241 C318.409408,74.2978312 319.250779,76.3201935 320.614033,77.5754717 C321.977287,78.8307499 323.734581,79.4583796 325.885967,79.4583796 C327.036213,79.4583796 328.026687,79.3189063 328.85742,79.0399556 C329.688153,78.7610049 330.428347,78.4498722 331.078023,78.1065483 C331.727699,77.7632243 332.324113,77.4520917 332.867285,77.173141 C333.410457,76.8941902 333.980246,76.754717 334.57667,76.754717 C335.364801,76.754717 335.961216,77.0443922 336.365932,77.6237514 L339.241532,81.1964484 C338.219091,82.3766245 337.116789,83.3368442 335.934592,84.0771365 C334.752395,84.8174288 333.538265,85.3967793 332.292165,85.8152053 C331.046065,86.2336314 329.799984,86.5233066 328.553885,86.6842397 C327.307785,86.8451728 326.120281,86.9256382 324.991336,86.9256382 C322.669543,86.9256382 320.491564,86.5447689 318.457333,85.7830189 C316.423102,85.0212689 314.644508,83.8893897 313.121497,82.3873474 C311.598486,80.8853051 310.395007,79.0185091 309.511021,76.7869034 C308.627036,74.5552978 308.18505,71.9589493 308.18505,68.9977802 C308.18505,66.7661746 308.563135,64.6526182 309.319315,62.6570477 C310.075495,60.6614773 311.161822,58.9126971 312.578328,57.4106548 C313.994835,55.9086125 315.709527,54.7177254 317.722457,53.8379578 C319.735388,52.9581902 322.009219,52.518313 324.54402,52.518313 Z M324.735727,59.4062153 C322.839951,59.4062153 321.359564,59.9480153 320.294522,61.0316315 C319.22948,62.1152477 318.526562,63.6762754 318.185749,65.7147614 L330.550829,65.7147614 C330.550829,64.9208247 330.449652,64.1483574 330.247294,63.3973363 C330.044936,62.6463151 329.714778,61.9757706 329.256809,61.3856826 C328.798841,60.7955945 328.197101,60.3181668 327.451571,59.9533851 C326.706042,59.5886034 325.800769,59.4062153 324.735727,59.4062153 Z M347.017634,86.4106548 L347.017634,53.0332963 L352.896639,53.0332963 C353.386559,53.0332963 353.796594,53.0762112 354.126757,53.1620422 C354.45692,53.2478732 354.733827,53.3819821 354.957486,53.5643729 C355.181145,53.7467638 355.351549,53.9881598 355.468704,54.2885683 C355.585858,54.5889767 355.687036,54.9537529 355.772239,55.3829079 L356.315408,58.5049945 C357.529556,56.6167127 358.89279,55.1254217 360.405151,54.0310766 C361.917511,52.9367315 363.568302,52.3895671 365.357573,52.3895671 C366.869933,52.3895671 368.084064,52.7543434 369,53.4839068 L367.721955,60.8224195 C367.636752,61.2730322 367.466348,61.5895292 367.210738,61.7719201 C366.955127,61.9543109 366.614319,62.045505 366.188302,62.045505 C365.826188,62.045505 365.400177,61.9972258 364.910258,61.9006659 C364.420338,61.8041061 363.802623,61.7558269 363.057093,61.7558269 C360.458389,61.7558269 358.413539,63.1505595 356.922479,65.9400666 L356.922479,86.4106548 L347.017634,86.4106548 Z" id="Cuper" fill="#324277"></path>
        <path d="M218.348159,140.575119 C218.541746,140.575119 218.706292,140.643326 218.841803,140.779742 L220.003317,142.03671 C219.151535,142.952645 218.222334,143.775999 217.215683,144.506798 C216.209033,145.237597 215.110446,145.861203 213.919888,146.377634 C212.72933,146.894066 211.42264,147.293563 209.999779,147.576139 C208.576917,147.858714 207.013729,148 205.310167,148 C202.464444,148 199.855904,147.498192 197.484468,146.494562 C195.113032,145.490931 193.080403,144.06833 191.38652,142.226717 C189.692637,140.385103 188.371429,138.158635 187.422854,135.547247 C186.47428,132.935858 186,130.032194 186,126.836166 C186,123.698602 186.488799,120.833913 187.466411,118.242012 C188.444024,115.650112 189.818468,113.423644 191.589785,111.562542 C193.361103,109.701441 195.480844,108.259352 197.949073,107.236234 C200.417302,106.213115 203.141993,105.701564 206.123227,105.701564 C207.613843,105.701564 208.978608,105.813618 210.217563,106.037729 C211.456517,106.261841 212.61318,106.583388 213.687585,107.002379 C214.761991,107.421371 215.773466,107.942666 216.72204,108.566281 C217.670614,109.189897 218.599816,109.910941 219.509673,110.729436 L218.6095,112.044867 C218.454631,112.278723 218.212651,112.395649 217.883554,112.395649 C217.709326,112.395649 217.486705,112.293339 217.215683,112.088715 C216.944662,111.884091 216.601051,111.630752 216.18484,111.328688 C215.768629,111.026624 215.265311,110.695334 214.674872,110.334806 C214.084433,109.974279 213.382692,109.642988 212.569628,109.340925 C211.756564,109.038861 210.817684,108.785521 209.752957,108.580897 C208.688231,108.376274 207.478333,108.273963 206.123227,108.273963 C203.625959,108.273963 201.331993,108.707564 199.241257,109.574779 C197.150522,110.441994 195.350194,111.679462 193.840218,113.28722 C192.330243,114.894977 191.154222,116.843746 190.31212,119.133583 C189.470018,121.42342 189.048974,123.990922 189.048974,126.836166 C189.048974,129.759362 189.465179,132.370711 190.297601,134.670292 C191.130023,136.969873 192.281846,138.91377 193.753105,140.502039 C195.224363,142.090309 196.961776,143.308289 198.965398,144.156016 C200.969019,145.003743 203.141996,145.4276 205.484394,145.4276 C206.955652,145.4276 208.267182,145.330162 209.419022,145.135282 C210.570862,144.940402 211.630733,144.648087 212.598666,144.258328 C213.566599,143.868568 214.466763,143.39112 215.299186,142.825969 C216.131608,142.260817 216.954339,141.598236 217.767402,140.838205 C217.864196,140.760253 217.956148,140.696918 218.043262,140.648199 C218.130376,140.599479 218.232007,140.575119 218.348159,140.575119 Z M248.12284,147.532291 C247.54208,147.532291 247.18395,147.259463 247.048439,146.7138 L246.64191,143.00136 C245.848205,143.780879 245.059351,144.482435 244.275325,145.10605 C243.491299,145.729665 242.673408,146.255833 241.821627,146.684568 C240.969846,147.113304 240.050324,147.439722 239.063032,147.663834 C238.07574,147.887946 236.991672,148 235.810793,148 C234.823502,148 233.865262,147.853842 232.936047,147.561523 C232.006831,147.269203 231.1841,146.820986 230.46783,146.216859 C229.751559,145.612732 229.175648,144.838097 228.740078,143.89293 C228.304508,142.947763 228.086727,141.812606 228.086727,140.487424 C228.086727,139.259681 228.435177,138.119652 229.132089,137.067301 C229.829001,136.014951 230.917909,135.09903 232.398847,134.319511 C233.879784,133.539992 235.786584,132.916386 238.119302,132.448674 C240.452021,131.980963 243.254145,131.708135 246.525758,131.630184 L246.525758,128.590075 C246.525758,125.900734 245.949847,123.830168 244.798006,122.378314 C243.646166,120.92646 241.93779,120.200544 239.672827,120.200544 C238.279003,120.200544 237.093303,120.395421 236.115691,120.78518 C235.138078,121.17494 234.310508,121.603669 233.632955,122.07138 C232.955402,122.539091 232.403688,122.96782 231.977798,123.35758 C231.551907,123.747339 231.193777,123.942216 230.903398,123.942216 C230.516224,123.942216 230.225849,123.766827 230.032262,123.416044 L229.538619,122.568321 C231.048594,121.048259 232.635981,119.898486 234.300825,119.118967 C235.96567,118.339448 237.853111,117.949694 239.963205,117.949694 C241.511898,117.949694 242.866984,118.198162 244.028504,118.695105 C245.190023,119.192049 246.153102,119.903349 246.917769,120.829028 C247.682436,121.754707 248.258348,122.875248 248.645521,124.190687 C249.032694,125.506125 249.226278,126.972573 249.226278,128.590075 L249.226278,147.532291 L248.12284,147.532291 Z M236.507702,145.983005 C237.630504,145.983005 238.661337,145.861207 239.600232,145.617607 C240.539127,145.374007 241.410254,145.032973 242.213638,144.594494 C243.017023,144.156014 243.767159,143.634719 244.464071,143.030591 C245.160983,142.426464 245.848205,141.773627 246.525758,141.07206 L246.525758,133.50102 C243.776828,133.578972 241.410268,133.788464 239.426005,134.129504 C237.441742,134.470543 235.80596,134.933376 234.518609,135.518015 C233.231258,136.102654 232.282698,136.799339 231.6729,137.60809 C231.063103,138.416841 230.758208,139.337634 230.758208,140.370496 C230.758208,141.344895 230.917915,142.187737 231.237333,142.899048 C231.556751,143.610359 231.977795,144.19499 232.500479,144.652957 C233.023163,145.110925 233.632952,145.447087 234.329863,145.661455 C235.026775,145.875823 235.752714,145.983005 236.507702,145.983005 Z M275.574492,122.042148 C275.438982,122.31498 275.22604,122.451394 274.93566,122.451394 C274.722715,122.451394 274.446858,122.329596 274.108081,122.085996 C273.769305,121.842396 273.324062,121.569569 272.77234,121.267505 C272.220619,120.965441 271.543076,120.692614 270.739691,120.449014 C269.936307,120.205415 268.95387,120.083617 267.79235,120.083617 C266.746982,120.083617 265.793583,120.234646 264.932122,120.53671 C264.070662,120.838773 263.335044,121.243143 262.725246,121.74983 C262.115448,122.256517 261.641168,122.84602 261.302392,123.518355 C260.963615,124.19069 260.794229,124.897118 260.794229,125.637661 C260.794229,126.553596 261.02653,127.313616 261.491138,127.917743 C261.955745,128.52187 262.565534,129.038294 263.320522,129.467029 C264.07551,129.895765 264.932117,130.266031 265.890371,130.577838 C266.848625,130.889646 267.831062,131.201449 268.837712,131.513256 C269.844363,131.825064 270.8268,132.17097 271.785054,132.550986 C272.743307,132.931001 273.599915,133.403578 274.354903,133.968729 C275.109891,134.53388 275.719679,135.225693 276.184287,136.044188 C276.648895,136.862683 276.881195,137.856554 276.881195,139.025833 C276.881195,140.292551 276.653735,141.471556 276.198806,142.562882 C275.743878,143.654209 275.085693,144.599362 274.224233,145.398368 C273.362772,146.197375 272.302901,146.830725 271.044589,147.298436 C269.786276,147.766148 268.353756,148 266.746988,148 C264.714328,148 262.962396,147.673581 261.491138,147.020734 C260.019879,146.367887 258.70351,145.515301 257.541991,144.46295 L258.209861,143.469069 C258.306654,143.313165 258.413125,143.196239 258.529277,143.118287 C258.645429,143.040335 258.809975,143.00136 259.022921,143.00136 C259.274583,143.00136 259.584317,143.157261 259.952132,143.469069 C260.319946,143.780876 260.799066,144.117039 261.389505,144.477566 C261.979944,144.838094 262.715562,145.174256 263.596381,145.486064 C264.4772,145.797871 265.566109,145.953773 266.863139,145.953773 C268.082734,145.953773 269.157124,145.783256 270.08634,145.442216 C271.015555,145.101177 271.78989,144.638344 272.409367,144.053705 C273.028844,143.469066 273.498285,142.782125 273.817703,141.992862 C274.137121,141.203599 274.296827,140.370501 274.296827,139.493542 C274.296827,138.519143 274.064527,137.710404 273.599919,137.067301 C273.135311,136.424198 272.525522,135.878543 271.770535,135.43032 C271.015547,134.982096 270.158939,134.602086 269.200685,134.290279 C268.242432,133.978471 267.255155,133.666668 266.238825,133.354861 C265.222496,133.043053 264.235219,132.702019 263.276965,132.331747 C262.318711,131.961476 261.462103,131.493771 260.707116,130.92862 C259.952128,130.363469 259.342339,129.676528 258.877732,128.867777 C258.413124,128.059026 258.180823,127.050539 258.180823,125.842284 C258.180823,124.809422 258.403444,123.81555 258.848694,122.860639 C259.293943,121.905728 259.927929,121.067758 260.750673,120.346703 C261.573416,119.625648 262.575211,119.050761 263.756089,118.622026 C264.936968,118.19329 266.263016,117.978926 267.734274,117.978926 C269.495912,117.978926 271.059101,118.232266 272.423886,118.738953 C273.788672,119.24564 275.042126,120.025148 276.184287,121.077498 L275.574492,122.042148 Z M286.358422,147.532291 L286.358422,105 L289.117017,105 L289.117017,123.416044 C290.452765,121.759566 291.977237,120.439275 293.690478,119.455133 C295.403719,118.47099 297.325038,117.978926 299.45449,117.978926 C301.0419,117.978926 302.440543,118.232266 303.650459,118.738953 C304.860375,119.24564 305.862171,119.976428 306.655876,120.931339 C307.449581,121.88625 308.04969,123.036023 308.456222,124.380693 C308.862754,125.725364 309.066017,127.245403 309.066017,128.940857 L309.066017,147.532291 L306.307422,147.532291 L306.307422,128.940857 C306.307422,126.21254 305.687954,124.073767 304.449,122.524473 C303.210045,120.975179 301.312925,120.200544 298.757582,120.200544 C296.860433,120.200544 295.098822,120.692608 293.472694,121.676751 C291.846567,122.660893 290.394689,124.010415 289.117017,125.725357 L289.117017,147.532291 L286.358422,147.532291 Z M323.073147,118.446635 L323.073147,147.532291 L320.314552,147.532291 L320.314552,118.446635 L323.073147,118.446635 Z M324.292737,108.420122 C324.292737,108.770906 324.220143,109.097325 324.074953,109.399388 C323.929763,109.701452 323.741019,109.969407 323.508715,110.203263 C323.276411,110.437119 323.005394,110.622252 322.695655,110.758668 C322.385917,110.895083 322.056825,110.96329 321.708369,110.96329 C321.359913,110.96329 321.03082,110.895083 320.721082,110.758668 C320.411343,110.622252 320.140326,110.437119 319.908022,110.203263 C319.675718,109.969407 319.491814,109.701452 319.356303,109.399388 C319.220793,109.097325 319.153038,108.770906 319.153038,108.420122 C319.153038,108.069339 319.220793,107.733176 319.356303,107.411625 C319.491814,107.090073 319.675718,106.812374 319.908022,106.578518 C320.140326,106.344662 320.411343,106.159529 320.721082,106.023114 C321.03082,105.886698 321.359913,105.818491 321.708369,105.818491 C322.056825,105.818491 322.385917,105.886698 322.695655,106.023114 C323.005394,106.159529 323.276411,106.344662 323.508715,106.578518 C323.741019,106.812374 323.929763,107.090073 324.074953,107.411625 C324.220143,107.733176 324.292737,108.069339 324.292737,108.420122 Z M345.907783,117.978926 C347.53391,117.978926 349.039023,118.261497 350.423168,118.826649 C351.807312,119.3918 353.007531,120.215154 354.02386,121.296737 C355.04019,122.378319 355.833883,123.708354 356.404964,125.28688 C356.976044,126.865406 357.26158,128.67776 357.26158,130.723997 C357.26158,131.152733 357.198665,131.445048 357.072834,131.600952 C356.947003,131.756856 356.74858,131.834806 356.477558,131.834806 L335.599348,131.834806 L335.599348,132.390211 C335.599348,134.572864 335.851007,136.492401 336.354332,138.148878 C336.857657,139.805356 337.573917,141.193853 338.503132,142.314412 C339.432348,143.43497 340.555133,144.277813 341.871522,144.842964 C343.187911,145.408115 344.659147,145.690687 346.285275,145.690687 C347.737174,145.690687 348.995468,145.529913 350.060195,145.208362 C351.124921,144.88681 352.020245,144.526288 352.746195,144.126785 C353.472145,143.727281 354.048056,143.366759 354.473947,143.045207 C354.899838,142.723656 355.209571,142.562882 355.403158,142.562882 C355.654821,142.562882 355.848404,142.660321 355.983915,142.855201 L356.738899,143.790619 C356.274291,144.375258 355.659663,144.920913 354.894996,145.4276 C354.130329,145.934288 353.27856,146.367889 352.339665,146.728416 C351.40077,147.088944 350.394135,147.376387 349.31973,147.590755 C348.245324,147.805122 347.166095,147.912305 346.08201,147.912305 C344.107426,147.912305 342.307098,147.566398 340.680971,146.874575 C339.054843,146.182752 337.661041,145.174265 336.499521,143.849082 C335.338001,142.5239 334.442677,140.90155 333.81352,138.981985 C333.184364,137.06242 332.86979,134.865183 332.86979,132.390211 C332.86979,130.304998 333.165005,128.380589 333.755445,126.616927 C334.345884,124.853266 335.197652,123.333226 336.310775,122.056764 C337.423898,120.780302 338.788663,119.781558 340.405111,119.060503 C342.021559,118.339448 343.855765,117.978926 345.907783,117.978926 Z M345.936821,120.054385 C344.446204,120.054385 343.110476,120.288237 341.929598,120.755948 C340.74872,121.22366 339.727566,121.895985 338.866105,122.772944 C338.004645,123.649902 337.307744,124.702237 336.77538,125.92998 C336.243017,127.157722 335.889727,128.531604 335.715499,130.051666 L354.764325,130.051666 C354.764325,128.492628 354.551383,127.094386 354.125493,125.8569 C353.699602,124.619414 353.099493,123.571951 352.325146,122.71448 C351.5508,121.857009 350.621598,121.1993 349.537513,120.741332 C348.453428,120.283365 347.253209,120.054385 345.936821,120.054385 Z M366.419391,147.532291 L366.419391,118.446635 L367.871283,118.446635 C368.20038,118.446635 368.43752,118.514842 368.58271,118.651258 C368.7279,118.787673 368.810173,119.021526 368.829532,119.352821 L369.061834,125.491502 C369.99105,123.133458 371.229986,121.287 372.778679,119.952073 C374.327371,118.617147 376.234171,117.949694 378.499134,117.949694 C379.370274,117.949694 380.173646,118.042261 380.909275,118.227396 C381.644904,118.412532 382.341806,118.680488 383,119.031271 L382.622508,120.960571 C382.564432,121.272379 382.370848,121.42828 382.041751,121.42828 C381.925599,121.42828 381.761053,121.389305 381.548108,121.311353 C381.335162,121.233401 381.068985,121.145706 380.749567,121.048266 C380.430149,120.950827 380.038142,120.863132 379.573534,120.78518 C379.108926,120.707228 378.576571,120.668253 377.976453,120.668253 C375.788924,120.668253 373.993435,121.350322 372.589933,122.71448 C371.18643,124.078638 370.049125,126.046894 369.177986,128.619307 L369.177986,147.532291 L366.419391,147.532291 Z" id="Cashier" fill="#696969"></path>
    </g>
</svg>