<?xml version="1.0" encoding="iso-8859-1"?>
<!-- Generator: Adobe Illustrator 19.0.0, SVG Export Plug-In . SVG Version: 6.00 Build 0)  -->
<svg version="1.1" id="Capa_1" xmlns="http://www.w3.org/2000/svg" xmlns:xlink="http://www.w3.org/1999/xlink" x="0px" y="0px"
	 viewBox="0 0 512.001 512.001" style="enable-background:new 0 0 512.001 512.001;" xml:space="preserve">
<path style="fill:#FCD2BE;" d="M450.706,38.671v76.783c0,35.188-28.538,63.725-63.735,63.725c-9.428,0-18.369-2.048-26.419-5.718
	v-0.01c-19.474-8.881-33.698-27.28-36.708-49.259c-2.828-0.993-5.484-2.616-7.755-4.886c-8.029-8.019-8.029-21.036,0-29.054
	c8.019-8.039,21.046-8.039,29.075,0l5.353-30.687l3.65-20.894L450.706,38.671L450.706,38.671z"/>
<path style="fill:#FAB998;" d="M360.552,173.451c-19.474-8.881-33.698-27.28-36.708-49.259c-2.828-0.993-5.484-2.616-7.755-4.886
	c-8.029-8.019-8.029-21.036,0-29.054c8.019-8.039,21.046-8.039,29.075,0l5.353-30.687l16.778,3.406
	C360.237,75.167,330.443,119.681,360.552,173.451z"/>
<path style="fill:#F9CE55;" d="M480.5,7.599c0,30.585-24.797,55.372-55.372,55.372h-57.835v5.14c0,12.226-9.915,22.13-22.141,22.13
	c-5.92-5.92-14.568-7.471-21.907-4.653V62.971c0-30.575,24.797-55.372,55.372-55.372C378.617,7.599,480.5,7.599,480.5,7.599z"/>
<path style="fill:#E2A11E;" d="M423.81,7.599h-45.193c-30.575,0-55.372,24.797-55.372,55.372v22.617
	c7.34-2.818,15.987-1.267,21.907,4.653c12.226,0,22.141-9.904,22.141-22.13v-5.14h1.145C368.438,32.396,393.234,7.599,423.81,7.599z
	"/>
<path style="fill:#00C7A9;" d="M436.371,332.582c0,0-39.071,19.535-78.628,11.891c-14.801-2.849-29.673-9.509-42.588-22.424
	c0,0,12.378-82.916,35.573-131.374c3.082-6.437,6.356-12.267,9.823-17.214l14.426,1.115l29.156,2.261
	c0,4.055,0.517,11.993,1.581,22.343C409.324,234.581,419.238,298.327,436.371,332.582z"/>
<path style="fill:#04AF92;" d="M357.743,344.473c-14.801-2.849-29.673-9.509-42.588-22.424c0,0,15.886-106.425,45.396-148.588
	l14.426,1.115l4.177,4.126C368.358,200.873,343.074,286.668,357.743,344.473z"/>
<path style="fill:#FCD2BE;" d="M326.718,38.672v76.783c0,35.188-28.537,63.725-63.735,63.725c-9.428,0-18.369-2.048-26.419-5.718
	v-0.01c-19.474-8.881-33.698-27.28-36.708-49.259c-2.828-0.993-5.484-2.616-7.755-4.886c-8.029-8.019-8.029-21.036,0-29.054
	c8.019-8.039,21.046-8.039,29.075,0l5.353-30.687l3.65-20.894C230.177,38.672,326.718,38.672,326.718,38.672z"/>
<path style="fill:#FAB998;" d="M236.564,173.452c-19.474-8.881-33.698-27.28-36.708-49.259c-2.828-0.993-5.484-2.616-7.755-4.886
	c-8.029-8.019-8.029-21.036,0-29.054c8.019-8.039,21.046-8.039,29.075,0l5.353-30.687l16.778,3.406
	C236.25,75.168,206.455,119.682,236.564,173.452z"/>
<path style="fill:#50515B;" d="M199.596,59.627v25.841c7.269-2.656,15.734-1.054,21.573,4.785V74.833
	c4.227,0,7.867-0.598,11.02-1.642c18.765-6.143,19.829-27.544,19.829-27.544c20.326,20.316,74.694,13.98,74.694,13.98
	c0-14.355-5.819-27.351-15.227-36.759c-9.398-9.398-22.394-15.217-36.749-15.217h-23.165
	C222.872,7.651,199.596,30.917,199.596,59.627z"/>
<path style="fill:#393A42;" d="M199.596,59.627v25.841c7.269-2.656,15.734-1.054,21.573,4.785V74.833
	c4.227,0,7.867-0.598,11.02-1.642c-5.535-29.947,7.958-65.54,33.302-65.54h-13.919C222.872,7.651,199.596,30.917,199.596,59.627z"/>
<path style="fill:#369AB2;" d="M312.375,332.583c0,0-39.071,19.535-78.628,11.891c-14.801-2.849-29.673-9.509-42.588-22.424
	c0,0,15.886-106.425,45.396-148.588l14.426,1.115l29.156,2.261C280.138,194.761,290.235,288.312,312.375,332.583z"/>
<path style="fill:#025970;" d="M233.748,344.474c-14.801-2.849-29.673-9.509-42.588-22.424c0,0,15.886-106.425,45.396-148.588
	l14.426,1.115l4.177,4.126C244.362,200.874,219.079,286.669,233.748,344.474z"/>
<path style="fill:#3FACC9;" d="M201.21,61.655c5.205-19.262,3.176-54.002-50.552-54.002S44.212,11.981,33.061,91.054
	s40.722,153.079,40.722,153.079"/>
<path style="fill:#369AB2;" d="M73.784,244.133l15.5-22.201C85.331,177.407,73.642,13.329,115.693,9.041
	C75.7,13.197,41.749,29.417,33.061,91.054C21.909,170.128,73.784,244.133,73.784,244.133z"/>
<path style="fill:#FCD2BE;" d="M66.596,119.308c2.271,2.271,4.927,3.893,7.755,4.886c3.568,26.054,22.881,47.079,48.032,53.182
	c4.836,1.186,9.894,1.805,15.095,1.805c35.198,0,63.735-28.537,63.735-63.725V61.655c0,0-28.254,1.014-39.405-10.138
	c-16.19,21.015-37.225,23.945-51.175,23.033c0-0.01,0-0.01,0-0.01c-8.931-0.588-14.963-2.747-14.963-2.747v18.461l-0.01-0.01
	c-5.92-5.92-14.568-7.471-21.907-4.653c-2.605,0.993-5.049,2.555-7.157,4.663C58.567,98.272,58.567,111.289,66.596,119.308z"/>
<path style="fill:#FAB998;" d="M66.596,119.308c2.271,2.271,4.927,3.893,7.755,4.886c3.568,26.054,22.881,47.079,48.032,53.182
	C89.284,159.22,110.35,75.676,110.634,74.55c0-0.01,0-0.01,0-0.01c-8.931-0.588-14.963-2.747-14.963-2.747v18.461l-0.01-0.01
	c-5.92-5.92-14.568-7.471-21.907-4.653c-2.605,0.993-5.049,2.555-7.157,4.663C58.567,98.272,58.567,111.289,66.596,119.308z"/>
<path style="fill:#EF4A6E;" d="M201.038,371.867c-44.2,10.117-81.973,9.043-107.875,5.748c-23.388-2.98-37.094-7.776-37.094-7.776
	c0-134.831,52.229-197.715,52.229-197.715l11.587,1.277l33.667,3.731C160.294,253.703,201.038,371.867,201.038,371.867z"/>
<path style="fill:#D8254F;" d="M93.163,377.615c-23.388-2.98-37.094-7.776-37.094-7.776c0-134.831,52.229-197.715,52.229-197.715
	l11.587,1.277l2.494,3.974C122.38,177.376,75.382,278.094,93.163,377.615z"/>
<path d="M480.496,0H378.618c-16.82,0-32.634,6.55-44.529,18.444c-2.969,2.969-2.969,7.783,0,10.752c2.97,2.969,7.784,2.969,10.753,0
	c9.021-9.021,21.015-13.99,33.775-13.99h93.67c-3.652,22.738-23.409,40.162-47.16,40.162H367.29c-4.2,0-7.603,3.404-7.603,7.603
	v5.137c0,7.449-5.8,13.806-13.203,14.473c-4.182,0.376-7.267,4.072-6.891,8.254c0.356,3.951,3.673,6.922,7.564,6.922
	c0.229,0,0.458-0.01,0.691-0.031c14.593-1.314,25.788-12.789,26.947-27.151h50.331c34.722,0,62.971-28.249,62.971-62.972
	C488.099,3.404,484.696,0,480.496,0z"/>
<path d="M403.916,100.561V90.02c0-4.199-3.403-7.603-7.603-7.603s-7.603,3.404-7.603,7.603v10.541c0,4.199,3.403,7.603,7.603,7.603
	S403.916,104.76,403.916,100.561z"/>
<path d="M431.324,100.561V90.02c0-4.199-3.403-7.603-7.603-7.603s-7.603,3.404-7.603,7.603v10.541c0,4.199,3.403,7.603,7.603,7.603
	S431.324,104.76,431.324,100.561z"/>
<path d="M379.725,129.596c-2.084-3.646-6.73-4.912-10.374-2.828c-3.646,2.083-4.913,6.728-2.828,10.374
	c6.519,11.405,17.681,17.845,32.284,18.625c0.138,0.007,0.275,0.011,0.412,0.011c4.012,0,7.369-3.144,7.585-7.198
	c0.224-4.193-2.994-7.774-7.188-7.998C390.168,140.077,383.661,136.483,379.725,129.596z"/>
<path d="M450.706,72.014c-4.2,0-7.603,3.404-7.603,7.603v35.837c0,30.946-25.181,56.122-56.131,56.122
	c-17.141,0-33.121-7.685-43.844-21.085c-2.623-3.279-7.409-3.811-10.686-1.186c-3.279,2.624-3.811,7.409-1.186,10.687
	c13.623,17.026,33.933,26.791,55.716,26.791c39.336,0,71.338-31.997,71.338-71.329V79.617
	C458.309,75.418,454.905,72.014,450.706,72.014z"/>
<path d="M413.279,198.409c-0.426-4.178-4.145-7.222-8.335-6.793c-4.178,0.426-7.219,4.158-6.792,8.335
	c1.479,14.507,9.479,85.566,28.048,128.748c-12.341,4.86-39.738,13.577-67.018,8.307c-7.13-1.373-13.86-3.645-20.004-6.755
	c-3.745-1.897-8.32-0.397-10.218,3.349c-1.897,3.747-0.397,8.321,3.349,10.218c1.998,1.012,4.049,1.942,6.139,2.804
	c5.698,13.589,30.384,81.387-9.138,154.143c-1.279,2.356-1.224,5.212,0.147,7.516c1.372,2.304,3.854,3.716,6.535,3.716h26.351
	c4.2,0,7.603-3.404,7.603-7.603c0-4.199-3.403-7.603-7.603-7.603H348.33c19.396-41.725,19.964-80.81,16.701-107.139
	c-1.944-15.685-5.381-28.592-8.365-37.65c6.89,1.306,13.739,1.855,20.375,1.855c11.827,0,22.974-1.738,32.51-4.008
	c7.282,18.99,26.582,82.781-10.43,150.915c-1.279,2.356-1.224,5.212,0.147,7.516c1.372,2.304,3.854,3.716,6.535,3.716h26.351
	c4.2,0,7.603-3.404,7.603-7.603s-3.403-7.603-7.603-7.603h-14.013c19.395-41.725,19.963-80.81,16.7-107.139
	c-2.461-19.849-7.309-35.247-10.607-44.024c9.131-3.09,14.923-5.939,15.541-6.248c1.803-0.902,3.175-2.484,3.813-4.397
	c0.638-1.913,0.489-4.001-0.413-5.805C427.82,298.487,417.474,239.552,413.279,198.409z"/>
<path d="M354.012,183.817c-3.788-1.813-8.329-0.212-10.141,3.576c-15.021,31.381-25.554,76.061-31.745,108.016
	c-0.799,4.123,1.896,8.112,6.019,8.911c0.489,0.094,0.975,0.14,1.455,0.14c3.569,0,6.753-2.524,7.456-6.159
	c4.93-25.447,15.452-72.839,30.532-104.343C359.4,190.17,357.799,185.629,354.012,183.817z"/>
<path d="M219.324,188.564c-14.292,30.385-24.457,72.857-30.469,103.136c-0.818,4.119,1.858,8.12,5.977,8.938
	c0.499,0.099,0.997,0.147,1.488,0.147c3.554,0,6.731-2.505,7.45-6.124c5.846-29.447,15.677-70.633,29.314-99.625
	c1.787-3.8,0.155-8.329-3.645-10.116C225.64,183.134,221.112,184.765,219.324,188.564z"/>
<path d="M297.4,254.486c-0.775-4.128-4.755-6.845-8.875-6.072c-4.127,0.773-6.846,4.746-6.072,8.873
	c5.625,30.016,12.256,53.983,19.748,71.411c-15.66,6.161-55.551,18.527-88.613,0.726c-3.697-1.992-8.308-0.607-10.299,3.09
	s-0.607,8.308,3.09,10.299c2.668,1.437,5.366,2.7,8.08,3.823c5.706,13.613,30.369,81.396-9.142,154.132
	c-1.279,2.356-1.224,5.212,0.147,7.516c1.372,2.304,3.854,3.716,6.535,3.716h26.351c4.2,0,7.603-3.404,7.603-7.603
	c0-4.199-3.403-7.603-7.603-7.603h-14.013c19.395-41.725,19.963-80.81,16.7-107.139c-1.941-15.659-5.369-28.549-8.349-37.605
	c6.881,1.31,13.722,1.858,20.355,1.858c11.828,0,22.983-1.748,32.526-4.029c7.289,19.023,26.554,82.786-10.441,150.888
	c-1.279,2.356-1.224,5.212,0.147,7.516c1.372,2.304,3.854,3.716,6.535,3.716h26.352c4.2,0,7.603-3.404,7.603-7.603
	c0-4.199-3.403-7.603-7.603-7.603h-14.014c19.396-41.725,19.964-80.81,16.701-107.139c-2.459-19.838-7.303-35.228-10.602-44.009
	c9.029-3.065,14.795-5.894,15.531-6.262c1.803-0.902,3.176-2.484,3.814-4.396c0.638-1.913,0.489-4.001-0.413-5.805
	C311.037,312.907,303.508,287.077,297.4,254.486z"/>
<path d="M280.938,191.586c-4.178,0.426-7.219,4.158-6.792,8.335c0.991,9.722,2.336,20.41,3.889,30.909
	c0.559,3.777,3.805,6.492,7.511,6.492c0.37,0,0.745-0.027,1.122-0.083c4.154-0.614,7.023-4.48,6.408-8.634
	c-1.52-10.277-2.834-20.728-3.804-30.226C288.847,194.202,285.123,191.16,280.938,191.586z"/>
<path d="M279.925,100.562V90.021c0-4.199-3.403-7.603-7.603-7.603c-4.2,0-7.603,3.404-7.603,7.603v10.541
	c0,4.199,3.403,7.603,7.603,7.603C276.522,108.166,279.925,104.761,279.925,100.562z"/>
<path d="M292.123,90.021v10.541c0,4.199,3.403,7.603,7.603,7.603s7.603-3.404,7.603-7.603V90.021c0-4.199-3.403-7.603-7.603-7.603
	S292.123,85.822,292.123,90.021z"/>
<path d="M255.733,129.598c-2.083-3.647-6.728-4.913-10.373-2.829c-3.647,2.083-4.914,6.727-2.829,10.374
	c6.518,11.405,17.68,17.846,32.284,18.626c0.138,0.007,0.275,0.011,0.412,0.011c4.013,0,7.369-3.144,7.585-7.198
	c0.224-4.193-2.994-7.774-7.188-7.998C266.175,140.078,259.668,136.485,255.733,129.598z"/>
<path d="M205.058,157.083c13.384,18.596,35.039,29.699,57.925,29.699c39.332,0,71.331-31.998,71.331-71.332V82.943
	c0-4.199-3.403-7.603-7.603-7.603c-4.2,0-7.603,3.404-7.603,7.603v32.507c0,30.947-25.177,56.125-56.124,56.125
	c-18.009,0-35.047-8.739-45.581-23.375c-2.453-3.409-7.206-4.182-10.613-1.729C203.381,148.923,202.606,153.675,205.058,157.083z"/>
<path d="M223.997,24.86c7.911-6.283,17.446-9.604,27.573-9.604h23.166c22.107,0,40.489,16.251,43.829,37.433
	c-17.454,1.026-48.665,0.083-61.171-12.423c-2.116-2.115-5.276-2.769-8.07-1.711c-2.797,1.058-4.714,3.681-4.899,6.666
	c-0.14,2.253-1.974,22.009-23.259,22.009c-4.2,0-7.603,3.404-7.603,7.603v15.415c0,4.199,3.403,7.603,7.603,7.603
	c4.2,0,7.603-3.404,7.603-7.603v-8.406c15.863-2.596,24.258-13.257,28.119-23.365c9.804,5.244,23.073,8.386,39.643,9.367
	c16.607,0.984,30.474-0.597,31.057-0.665c3.832-0.446,6.723-3.693,6.723-7.553c0-32.851-26.726-59.578-59.578-59.578H251.57
	c-13.598,0-26.402,4.462-37.03,12.903c-3.289,2.611-3.837,7.394-1.226,10.683C215.927,26.923,220.711,27.47,223.997,24.86z"/>
<path d="M100.594,183.049c-3.654-2.071-8.296-0.79-10.365,2.863c-13.936,24.573-32.006,67.214-38.95,130.806
	c-0.455,4.175,2.559,7.928,6.733,8.384c0.281,0.03,0.56,0.046,0.834,0.046c3.829,0,7.124-2.884,7.55-6.779
	c7.013-64.23,26.229-105.858,37.06-124.956C105.529,189.762,104.246,185.121,100.594,183.049z"/>
<path d="M207.684,375.558c1.047-1.887,1.245-4.129,0.541-6.169c-0.345-0.999-34.547-100.721-44.995-174.796
	c-0.586-4.158-4.431-7.055-8.592-6.467c-4.158,0.586-7.053,4.432-6.467,8.591c5.577,39.538,17.704,85.741,26.895,117.539
	c6.61,22.863,12.695,41.782,16.057,51.966c-63.201,12.692-112.005,2.136-127.421-2.042c0.08-7.147,0.312-14.264,0.692-21.226
	c0.229-4.193-2.985-7.778-7.178-8.006c-4.168-0.236-7.778,2.985-8.006,7.177c-0.495,9.074-0.745,18.399-0.745,27.715
	c0,3.231,2.043,6.109,5.091,7.176c1.315,0.46,18.044,6.167,45.515,8.998c4.469,29.076,3.936,70.945-19.86,114.753
	c-1.279,2.356-1.224,5.212,0.147,7.516c1.372,2.304,3.854,3.716,6.535,3.716h26.358c4.2,0,7.603-3.404,7.603-7.603
	s-3.403-7.603-7.603-7.603H98.237c19.391-41.634,20.277-80.867,16.366-109.596c4.921,0.247,10.081,0.39,15.479,0.39
	c5.957,0,12.204-0.178,18.696-0.562c4.297,29.036,3.51,70.448-20.011,113.74c-1.28,2.356-1.225,5.212,0.146,7.517
	c1.372,2.304,3.854,3.716,6.535,3.716h26.347c4.2,0,7.603-3.404,7.603-7.603s-3.403-7.603-7.603-7.603h-14.003
	c19.71-42.314,20.303-82.169,16.175-111.02c12.222-1.304,25.191-3.386,38.769-6.494
	C204.836,378.797,206.637,377.444,207.684,375.558z"/>
<path d="M154.421,100.563V90.022c0-4.199-3.403-7.603-7.603-7.603c-4.2,0-7.603,3.404-7.603,7.603v10.541
	c0,4.199,3.403,7.603,7.603,7.603C151.018,108.167,154.421,104.762,154.421,100.563z"/>
<path d="M166.62,90.022v10.541c0,4.199,3.403,7.603,7.603,7.603c4.2,0,7.603-3.404,7.603-7.603V90.022
	c0-4.199-3.403-7.603-7.603-7.603C170.024,82.419,166.62,85.823,166.62,90.022z"/>
<path d="M130.229,129.598c-2.085-3.646-6.73-4.912-10.374-2.828c-3.646,2.083-4.913,6.728-2.828,10.374
	c6.519,11.405,17.681,17.845,32.284,18.625c0.138,0.007,0.275,0.011,0.412,0.011c4.012,0,7.369-3.144,7.585-7.198
	c0.224-4.193-2.994-7.774-7.188-7.998C140.672,140.079,134.166,136.485,130.229,129.598z"/>
<path d="M60.917,229.935c1.192,0,2.401-0.281,3.528-0.873c3.718-1.952,5.149-6.548,3.197-10.265
	c-13.225-25.186-34.322-75.134-27.053-126.68c10.04-71.201,53.845-76.86,110.068-76.86c19.089,0,32.268,4.571,39.171,13.586
	c6.196,8.093,6.136,18.442,5.187,25.163c-9.78-0.443-22.603-2.637-27.83-7.865c-1.547-1.547-3.687-2.354-5.868-2.211
	c-2.183,0.141-4.199,1.216-5.533,2.949c-22.719,29.508-56.168,18.24-57.552,17.756c-2.332-0.834-4.919-0.484-6.942,0.94
	c-2.022,1.424-3.227,3.744-3.227,6.217v5.7c-5.537-1.408-11.485-1.135-17.023,0.992c-3.683,1.404-6.989,3.554-9.821,6.389
	c-5.321,5.314-8.253,12.384-8.253,19.907c0,7.522,2.932,14.592,8.25,19.904c1.896,1.896,4.005,3.486,6.307,4.758
	c6.569,32.976,35.916,57.343,69.953,57.343c39.336,0,71.338-31.997,71.338-71.328V84.69c0-4.199-3.403-7.603-7.603-7.603
	c-4.2,0-7.603,3.404-7.603,7.603v30.768c0,30.946-25.181,56.122-56.131,56.122c-27.91,0-51.81-20.815-55.595-48.416
	c-0.387-2.825-2.323-5.196-5.013-6.141c-1.851-0.65-3.5-1.69-4.903-3.093c-2.444-2.442-3.791-5.69-3.791-9.147
	c0-3.457,1.347-6.706,3.796-9.151c1.312-1.312,2.822-2.299,4.506-2.942c4.772-1.833,10.192-0.682,13.75,2.875
	c2.159,2.213,5.444,2.899,8.308,1.733c2.864-1.166,4.737-3.95,4.737-7.043v-8.781c16.359,2.588,40.844,0.304,59.755-19.681
	c14.341,8.041,35.701,7.562,38.456,7.462c3.332-0.12,6.197-2.397,7.068-5.614c2.124-7.858,5.727-27.879-6.647-44.04
	C191.971,6.627,174.729,0.05,150.658,0.05c-26.929,0-55.151,0.996-78.246,12.892C46.28,26.402,30.945,51.606,25.532,89.993
	c-7.865,55.768,14.572,109.066,28.647,135.872C55.539,228.455,58.181,229.935,60.917,229.935z"/>
<path d="M89.2,313.967c4.507,2.028,8.713,2.868,12.628,2.868c12.104-0.001,21.415-8.036,28.128-13.832
	c4.062-3.508,8.686-7.472,11.144-7.281c1.204,0.098,2.974,1.451,4.856,3.708c2.689,3.226,7.483,3.66,10.708,0.972
	c3.226-2.689,3.661-7.483,0.972-10.708c-4.739-5.686-9.741-8.672-15.292-9.127c-8.831-0.724-15.692,5.198-22.325,10.925
	c-9.285,8.016-15.441,12.719-24.581,8.607c-2.248-1.011-3.486-2.472-4.143-4.883c-3.818-14.022,14.079-46.514,26.258-63.702
	c2.429-3.424,1.623-8.171-1.801-10.601c-3.427-2.43-8.173-1.622-10.601,1.802c-3.651,5.145-35.46,51.005-28.53,76.488
	C78.466,305.99,82.816,311.095,89.2,313.967z"/>
<g>
</g>
<g>
</g>
<g>
</g>
<g>
</g>
<g>
</g>
<g>
</g>
<g>
</g>
<g>
</g>
<g>
</g>
<g>
</g>
<g>
</g>
<g>
</g>
<g>
</g>
<g>
</g>
<g>
</g>
</svg>
