<?xml version="1.0" encoding="UTF-8" standalone="no"?>
<svg width="116px" height="103px" viewBox="0 0 116 103" version="1.1" xmlns="http://www.w3.org/2000/svg" xmlns:xlink="http://www.w3.org/1999/xlink">
    <!-- Generator: Sketch 50 (54983) - http://www.bohemiancoding.com/sketch -->
    <title>Pet</title>
    <desc>Created with Sketch.</desc>
    <defs></defs>
    <g id="Page-1" stroke="none" stroke-width="1" fill="none" fill-rule="evenodd">
        <g id="Splash" transform="translate(-128.000000, -259.000000)" fill="#10437D" fill-rule="nonzero">
            <g id="Pet" transform="translate(128.000000, 259.000000)">
                <path d="M31.6244015,56 C36.0517093,56 40.1698728,54.725454 43.5316481,52.3148312 C48.5307601,48.7321655 52.8885669,42.6871759 55.4871845,35.7290988 C58.2108137,28.4369872 58.7401951,21.0279861 56.9782981,14.867006 C56.9737851,14.8508213 56.9688207,14.834187 56.9638563,14.8180023 C54.2235288,5.67813619 44.6878931,0 32.0775124,0 C27.311274,0 22.3243473,0.856440969 17.6564936,2.47671039 C9.46033286,5.31937509 3.41599714,11.130136 1.07372114,18.418651 C-1.26539572,25.695477 0.257309332,33.8988777 5.25100565,40.9252902 C5.26228829,40.9414749 5.27402224,40.9576596 5.28575618,40.9733948 C12.0788079,50.2413898 22.1709034,55.9991008 31.6225963,56 C31.6234989,56 31.6239502,56 31.6244015,56 Z M39.6341731,21.6623368 C42.541935,21.5584849 44.9514555,23.7870298 45.0660871,26.6607151 C45.1802675,29.5303544 42.9300578,31.958061 40.0493742,32.0718036 C39.9794219,32.0745011 39.9099208,32.0758498 39.8408711,32.0758498 C37.022919,32.0758498 34.7284814,29.8787752 34.6165576,27.0738749 C34.5055364,24.2010886 36.7566487,21.7760794 39.6341731,21.6623368 Z M104.999354,32 C102.305362,32 100.111504,29.8911013 100.004055,27.1983392 C99.9509775,25.8644726 100.420474,24.589726 101.325807,23.6088529 C102.232003,22.6266852 103.466156,22.0570624 104.801286,22.0039839 C107.581151,21.8948062 109.886342,24.0429744 109.995949,26.8017609 C110.049026,28.1364906 109.579098,29.4116688 108.67247,30.3929734 C107.766274,31.3738465 106.532552,31.9430377 105.198286,31.9961162 C105.131832,31.9987054 105.065377,32 104.999354,32 Z M111.946672,88.8313296 C114.185259,88.8313296 116,90.6597503 116,92.9156648 C116,95.1715793 114.185259,97 111.946222,97 C100.66726,97 85.2102046,94.3819411 75.6261725,81.9088353 C74.6023684,80.5764344 73.7366616,79.2417644 73.0002252,77.9438534 C72.2633384,79.2417644 71.3976316,80.5764344 70.3738275,81.9088353 C65.0840976,88.7932091 54.4884226,97 34.053778,97 C31.8147413,97 30,95.1715793 30,92.9156648 C30,90.6597503 31.8147413,88.8313296 34.053778,88.8313296 C59.7141929,88.8313296 66.5997601,74.4735299 68.377567,68.263979 C61.1573379,65.4988841 56.2932547,56.7275473 56.2932547,50.4685305 C56.2932547,42.4904624 63.7877894,36 73.0002252,36 C82.212661,36 89.7071957,42.4904624 89.7071957,50.4685305 C89.7071957,56.7275473 84.8431125,65.4988841 77.6228834,68.263979 C79.4011407,74.4730761 86.2867079,88.8313296 111.946672,88.8313296 Z M76.9163919,95 C79.1719048,95 81,96.7906667 81,99 C81,101.209333 79.1719048,103 76.9163919,103 L70.0836081,103 C67.8280952,103 66,101.209333 66,99 C66,96.7906667 67.8280952,95 70.0836081,95 L76.9163919,95 Z" id="Combined-Shape"></path>
            </g>
        </g>
    </g>
</svg>