<svg xmlns="http://www.w3.org/2000/svg" width="200" height="240" viewBox="0 0 200 240">
    <g fill="none" fill-rule="evenodd">
        <g fill-rule="nonzero">
            <path fill="#29485A" d="M112 147h13v13h-13z"/>
            <g fill="#ED1C24">
                <path d="M154.341 15.872l4.764-4.715 6.736 6.666-4.764 4.714zM134.13 61.144l6.736-6.666 4.763 4.714-6.736 6.666z"/>
            </g>
            <g fill="#FBCC34">
                <path d="M170.285 66.965h6.7v10.074h-6.7zM7.13 8.893l4.737-4.749 6.698 6.715-4.737 4.75z"/>
            </g>
            <g fill="#0378A3">
                <path d="M66.466 125.116l6.725-6.7 4.755 4.738-6.724 6.7zM18.405 67.175h6.725v10.052h-6.725zM49.655 7.846l6.725-6.7 4.755 4.738-6.724 6.7zM193.26 3.513h6.724v10.052h-6.725z"/>
            </g>
            <path fill="#06AAE9" d="M124 112.971l4.971-4.971 7.029 7.029-4.971 4.971z"/>
            <path fill="#ED1C24" d="M0 172.971L4.971 168 12 175.029 7.029 180z"/>
            <path fill="#FBCC34" d="M73 191h7v10h-7z"/>
            <path fill="#0378A3" d="M124 189.029l7.029-7.029 4.971 4.971-7.029 7.029z"/>
            <g fill="#06AAE9">
                <path d="M181.57 183.154l4.737-4.74 6.699 6.702-4.738 4.74zM6.403 143.919h10.05v6.703H6.402zM180.586 123.81c-7.4 0-13.399-6.001-13.399-13.405 0-7.403 5.999-13.405 13.399-13.405 7.4 0 13.399 6.002 13.399 13.405 0 7.404-6 13.406-13.4 13.406zm0-20.107c-3.7 0-6.7 3-6.7 6.702a6.7 6.7 0 0 0 6.7 6.703c3.7 0 6.7-3 6.7-6.703a6.7 6.7 0 0 0-6.7-6.702z"/>
            </g>
            <path fill="#FF1D25" d="M35.5 191c-7.456 0-13.5-6.044-13.5-13.5S28.044 164 35.5 164 49 170.044 49 177.5 42.956 191 35.5 191zm0-20.25a6.75 6.75 0 1 0 0 13.5 6.75 6.75 0 0 0 0-13.5z"/>
            <path fill="#F8CF26" d="M116.5 27c-7.456 0-13.5-6.044-13.5-13.5S109.044 0 116.5 0 130 6.044 130 13.5 123.956 27 116.5 27zm0-20.25a6.75 6.75 0 1 0 0 13.5 6.75 6.75 0 0 0 0-13.5z"/>
            <g>
                <path fill="#F9BE00" d="M106.448 76.326c2.07 2.07 2.07 5.455 0 7.524l-7.597 7.598c-2.07 2.07-5.456 2.07-7.525 0L62.552 62.674c-2.07-2.07-2.07-5.455 0-7.525l7.598-7.597c2.069-2.07 5.455-2.07 7.524 0l28.774 28.774z"/>
                <path fill="#000" d="M103 85.975c-2.05 2.05-5.407 2.05-7.457 0l-28.518-28.52c-2.05-2.05-2.05-5.404-.002-7.455l-4.485 4.485c-2.05 2.051-2.05 5.407 0 7.458l28.518 28.519c2.05 2.05 5.406 2.05 7.457 0L103 85.975z" opacity=".1"/>
                <path fill="#F9BE00" d="M106.552 76.326c-2.07 2.07-2.07 5.455 0 7.524l7.598 7.598c2.068 2.07 5.455 2.07 7.524 0l28.774-28.774c2.07-2.07 2.07-5.455 0-7.525l-7.598-7.597c-2.07-2.07-5.455-2.07-7.524 0l-28.774 28.774z"/>
                <path fill="#000" d="M150.465 54.554L145.911 50c2.04 2.048 2.038 5.392-.006 7.437l-28.462 28.466c-2.047 2.047-5.397 2.047-7.443 0l4.56 4.562c2.047 2.047 5.397 2.047 7.443 0l28.462-28.467c2.047-2.047 2.047-5.397 0-7.444z" opacity=".1"/>
                <path fill="#00945E" d="M158 89.28c0-2.905-2.392-5.28-5.316-5.28H61.315C58.392 84 56 86.376 56 89.28v68.44c0 2.904 2.392 5.28 5.315 5.28h91.37c2.923 0 5.315-2.376 5.315-5.28V89.28z"/>
                <g fill="#00B288" transform="translate(56 84)">
                    <ellipse cx="27.239" cy="61.551" rx="9.716" ry="9.771"/>
                    <ellipse cx="40.351" cy="30.335" rx="9.716" ry="9.771"/>
                    <ellipse cx="68.805" cy="48.271" rx="9.716" ry="9.771"/>
                    <ellipse cx="78.52" cy="9.88" rx="9.716" ry="9.771"/>
                    <ellipse cx="15.647" cy="15.179" rx="9.716" ry="9.771"/>
                    <path d="M74.964 78.924c0-5.396 4.35-9.771 9.716-9.771s9.716 4.375 9.716 9.771H74.964zM.155 33.268c5.365 0 9.715 4.375 9.715 9.772 0 5.396-4.35 9.771-9.715 9.771V33.268zM101.846 40.106c-5.367 0-9.716-4.374-9.716-9.771 0-5.397 4.35-9.772 9.716-9.772v19.543z"/>
                </g>
                <path fill="#000" d="M152.684 84H61.315C58.392 84 56 86.376 56 89.28v11.634h44.07V137.6c0 2.904 1.87 3.8 4.159 1.991l2.365-1.87c2.287-1.809 6.03-1.809 8.317 0l2.366 1.87c2.287 1.809 4.158.913 4.158-1.99v-36.687h23.099v56.807c0 2.903-2.392 5.279-5.316 5.279h13.466c2.924 0 5.316-2.376 5.316-5.28V89.28c0-2.904-2.392-5.28-5.316-5.28z" opacity=".15"/>
                <path fill="#FF6D68" d="M165 78.225c0-2.874-2.393-5.225-5.319-5.225H53.32C50.394 73 48 75.351 48 78.225v10.55C48 91.65 50.394 94 53.319 94H159.68c2.926 0 5.319-2.351 5.319-5.225v-10.55z"/>
                <path fill="#000" d="M159.75 73H145c2.888 0 5.25 2.351 5.25 5.225v10.55c0 2.874-2.362 5.225-5.25 5.225h14.75c2.888 0 5.25-2.351 5.25-5.225v-10.55c0-2.874-2.362-5.225-5.25-5.225z" opacity=".15"/>
                <path fill="#F9BE00" d="M96 73v60.093c0 2.885 1.839 3.775 4.088 1.978l2.325-1.858c2.247-1.797 5.926-1.797 8.174 0l2.326 1.858c2.248 1.797 4.087.907 4.087-1.978V73H96z"/>
            </g>
            <g>
                <path fill="#FF7816" d="M182 148.5l-2.93 1.458 2.93 1.459v10.208a4.379 4.379 0 0 1-4.395 4.375h-13.28l-1.466-2.917-1.464 2.917h-25a4.379 4.379 0 0 1-4.395-4.375v-10.208l2.93-1.459L132 148.5v-13.125a4.379 4.379 0 0 1 4.395-4.375h25l1.464 2.917 1.465-2.917h13.281a4.379 4.379 0 0 1 4.395 4.375V148.5z"/>
                <path fill="#FF4B00" d="M182 148.5l-2.908 1.458 2.908 1.459v10.208a4.363 4.363 0 0 1-4.362 4.375h-13.184L163 163.083v-29.166l1.454-2.917h13.184a4.362 4.362 0 0 1 4.362 4.375V148.5z"/>
                <path fill="#FFE470" d="M147.636 146h-8.272c-.754 0-1.364-.671-1.364-1.5v-6c0-.829.61-1.5 1.364-1.5h8.272c.754 0 1.364.671 1.364 1.5v6c0 .829-.61 1.5-1.364 1.5z"/>
                <path fill="#FFD400" d="M182 148.5h-9.707c.498-.875.82-1.837.82-2.917 0-3.208-2.636-5.833-5.86-5.833-1.083 0-2.05.32-2.929.817V131h-2.93v9.567c-.878-.496-1.845-.817-2.93-.817-3.222 0-5.859 2.625-5.859 5.833 0 1.08.323 2.042.821 2.917H132v2.917h27.314l-3.34 3.354a1.405 1.405 0 0 0 0 2.042c.527.583 1.524.583 2.051 0l3.37-3.325V166h2.93v-12.512l6.298 6.241a1.42 1.42 0 0 0 2.05 0 1.405 1.405 0 0 0 0-2.042l-6.269-6.27H182V148.5zm-20.605 0h-2.93c-1.611 0-2.93-1.313-2.93-2.917 0-1.604 1.319-2.916 2.93-2.916 1.611 0 2.93 1.312 2.93 2.916v2.917zm5.859 0h-2.93v-2.917c0-1.604 1.319-2.916 2.93-2.916 1.611 0 2.93 1.312 2.93 2.916 0 1.604-1.319 2.917-2.93 2.917z"/>
                <path fill="#FDBF00" d="M182 148.5h-9.636c.495-.875.815-1.837.815-2.917 0-3.208-2.618-5.833-5.817-5.833-1.076 0-2.035.32-2.908.817V131H163v35h1.454v-12.512l6.253 6.241a1.403 1.403 0 0 0 2.035 0 1.413 1.413 0 0 0 0-2.042l-6.223-6.27H182V148.5zm-14.638 0h-2.908v-2.917a2.921 2.921 0 0 1 2.908-2.916c1.6 0 2.908 1.312 2.908 2.916a2.921 2.921 0 0 1-2.908 2.917z"/>
            </g>
        </g>
        <text fill="#000" font-family="Helvetica-Light, Helvetica" font-size="20" font-weight="300" transform="translate(-1)">
            <tspan x="42" y="237">1 0 10 10 0</tspan>
        </text>
        <g fill="#000" fill-rule="nonzero">
            <path d="M166.378 218h-8.756a.622.622 0 0 0-.622.622v8.756c0 .343.279.622.622.622h8.756a.622.622 0 0 0 .622-.622v-8.756a.622.622 0 0 0-.622-.622zm-.623 8.755h-7.51v-7.51h7.51v7.51zM178.378 218h-8.756a.622.622 0 0 0-.622.622v8.756c0 .343.279.622.622.622h8.756a.622.622 0 0 0 .622-.622v-8.756a.622.622 0 0 0-.622-.622zm-.623 8.755h-7.51v-7.51h7.51v7.51z"/>
            <path d="M176.25 220h-4.5a.75.75 0 0 0-.75.75v4.5c0 .414.336.75.75.75h4.5a.75.75 0 0 0 .75-.75v-4.5a.75.75 0 0 0-.75-.75zm-.75 4.5h-3v-3h3v3zM164.25 220h-4.5a.75.75 0 0 0-.75.75v4.5c0 .414.336.75.75.75h4.5a.75.75 0 0 0 .75-.75v-4.5a.75.75 0 0 0-.75-.75zm-.75 4.5h-3v-3h3v3zM164.25 232h-4.5a.75.75 0 0 0-.75.75v4.5c0 .414.336.75.75.75h4.5a.75.75 0 0 0 .75-.75v-4.5a.75.75 0 0 0-.75-.75zm-.75 4.5h-3v-3h3v3z"/>
            <path d="M166.378 230h-8.756a.622.622 0 0 0-.622.622v8.756c0 .343.279.622.622.622h8.756a.622.622 0 0 0 .622-.622v-8.756a.622.622 0 0 0-.622-.622zm-.623 8.755h-7.51v-7.51h7.51v7.51zM178.378 234a.61.61 0 0 0-.623.596v1.788h-3.153a.61.61 0 0 0-.623.596v1.828h-3.734v-1.828a.61.61 0 0 0-.623-.596.61.61 0 0 0-.622.596v2.424c0 .33.279.596.622.596h4.98a.61.61 0 0 0 .622-.596v-1.828h3.154a.61.61 0 0 0 .622-.596v-2.384a.61.61 0 0 0-.622-.596zM173.375 230h-3.75a.625.625 0 0 0-.625.625v3.75a.625.625 0 0 0 1.25 0v-3.125h2.5v.625a.625.625 0 0 0 1.25 0v-1.25a.625.625 0 0 0-.625-.625z"/>
            <path d="M178.337 230h-2.696a.665.665 0 0 0-.663.667v3.342h-3.315a.657.657 0 0 0-.663.657v2.667c0 .369.297.667.663.667a.665.665 0 0 0 .663-.667v-2h3.315a.661.661 0 0 0 .663-.666v-3.334h2.033a.665.665 0 0 0 .663-.666.665.665 0 0 0-.663-.667zM178.508 238h-1.016c-.272 0-.492.448-.492 1s.22 1 .492 1h1.016c.272 0 .492-.448.492-1s-.22-1-.492-1z"/>
        </g>
    </g>
</svg>
