<svg xmlns="http://www.w3.org/2000/svg" width="287" height="156" viewBox="0 0 287 156">
    <g fill="none" fill-rule="evenodd">
        <path d="M-3-3h295v183H-3z"/>
        <path stroke="#2868B0" stroke-width="4" d="M266 29c.38-2.433 1.38-4.1 3-5 2.069-1.15 4.49 1.51 6 0 2.99-2.99.173-7.115 3-9 1.115-.744 3.115.256 6 3"/>
        <path stroke="#2868B0" stroke-linecap="round" stroke-linejoin="round" stroke-width="4" d="M248 15l6-10"/>
        <path stroke="#2868B0" stroke-linecap="round" stroke-linejoin="round" stroke-width="5" d="M32 53c-2.216-2.188-4.05-3.743-5.5-4.667-1.45-.923-3.284-1.7-5.5-2.333M23.194 114.854c-4.923-.579-8.716-.736-11.38-.47-2.663.264-5.601 1.091-8.814 2.48"/>
        <path stroke="#2868B0" stroke-linecap="round" stroke-linejoin="round" stroke-width="4" d="M29.896 71.395c-2.914-1.098-5.222-1.773-6.922-2.026-1.701-.254-3.692-.219-5.974.105M12 146c6.629 5.371 10.295 7.705 11 7 1.057-1.057-7-9.465-7-11 0-1.535 4.487 1.838 7 1 1.324-.441 1.991-1.775 2-4 3.295.85 5.962.85 8 0 1.962-.817 3.295-2.484 4-5"/>
        <path stroke="#2868B0" stroke-linecap="round" stroke-linejoin="round" stroke-width="3" d="M99 2c.102 3.26.768 5.592 2 7 1.102 1.26 3.102 1.926 6 2-2.764.588-4.764 1.588-6 3-1.098 1.255-1.764 3.255-2 6-.687-2.687-1.687-4.687-3-6-1.354-1.354-3.354-2.354-6-3 2.784-.118 4.784-.784 6-2 1.451-1.451 2.451-3.784 3-7z"/>
        <path stroke="#2868B0" stroke-linecap="round" stroke-linejoin="round" stroke-width="4" d="M275.118 84c.125 3.983.949 6.835 2.47 8.556C278.95 94.094 281.42 94.909 285 95c-3.415.718-5.885 1.94-7.412 3.667-1.356 1.533-2.18 3.977-2.47 7.333-.849-3.284-2.084-5.728-3.706-7.333C269.74 97.012 267.269 95.79 264 95c3.44-.144 5.91-.959 7.412-2.444 1.792-1.774 3.028-4.626 3.706-8.556z"/>
    </g>
</svg>
