<svg xmlns="http://www.w3.org/2000/svg" width="273" height="210" viewBox="0 0 273 210">
    <g fill="#E2C675" fill-rule="nonzero">
        <path d="M126.539 131.424l-.096.037c.235 2.098.673 4.726.837 6.81l.623 7.625 7.469-2.867-4.736-6.046c-1.325-1.68-2.849-3.85-4.097-5.559zM153.225 59.054c-2.146.823-3.597 1.558-4.304 2.075l5.48 14.277c1.01-.142 2.12-.48 3.777-1.115 5.818-2.234 8.28-6.545 6.399-11.444-1.71-4.453-5.825-5.915-11.352-3.793zM100.215 141.529c-1.217.467-2.054.875-2.47 1.144l2.746 7.154c.575-.087 1.194-.294 2.154-.662 3.317-1.273 4.805-3.533 3.867-5.977-.86-2.215-3.128-2.876-6.297-1.66z"/>
        <path d="M235.414 51.354l10.255-22.81-22.874-10.064L230.988.282 24.598 79.508l1.187 3.093-3.677 1.412-1.187-3.093L0 88.95l46.23 120.432 226.513-86.95-12.088-5.321 10.263-22.794-22.882-10.08 10.26-22.802-22.882-10.08zM68.81 194.685l-3.677 1.412-3.582-9.333 3.677-1.411 3.582 9.332zm-7.164-18.665l-3.678 1.412-3.589-9.35 3.678-1.411 3.589 9.35zm-7.178-18.7l-3.678 1.412-3.582-9.332 3.677-1.411 3.583 9.332zm-7.172-18.681l-3.677 1.411-3.582-9.332 3.677-1.412 3.582 9.333zm-7.171-18.682l-3.677 1.411-3.583-9.332 3.678-1.412 3.582 9.333zm-7.165-18.665l-3.677 1.412-3.596-9.368 3.677-1.411 3.596 9.367zm78.16-36.869l11.272-4.327 19.031 49.58-11.27 4.326-19.032-49.579zM72.036 79.427l14.141 18.618c3.976 5.299 7.69 10.286 11.237 16.002l.221-.085c-1.007-6.439-1.713-12.913-2.188-19.234L93.71 71.107l12.007-4.61 2.195 56.042-13.194 5.065-35.052-43.429 12.37-4.748zm32.675 76.725c-.921.354-1.771.63-2.48.741l4.286 11.169-7.026 2.697-11.776-30.677c2.047-1.209 5.02-2.653 9.345-4.313 4.368-1.677 7.8-2.057 10.52-1.195 2.655.796 4.946 2.87 6.11 5.902 1.173 3.058 1.213 6.048-.044 8.496-1.565 3.152-4.744 5.572-8.935 7.18zm37.702-1.87l-5.476-7.062-8.976 3.446.833 8.845-7.302 2.803-2.396-34.742 9.304-3.571 21.696 27.333-7.683 2.949zm19.66-7.022c-3.579 1.374-7.485 1.765-9.629 1.478l-.777-6.315c2.232.252 5.592.081 8.614-1.079 3.252-1.248 4.458-3.244 3.672-5.291-.745-1.942-2.643-2.464-6.914-2.306-5.904.139-10.453-1.382-12.19-5.907-2.037-5.308.935-11.046 8.29-13.87 3.57-1.37 6.394-1.668 8.583-1.5l.585 6.238a16.071 16.071 0 0 0-7.076 1.033c-3.057 1.173-4.002 3.16-3.399 4.732.76 1.977 2.81 2.209 7.488 2.157 6.317-.096 9.977 1.786 11.66 6.171 2.003 5.19-.302 11.156-8.906 14.459zm25.104-9.636c-3.57 1.37-7.486 1.765-9.62 1.475l-.77-6.32c2.224.257 5.584.086 8.597-1.07 3.27-1.256 4.476-3.252 3.69-5.299-.745-1.942-2.652-2.46-6.923-2.303-5.93.15-10.462-1.378-12.199-5.904-2.037-5.307.935-11.046 8.29-13.869 3.57-1.37 6.394-1.668 8.601-1.507l.568 6.245c-1.432-.126-4.046-.13-7.068 1.029-3.083 1.184-4.011 3.163-3.407 4.736.759 1.977 2.8 2.212 7.496 2.154 6.308-.093 9.95 1.796 11.634 6.18 2.011 5.187-.276 11.147-8.889 14.453zM173.782 71.16c-2.493 5-7.554 8.899-14.226 11.46-1.48.568-2.848 1.002-3.97 1.18l6.838 17.813-11.2 4.3-18.782-48.93c3.263-1.907 7.973-4.23 14.876-6.88 6.974-2.676 12.46-3.27 16.824-1.91 4.208 1.268 7.866 4.572 9.731 9.432 1.85 4.845 1.903 9.644-.091 13.535z"/>
    </g>
</svg>
