<svg xmlns="http://www.w3.org/2000/svg" width="243" height="291" viewBox="0 0 243 291">
    <g fill="none" fill-rule="nonzero">
        <g transform="rotate(21 96.93 104.907)">
            <path fill="#93CAE2" d="M176.452 9.087c-.942.792-1.882 1.577-2.824 2.358C128.262 48.87 72.363 70.935 13.863 74.51l-1.16.072 31.055 31.323 14.117-37.019 33.879 25.629 11.293-39.867 36.702 25.629 2.823-45.562 33.88 17.086V9.087z"/>
            <ellipse cx="45.172" cy="22.591" fill="#ED1C24" rx="7.26" ry="7.261"/>
            <path fill="#FBCC34" d="M0 33.586l5.346-5.347 7.56 7.561-5.346 5.348z"/>
            <path fill="#FF1D25" d="M143.583 8.875h7.26v10.489h-7.26z"/>
            <path fill="#06AAE9" d="M93.571 7.561L101.131 0l5.346 5.348-7.56 7.561z"/>
            <g fill="#7AC943">
                <path d="M60.912 55.104l7.29-7.346 5.156 5.195-7.29 7.345zM188.508 65.994l3.778-3.54 5.342 5.005L193.85 71zM237.96 138.28l3.779-3.541 5.342 5.006-3.778 3.54z"/>
            </g>
            <path fill="#FF1D25" d="M126.644 97.625h7.26v10.489h-7.26zM259.74 142H267v10.489h-7.26z"/>
            <path fill="#7AC943" d="M145.196 143.107l7.56-7.562 5.347 5.348-7.56 7.562z"/>
            <path fill="#06AAE9" d="M61.305 121.53l5.347-5.348 7.56 7.561-5.347 5.348z"/>
            <path fill="#7AC943" d="M85.505 192.023h7.26v10.488h-7.26z"/>
            <path fill="#06AAE9" d="M28.233 172.359l5.346-5.348 7.56 7.562-5.346 5.347zM229.088 107.007l5.346-5.348 7.56 7.562-5.346 5.347z"/>
            <path fill="#FF1D25" d="M33.073 207.652l7.56-7.561 5.346 5.348-7.56 7.561z"/>
            <path fill="#06AAE9" d="M145.196 203.618l7.56-7.561 5.347 5.347-7.56 7.562z"/>
        </g>
        <path fill="#FCD2BE" d="M90.121 132.906v25.565c0 11.716-9.477 21.218-21.166 21.218-3.13 0-6.1-.682-8.773-1.904v-.003c-6.468-2.957-11.191-9.083-12.191-16.401a6.833 6.833 0 0 1-2.575-1.627 6.85 6.85 0 0 1 0-9.674 6.809 6.809 0 0 1 9.655 0l1.778-10.218 1.212-6.956h32.06z"/>
        <path fill="#FAB998" d="M60.465 178.075c-6.576-2.956-11.38-9.08-12.397-16.397a6.966 6.966 0 0 1-2.619-1.626 6.767 6.767 0 0 1 0-9.672c2.708-2.676 7.108-2.676 9.82 0l1.807-10.215 5.666 1.134c-2.383 4.06-12.445 18.878-2.277 36.776z"/>
        <path fill="#6B4B3D" d="M100.59 122.42c0 10.15-8.254 18.375-18.43 18.375H62.908v1.705c0 4.057-3.3 7.344-7.37 7.344a6.86 6.86 0 0 0-7.292-1.544v-7.505c0-10.146 8.254-18.375 18.43-18.375h33.912z"/>
        <path fill="#5B3D2D" d="M82.068 122.42H66.87c-10.283 0-18.623 8.229-18.623 18.375v7.505c2.469-.935 5.377-.42 7.368 1.544 4.112 0 7.447-3.287 7.447-7.344v-1.705h.385c0-10.146 8.339-18.375 18.621-18.375z"/>
        <path fill="#EF4A6E" d="M85.29 230.815s-12.978 6.475-26.118 3.942c-4.916-.945-9.856-3.152-14.146-7.433 0 0 4.112-27.482 11.816-43.543 1.024-2.134 2.111-4.066 3.263-5.706l4.792.37 9.684.75c0 1.343.172 3.974.525 7.405 1.2 11.734 4.493 32.861 10.183 44.215z"/>
        <path fill="#D8254F" d="M58.959 235.344c-4.842-.954-9.708-3.184-13.933-7.51 0 0 5.197-35.639 14.851-49.759l4.72.374 1.366 1.382c-3.532 7.425-11.803 36.156-7.004 55.513z"/>
        <path fill="#F9CE55" d="M177.496 201.467l-5.164-7.421-37.285-53.575c-1.733-6.439-1.057-18.051 16.841-18.051 3.948 0 7.878.071 11.647.464 13.322 1.39 24.632 6.811 27.526 27.414 3.714 26.432-13.565 51.169-13.565 51.169z"/>
        <path fill="#E2A11E" d="M177.428 201.467l-5.188-7.389c1.323-14.818 5.235-69.425-8.84-70.852 13.386 1.384 24.75 6.782 27.658 27.295 3.733 26.317-13.63 50.946-13.63 50.946z"/>
        <path fill="#FCD2BE" d="M179.921 159.64a6.824 6.824 0 0 1-2.575 1.636c-1.185 8.724-7.599 15.765-15.951 17.808a20.862 20.862 0 0 1-5.013.605c-11.689 0-21.166-9.557-21.166-21.34v-18.015s9.383.34 13.086-3.395c5.376 7.037 12.362 8.018 16.995 7.713v-.004c2.966-.197 4.969-.92 4.969-.92v6.182l.003-.003a6.788 6.788 0 0 1 7.275-1.558 6.768 6.768 0 0 1 2.377 1.561c2.667 2.686 2.667 7.044 0 9.73z"/>
        <path fill="#FAB998" d="M179.881 160.17a6.976 6.976 0 0 1-2.627 1.642c-1.208 8.758-7.75 15.825-16.27 17.877 11.212-6.104 4.076-34.186 3.98-34.564v-.004c3.026-.197 5.069-.923 5.069-.923v6.206l.003-.004c2.006-1.99 4.935-2.511 7.42-1.564.883.334 1.711.859 2.425 1.568a6.865 6.865 0 0 1 0 9.766z"/>
        <path fill="#00C7A9" d="M135.216 243.945c14.73 3.378 27.32 3.019 35.953 1.92 7.795-.996 12.363-2.597 12.363-2.597 0-45.008-17.407-66-17.407-66l-3.862.427-11.22 1.246c-2.248 25.56-15.827 65.004-15.827 65.004z"/>
        <path fill="#04AF92" d="M170.564 245.83c7.668-.994 12.162-2.594 12.162-2.594 0-44.986-17.125-65.967-17.125-65.967l-3.799.426-.818 1.326s15.41 33.604 9.58 66.81z"/>
        <path fill="#000" d="M74.821 153.677v-3.632c0-1.447-1.082-2.62-2.416-2.62-1.334 0-2.416 1.173-2.416 2.62v3.632c0 1.447 1.082 2.62 2.416 2.62 1.334 0 2.416-1.173 2.416-2.62zM78.847 150.045v3.632c0 1.447 1.082 2.62 2.416 2.62 1.334 0 2.416-1.173 2.416-2.62v-3.632c0-1.447-1.082-2.62-2.416-2.62-1.334 0-2.416 1.173-2.416 2.62zM66.646 163.18c-.69-1.177-2.23-1.585-3.439-.913-1.208.672-1.628 2.17-.938 3.346 2.161 3.678 5.861 5.755 10.702 6.006.046.002.091.004.137.004 1.33 0 2.443-1.014 2.515-2.322.074-1.352-.993-2.507-2.383-2.579-3.132-.163-5.289-1.322-6.594-3.543z"/>
        <path fill="#000" d="M45.86 163.04c2.195 10.966 11.997 19.068 23.366 19.068 13.139 0 23.828-10.64 23.828-23.718v-11.916a2.534 2.534 0 0 0-2.54-2.529 2.534 2.534 0 0 0-2.539 2.529v11.916c0 10.29-8.41 18.662-18.749 18.662-9.322 0-17.305-6.922-18.569-16.1a2.53 2.53 0 0 0-1.674-2.042 4.337 4.337 0 0 1-1.638-1.028 4.26 4.26 0 0 1-1.266-3.042c0-1.149.45-2.23 1.267-3.042a4.269 4.269 0 0 1 1.506-.978 4.345 4.345 0 0 1 4.659 1.021 2.539 2.539 0 0 0 1.862.694c5.149-.056 9.37-4.034 9.787-9.067h16.812c11.598 0 21.033-9.394 21.033-20.94a2.534 2.534 0 0 0-2.54-2.528H66.438c-11.598 0-21.034 9.393-21.034 20.939a2.534 2.534 0 0 0 2.54 2.528 2.534 2.534 0 0 0 2.539-2.528c0-8.758 7.157-15.883 15.955-15.883h31.287c-1.22 7.56-7.82 13.354-15.752 13.354H62.654a2.534 2.534 0 0 0-2.54 2.528v1.709c0 2.372-1.727 4.351-3.995 4.756a9.449 9.449 0 0 0-9.082-1.306 9.308 9.308 0 0 0-3.28 2.124 9.272 9.272 0 0 0-2.757 6.62 9.27 9.27 0 0 0 2.755 6.618 9.377 9.377 0 0 0 2.106 1.582zM54.582 182.758c-4.354 9.048-7.567 21.395-9.497 30.16-.301 1.368.59 2.717 1.989 3.01.184.04.368.058.548.058 1.195 0 2.27-.813 2.532-2.002 1.873-8.507 4.975-20.454 9.12-29.068.61-1.267.053-2.777-1.242-3.372-1.296-.596-2.84-.053-3.45 1.214z"/>
        <path fill="#000" d="M110.95 143.392a2.532 2.532 0 0 0-2.524 2.54v12.344c-.883 1.99-4.8 10.327-11.732 18.348-5.74 6.642-11.924 11.298-18.496 13.953a215.414 215.414 0 0 1-.49-4.376 2.53 2.53 0 0 0-2.768-2.27 2.536 2.536 0 0 0-2.255 2.785c.105 1.04.31 2.95.628 5.45-3.844.952-7.81 1.252-11.888.896a2.528 2.528 0 0 0-2.733 2.312 2.536 2.536 0 0 0 2.297 2.75c1.219.107 2.43.16 3.636.16 3.177 0 6.308-.371 9.377-1.1 1.4 9.525 3.938 23.059 7.998 32.563-2.403.952-6.52 2.346-11.316 2.982-9.356 1.242-17.035-.817-22.849-6.122.161-.995.417-2.519.763-4.42a2.54 2.54 0 0 0-2.027-2.957 2.525 2.525 0 0 0-2.938 2.04c-.65 3.567-.98 5.788-.995 5.881a2.55 2.55 0 0 0 .712 2.172 29.109 29.109 0 0 0 7.402 5.422c.023.056.044.112.071.167.121.25 11.935 25.269-2.672 52.335a2.554 2.554 0 0 0 .049 2.511A2.521 2.521 0 0 0 50.37 291h8.748a2.532 2.532 0 0 0 2.524-2.54c0-1.404-1.13-2.541-2.524-2.541h-4.653c6.44-13.943 6.628-27.004 5.544-35.802-.676-5.488-1.895-9.959-2.915-13 2.703.683 5.57 1.036 8.585 1.035 1.885 0 3.827-.135 5.82-.406 1.76-.24 3.428-.568 4.97-.937 2.416 6.338 8.833 27.662-3.46 50.438a2.554 2.554 0 0 0 .05 2.511 2.521 2.521 0 0 0 2.17 1.242h8.748a2.532 2.532 0 0 0 2.524-2.54c0-1.404-1.13-2.541-2.524-2.541h-4.653c6.439-13.943 6.628-27.004 5.544-35.802-.818-6.638-2.429-11.785-3.524-14.717 3.083-1.047 5.018-2.01 5.162-2.082a2.538 2.538 0 0 0 1.266-1.469 2.555 2.555 0 0 0-.137-1.94c-4.007-8.066-6.986-21.954-8.755-34.204 7.783-2.89 15.085-8.18 21.623-15.747 8.435-9.76 12.605-19.76 12.778-20.18.127-.309.193-.64.193-.974v-12.872a2.532 2.532 0 0 0-2.524-2.54zM168.619 181.078a2.548 2.548 0 0 0-.952 3.464c4.838 8.575 12.887 27.267 13.215 57.066-5.115 1.403-21.286 4.938-42.36.68 2.802-8.548 11.324-35.57 14.28-56.643a2.538 2.538 0 0 0-2.15-2.87 2.529 2.529 0 0 0-2.856 2.16c-.153 1.09-.322 2.199-.504 3.32-15.59-8.865-24.177-26.927-25.542-29.981v-12.342a2.534 2.534 0 0 0-2.528-2.54 2.534 2.534 0 0 0-2.527 2.54v12.873c0 .334.065.665.193.973.406.987 9.925 23.616 29.47 33.746-4.443 23.22-13.418 49.525-13.52 49.821a2.552 2.552 0 0 0 .18 2.062 2.53 2.53 0 0 0 1.646 1.243 109.464 109.464 0 0 0 12.888 2.17c-1.372 9.641-1.175 22.96 5.377 37.099h-4.655a2.534 2.534 0 0 0-2.528 2.54 2.534 2.534 0 0 0 2.528 2.541h8.758c.892 0 1.717-.472 2.173-1.242.456-.77.474-1.724.048-2.512-7.819-14.466-8.08-28.304-6.652-38.007a102.02 102.02 0 0 0 11.36.057c-1.3 9.6-1.004 22.712 5.441 36.623h-4.659a2.534 2.534 0 0 0-2.527 2.54 2.534 2.534 0 0 0 2.527 2.541h8.762c.892 0 1.717-.472 2.173-1.242.455-.77.474-1.724.049-2.511-7.91-14.64-8.087-28.63-6.602-38.347 9.131-.946 14.693-2.853 15.13-3.006a2.54 2.54 0 0 0 1.692-2.398c0-32.065-8.698-52.271-13.883-61.462a2.52 2.52 0 0 0-3.445-.956zM155.347 153.677v-3.632c0-1.447-1.081-2.62-2.415-2.62-1.335 0-2.416 1.173-2.416 2.62v3.632c0 1.447 1.081 2.62 2.416 2.62 1.334 0 2.415-1.173 2.415-2.62zM146.49 153.677v-3.632c0-1.447-1.082-2.62-2.416-2.62-1.335 0-2.416 1.173-2.416 2.62v3.632c0 1.447 1.081 2.62 2.416 2.62 1.334 0 2.415-1.173 2.415-2.62z"/>
        <path fill="#000" d="M149.714 169.301c.072 1.308 1.184 2.322 2.515 2.322.045 0 .091-.001.137-.004 4.84-.252 8.541-2.328 10.702-6.007.69-1.175.27-2.673-.938-3.345-1.209-.672-2.748-.264-3.44.912-1.304 2.221-3.46 3.38-6.593 3.543-1.39.072-2.457 1.227-2.383 2.58zM180.323 131.689c4.378 4.055 7.082 10.234 8.267 18.892 2.357 17.222-4.485 33.91-8.772 42.325-.633 1.242-.169 2.778 1.036 3.43.366.197.758.291 1.144.291.887 0 1.745-.494 2.186-1.36 4.563-8.956 11.838-26.763 9.288-45.395-1.354-9.89-4.577-17.075-9.853-21.962a2.415 2.415 0 0 0-3.482.192 2.594 2.594 0 0 0 .186 3.587z"/>
        <path fill="#000" d="M135.061 143.017c.917.033 8.002.192 12.76-2.482 6.274 6.648 14.398 7.408 19.825 6.546v2.92c0 1.024.617 1.944 1.56 2.335.942.392 2.029.174 2.75-.55a4.297 4.297 0 0 1 4.586-.972c.554.211 1.055.54 1.491.977a4.277 4.277 0 0 1 1.258 3.042c0 1.15-.446 2.23-1.259 3.044a4.293 4.293 0 0 1-1.625 1.027 2.527 2.527 0 0 0-1.663 2.043c-1.255 9.18-9.185 16.103-18.445 16.103-10.27 0-18.624-8.374-18.624-18.666V148.15a2.526 2.526 0 0 0-2.523-2.529 2.526 2.526 0 0 0-2.522 2.529v10.233c0 13.082 10.618 23.724 23.669 23.724 11.293 0 21.03-8.104 23.209-19.072a9.324 9.324 0 0 0 2.091-1.581 9.306 9.306 0 0 0 2.738-6.621 9.306 9.306 0 0 0-2.737-6.62 9.235 9.235 0 0 0-3.254-2.124 9.317 9.317 0 0 0-5.654-.331v-1.897a2.531 2.531 0 0 0-3.364-2.383c-.469.164-11.566 3.912-19.104-5.903a2.52 2.52 0 0 0-3.783-.245c-1.735 1.739-5.99 2.469-9.234 2.616-.315-2.236-.335-5.678 1.721-8.37 2.29-2.998 6.663-4.519 12.996-4.519 7.763 0 15.884.24 22.373 3.115a2.52 2.52 0 0 0 3.327-1.291 2.532 2.532 0 0 0-1.288-3.336c-7.388-3.272-16.11-3.546-24.412-3.546-7.986 0-13.707 2.188-17.002 6.502-4.105 5.375-2.91 12.034-2.205 14.648a2.523 2.523 0 0 0 2.344 1.867zM170.427 220.924c-3.076 1.363-5.147-.196-8.27-2.854-2.233-1.898-4.541-3.861-7.513-3.622-1.867.152-3.55 1.141-5.145 3.026a2.495 2.495 0 0 0 .327 3.55 2.584 2.584 0 0 0 3.603-.322c.633-.75 1.228-1.197 1.634-1.23.835-.068 2.382 1.251 3.75 2.414 2.259 1.922 5.39 4.586 9.464 4.586 1.317 0 2.732-.279 4.249-.951 2.148-.952 3.611-2.645 4.232-4.894 2.332-8.448-8.371-23.652-9.599-25.357a2.582 2.582 0 0 0-3.566-.598 2.498 2.498 0 0 0-.608 3.514 81.71 81.71 0 0 1 5.232 8.543c4.038 7.677 3.99 11.175 3.604 12.576-.22.8-.638 1.284-1.394 1.619zM117.5 134.519v-3.227a2.418 2.418 0 0 0-2.416-2.42 2.418 2.418 0 0 0-2.416 2.42v3.227a2.418 2.418 0 0 0 2.416 2.42 2.418 2.418 0 0 0 2.416-2.42zM124.747 139.358c.618 0 1.237-.236 1.709-.708l1.61-1.614a2.423 2.423 0 0 0 0-3.422 2.414 2.414 0 0 0-3.416 0l-1.611 1.613a2.423 2.423 0 0 0 0 3.423c.472.472 1.09.708 1.708.708zM102.102 137.036l1.61 1.614c.472.472 1.09.708 1.71.708.617 0 1.236-.236 1.707-.708a2.423 2.423 0 0 0 0-3.422l-1.61-1.614a2.414 2.414 0 0 0-3.417 0 2.423 2.423 0 0 0 0 3.422z"/>
    </g>
</svg>
